<svg width="600" height="723" viewBox="0 0 600 723" fill="none" xmlns="http://www.w3.org/2000/svg">
<g clip-path="url(#clip0_1_370)">
<rect width="600" height="723" fill="white"/>
<g clip-path="url(#clip1_1_370)">
<mask id="mask0_1_370" style="mask-type:luminance" maskUnits="userSpaceOnUse" x="0" y="0" width="600" height="600">
<path d="M600 0H0V600H600V0Z" fill="white"/>
</mask>
<g mask="url(#mask0_1_370)">
<path d="M600 0H0V600H600V0Z" fill="white"/>
</g>
<mask id="mask1_1_370" style="mask-type:luminance" maskUnits="userSpaceOnUse" x="39" y="39" width="522" height="522">
<path d="M183.058 57.1214H201.049V39.1304C196.278 39.1304 191.702 41.0259 188.328 44.3999C184.954 47.7738 183.058 52.3499 183.058 57.1214Z" fill="white"/>
<path d="M219.041 39.1304H201.05V57.1215C205.821 57.1215 210.397 55.226 213.771 51.852C217.145 48.478 219.041 43.902 219.041 39.1304Z" fill="white"/>
<path d="M255.022 57.1215H273.013V39.1305C268.242 39.1305 263.666 41.0259 260.292 44.3999C256.918 47.7739 255.022 52.3499 255.022 57.1215Z" fill="white"/>
<path d="M291.004 39.1304H273.013V57.1214H291.004V39.1304Z" fill="white"/>
<path d="M308.995 57.1214H326.986V39.1304C322.215 39.1304 317.639 41.0259 314.265 44.3999C310.891 47.7739 308.995 52.3499 308.995 57.1214Z" fill="white"/>
<path d="M362.969 57.1214H380.96V39.1304C378.597 39.1304 376.257 39.5958 374.075 40.4999C371.892 41.4041 369.909 42.7293 368.238 44.3999C366.567 46.0705 365.242 48.0538 364.338 50.2366C363.434 52.4194 362.969 54.7588 362.969 57.1214Z" fill="white"/>
<path d="M398.95 39.1304H380.959V57.1214H398.95V39.1304Z" fill="white"/>
<path d="M201.049 57.1214H183.058V75.1125C187.83 75.1125 192.406 73.217 195.78 69.843C199.154 66.469 201.049 61.893 201.049 57.1214Z" fill="white"/>
<path d="M273.013 57.1214H255.022V75.1125H273.013V57.1214Z" fill="white"/>
<path d="M291.004 57.1214H273.013V75.1125C277.785 75.1125 282.361 73.217 285.735 69.843C289.109 66.4691 291.004 61.893 291.004 57.1214Z" fill="white"/>
<path d="M326.986 57.1214H308.995V75.1125H326.986V57.1214Z" fill="white"/>
<path d="M344.978 57.1214H326.987V75.1125C331.758 75.1125 336.334 73.217 339.708 69.843C343.082 66.469 344.978 61.893 344.978 57.1214Z" fill="white"/>
<path d="M380.959 57.1214H362.969V75.1125H380.959V57.1214Z" fill="white"/>
<path d="M398.95 57.1214H380.959V75.1125H398.95V57.1214Z" fill="white"/>
<path d="M201.049 93.1034H219.04V75.1124C214.269 75.1124 209.693 77.0079 206.319 80.3819C202.945 83.7559 201.049 88.3319 201.049 93.1034Z" fill="white"/>
<path d="M237.031 75.1125H219.04V93.1034C223.812 93.1034 228.388 91.208 231.762 87.834C235.136 84.46 237.031 79.884 237.031 75.1125Z" fill="white"/>
<path d="M308.995 75.1125H300C297.614 75.1125 295.326 76.0602 293.639 77.7472C291.952 79.4342 291.004 81.7222 291.004 84.108V93.1035H300C302.386 93.1035 304.674 92.1557 306.361 90.4687C308.048 88.7818 308.995 86.4937 308.995 84.108" fill="white"/>
<path d="M398.95 75.1125H380.959V93.1035H398.95V75.1125Z" fill="white"/>
<path d="M416.941 75.1125H398.95V93.1035H416.941V75.1125Z" fill="white"/>
<path d="M219.041 93.1035H201.05V111.094C205.821 111.094 210.397 109.199 213.771 105.825C217.145 102.451 219.041 97.875 219.041 93.1035Z" fill="white"/>
<path d="M273.013 111.094H291.004V93.1034C286.233 93.1034 281.657 94.9989 278.283 98.3729C274.909 101.747 273.013 106.323 273.013 111.094Z" fill="white"/>
<path d="M326.986 111.094H344.977V93.1034C340.206 93.1034 335.63 94.9989 332.256 98.3729C328.882 101.747 326.986 106.323 326.986 111.094Z" fill="white"/>
<path d="M362.969 93.1035H344.977V111.094C349.749 111.094 354.325 109.199 357.699 105.825C361.073 102.451 362.969 97.875 362.969 93.1035Z" fill="white"/>
<path d="M398.95 93.1035H380.959V111.094H398.95V93.1035Z" fill="white"/>
<path d="M416.941 93.1035H398.95V111.094H416.941V93.1035Z" fill="white"/>
<path d="M219.041 129.085H237.032V111.094C232.26 111.094 227.684 112.99 224.31 116.364C220.936 119.738 219.041 124.314 219.041 129.085Z" fill="white"/>
<path d="M255.022 111.094H237.031V129.085C239.394 129.085 241.734 128.62 243.916 127.716C246.099 126.812 248.082 125.487 249.753 123.816C251.424 122.145 252.749 120.162 253.653 117.979C254.557 115.797 255.022 113.457 255.022 111.094Z" fill="white"/>
<path d="M291.004 111.094H273.013V129.085H291.004V111.094Z" fill="white"/>
<path d="M308.995 111.094H291.004V129.085C295.776 129.085 300.352 127.19 303.726 123.816C307.1 120.442 308.995 115.866 308.995 111.094Z" fill="white"/>
<path d="M398.95 111.094H380.959V129.085H398.95V111.094Z" fill="white"/>
<path d="M416.941 111.094H398.95V129.085C403.722 129.085 408.298 127.19 411.672 123.816C415.046 120.442 416.941 115.866 416.941 111.094Z" fill="white"/>
<path d="M201.049 147.076H219.04V129.085C214.269 129.085 209.693 130.981 206.319 134.355C202.945 137.729 201.049 142.305 201.049 147.076Z" fill="white"/>
<path d="M237.032 129.085H219.041V147.076H237.032V129.085Z" fill="white"/>
<path d="M291.004 129.085H273.013V147.076C277.785 147.076 282.361 145.181 285.735 141.807C289.109 138.433 291.004 133.857 291.004 129.085Z" fill="white"/>
<path d="M326.986 129.085H317.991C315.605 129.085 313.317 130.033 311.63 131.72C309.943 133.407 308.995 135.695 308.995 138.081V147.076H317.991C320.377 147.076 322.665 146.129 324.352 144.442C326.039 142.755 326.986 140.467 326.986 138.081" fill="white"/>
<path d="M362.969 147.076H380.96V129.085C378.597 129.085 376.257 129.551 374.075 130.455C371.892 131.359 369.909 132.684 368.238 134.355C366.567 136.026 365.242 138.009 364.338 140.192C363.434 142.374 362.969 144.714 362.969 147.076Z" fill="white"/>
<path d="M201.049 147.076H192.054C189.668 147.076 187.38 148.024 185.693 149.711C184.006 151.398 183.058 153.686 183.058 156.072V165.067H192.054C194.44 165.067 196.728 164.12 198.415 162.433C200.102 160.746 201.049 158.458 201.049 156.072" fill="white"/>
<path d="M237.031 147.076H219.04V165.067C223.812 165.067 228.388 163.172 231.762 159.798C235.136 156.424 237.031 151.848 237.031 147.076Z" fill="white"/>
<path d="M255.022 165.068H273.013V147.076C268.242 147.076 263.666 148.972 260.292 152.346C256.918 155.72 255.022 160.296 255.022 165.068Z" fill="white"/>
<path d="M291.004 165.067H308.995V147.076C304.224 147.076 299.648 148.972 296.274 152.346C292.9 155.72 291.004 160.296 291.004 165.067Z" fill="white"/>
<path d="M326.986 165.067H344.977V147.076C340.206 147.076 335.63 148.972 332.256 152.346C328.882 155.72 326.986 160.296 326.986 165.067Z" fill="white"/>
<path d="M380.959 147.076H362.968V165.067C365.331 165.067 367.671 164.602 369.853 163.698C372.036 162.794 374.019 161.469 375.69 159.798C377.361 158.127 378.686 156.144 379.59 153.961C380.494 151.779 380.959 149.439 380.959 147.076Z" fill="white"/>
<path d="M416.941 147.076H407.946C405.56 147.076 403.272 148.024 401.585 149.711C399.898 151.398 398.95 153.686 398.95 156.072V165.067H407.946C410.332 165.067 412.62 164.12 414.307 162.433C415.994 160.746 416.941 158.458 416.941 156.072" fill="white"/>
<path d="M273.013 165.067H255.022V183.058C259.794 183.058 264.37 181.163 267.744 177.789C271.118 174.415 273.013 169.839 273.013 165.067Z" fill="white"/>
<path d="M308.995 165.067H291.004V183.058H308.995V165.067Z" fill="white"/>
<path d="M326.986 165.067H308.995V183.058H326.986V165.067Z" fill="white"/>
<path d="M344.977 165.067H326.986V183.058H344.977V165.067Z" fill="white"/>
<path d="M398.95 165.067H389.955C387.569 165.067 385.281 166.015 383.594 167.702C381.907 169.389 380.959 171.677 380.959 174.063V183.058H389.955C392.341 183.058 394.629 182.111 396.316 180.424C398.003 178.737 398.95 176.449 398.95 174.063" fill="white"/>
<path d="M57.1213 201.049H75.1123V183.058C70.3408 183.058 65.7648 184.954 62.3908 188.328C59.0168 191.702 57.1213 196.278 57.1213 201.049Z" fill="white"/>
<path d="M147.076 201.049H165.067V183.058C160.296 183.058 155.72 184.954 152.346 188.328C148.972 191.702 147.076 196.278 147.076 201.049Z" fill="white"/>
<path d="M183.058 183.058H165.067V201.049H183.058V183.058Z" fill="white"/>
<path d="M201.049 183.058H183.058V201.049C187.83 201.049 192.406 199.154 195.78 195.78C199.154 192.406 201.049 187.83 201.049 183.058Z" fill="white"/>
<path d="M237.031 201.049H255.023V183.058C252.66 183.058 250.32 183.524 248.138 184.428C245.955 185.332 243.972 186.657 242.301 188.328C240.63 189.999 239.305 191.982 238.401 194.165C237.497 196.347 237.031 198.687 237.031 201.049Z" fill="white"/>
<path d="M308.995 183.058H291.004V201.049H308.995V183.058Z" fill="white"/>
<path d="M326.986 183.058H308.995V201.049H326.986V183.058Z" fill="white"/>
<path d="M344.978 183.058H326.987V201.049C331.758 201.049 336.334 199.154 339.708 195.78C343.082 192.406 344.978 187.83 344.978 183.058Z" fill="white"/>
<path d="M380.959 183.059H371.964C369.578 183.059 367.29 184.006 365.603 185.693C363.916 187.38 362.968 189.668 362.968 192.054V201.049H371.964C373.145 201.049 374.315 200.817 375.406 200.365C376.498 199.913 377.489 199.25 378.325 198.415C379.16 197.579 379.823 196.588 380.275 195.496C380.727 194.405 380.959 193.235 380.959 192.054" fill="white"/>
<path d="M398.95 201.049H416.941V183.058C412.17 183.058 407.594 184.954 404.22 188.328C400.846 191.702 398.95 196.278 398.95 201.049Z" fill="white"/>
<path d="M434.932 183.058H416.941V201.049C421.713 201.049 426.289 199.154 429.663 195.78C433.037 192.406 434.932 187.83 434.932 183.058Z" fill="white"/>
<path d="M524.887 201.049H542.878V183.058C538.107 183.058 533.531 184.954 530.157 188.328C526.783 191.702 524.887 196.278 524.887 201.049Z" fill="white"/>
<path d="M560.87 183.058H542.879V201.049C547.65 201.049 552.226 199.154 555.6 195.78C558.974 192.406 560.87 187.83 560.87 183.058Z" fill="white"/>
<path d="M75.1123 201.049H57.1213V219.041H75.1123V201.049Z" fill="white"/>
<path d="M93.1035 219.04H111.095V201.049C106.323 201.049 101.747 202.945 98.3729 206.319C94.999 209.693 93.1035 214.269 93.1035 219.04Z" fill="white"/>
<path d="M129.085 219.04H147.076V201.049C142.305 201.049 137.729 202.945 134.355 206.319C130.981 209.693 129.085 214.269 129.085 219.04Z" fill="white"/>
<path d="M201.049 219.04H219.04V201.049C214.269 201.049 209.693 202.945 206.319 206.319C202.945 209.693 201.049 214.269 201.049 219.04Z" fill="white"/>
<path d="M255.023 201.049H237.031V219.041H255.023V201.049Z" fill="white"/>
<path d="M273.013 201.049H255.022V219.041C259.794 219.041 264.37 217.145 267.744 213.771C271.118 210.397 273.013 205.821 273.013 201.049Z" fill="white"/>
<path d="M308.995 201.049H291.004V219.041H308.995V201.049Z" fill="white"/>
<path d="M326.986 201.049H308.995V219.041H326.986V201.049Z" fill="white"/>
<path d="M416.941 201.049H398.95V219.041H416.941V201.049Z" fill="white"/>
<path d="M434.933 219.041H452.924V201.05C448.152 201.05 443.576 202.945 440.202 206.319C436.828 209.693 434.933 214.269 434.933 219.041Z" fill="white"/>
<path d="M470.915 219.04H488.906V201.049C484.134 201.049 479.558 202.945 476.184 206.319C472.81 209.693 470.915 214.269 470.915 219.04Z" fill="white"/>
<path d="M506.897 201.049H488.906V219.041H506.897V201.049Z" fill="white"/>
<path d="M524.887 201.049H506.896V219.041H524.887V201.049Z" fill="white"/>
<path d="M542.878 201.049H524.887V219.041C529.659 219.041 534.235 217.145 537.609 213.771C540.983 210.397 542.878 205.821 542.878 201.049Z" fill="white"/>
<path d="M75.1123 219.04H57.1213V237.031H75.1123V219.04Z" fill="white"/>
<path d="M93.1033 219.04H75.1123V237.031H93.1033V219.04Z" fill="white"/>
<path d="M111.095 219.04H93.1035V237.031H111.095V219.04Z" fill="white"/>
<path d="M147.076 219.04H129.085V237.031H147.076V219.04Z" fill="white"/>
<path d="M165.067 219.04H147.076V237.031H165.067V219.04Z" fill="white"/>
<path d="M183.058 219.04H165.067V237.031C167.43 237.031 169.769 236.566 171.952 235.662C174.135 234.758 176.118 233.433 177.789 231.762C179.46 230.091 180.785 228.108 181.689 225.925C182.593 223.743 183.058 221.403 183.058 219.04Z" fill="white"/>
<path d="M219.04 219.04H201.049V237.031H219.04V219.04Z" fill="white"/>
<path d="M237.032 219.04H219.041V237.031H237.032V219.04Z" fill="white"/>
<path d="M273.013 237.031H291.004V219.04C288.642 219.04 286.302 219.506 284.12 220.41C281.937 221.314 279.953 222.639 278.283 224.31C276.612 225.981 275.287 227.964 274.383 230.147C273.479 232.329 273.013 234.669 273.013 237.031Z" fill="white"/>
<path d="M308.995 219.04H291.004V237.031H308.995V219.04Z" fill="white"/>
<path d="M326.986 219.04H308.995V237.031C311.358 237.031 313.697 236.566 315.88 235.662C318.063 234.758 320.046 233.433 321.717 231.762C323.388 230.091 324.713 228.108 325.617 225.925C326.521 223.743 326.986 221.403 326.986 219.04Z" fill="white"/>
<path d="M416.941 219.04H398.95V237.031H416.941V219.04Z" fill="white"/>
<path d="M434.932 219.04H416.941V237.031H434.932V219.04Z" fill="white"/>
<path d="M452.923 219.04H434.932V237.031H452.923V219.04Z" fill="white"/>
<path d="M470.914 219.04H452.923V237.031H470.914V219.04Z" fill="white"/>
<path d="M506.896 219.04H488.906V237.031C491.268 237.031 493.608 236.566 495.79 235.662C497.973 234.758 499.956 233.433 501.627 231.762C503.298 230.091 504.623 228.108 505.527 225.925C506.431 223.743 506.896 221.403 506.896 219.04Z" fill="white"/>
<path d="M111.094 237.031H93.1035V255.022C97.875 255.022 102.451 253.127 105.825 249.753C109.199 246.379 111.094 241.803 111.094 237.031Z" fill="white"/>
<path d="M147.076 237.031H129.085V255.022H147.076V237.031Z" fill="white"/>
<path d="M183.058 255.022H201.049V237.031C196.278 237.031 191.702 238.927 188.328 242.301C184.954 245.675 183.058 250.251 183.058 255.022Z" fill="white"/>
<path d="M219.04 237.031H201.049V255.022H219.04V237.031Z" fill="white"/>
<path d="M237.032 237.031H219.041V255.022H237.032V237.031Z" fill="white"/>
<path d="M255.022 255.023H273.013V237.032C268.242 237.032 263.666 238.927 260.292 242.301C256.918 245.675 255.022 250.251 255.022 255.023Z" fill="white"/>
<path d="M291.004 237.031H273.013V255.022H291.004V237.031Z" fill="white"/>
<path d="M308.995 237.031H291.004V255.022C295.776 255.022 300.352 253.127 303.726 249.753C307.1 246.379 308.995 241.803 308.995 237.031Z" fill="white"/>
<path d="M344.978 237.031H335.982C333.596 237.031 331.308 237.979 329.621 239.666C327.934 241.353 326.987 243.641 326.987 246.027V255.023H335.982C338.368 255.023 340.656 254.075 342.343 252.388C344.03 250.701 344.978 248.413 344.978 246.027" fill="white"/>
<path d="M380.959 237.031H371.964C369.578 237.031 367.29 237.979 365.603 239.666C363.916 241.353 362.968 243.641 362.968 246.027V255.022H371.964C373.145 255.022 374.315 254.79 375.406 254.338C376.498 253.886 377.489 253.223 378.325 252.388C379.16 251.552 379.823 250.561 380.275 249.469C380.727 248.378 380.959 247.208 380.959 246.027" fill="white"/>
<path d="M452.923 237.031H434.932V255.022H452.923V237.031Z" fill="white"/>
<path d="M470.915 237.031H452.924V255.022C457.695 255.022 462.271 253.127 465.645 249.753C469.019 246.379 470.915 241.803 470.915 237.031Z" fill="white"/>
<path d="M39.1304 273.013H57.1214V255.022C52.3499 255.022 47.7738 256.918 44.3998 260.292C41.0259 263.666 39.1304 268.242 39.1304 273.013Z" fill="white"/>
<path d="M93.1035 255.022H84.108C81.7223 255.022 79.4342 255.97 77.7472 257.657C76.0603 259.344 75.1125 261.632 75.1125 264.018V273.013H84.108C86.4938 273.013 88.7818 272.066 90.4688 270.379C92.1558 268.692 93.1035 266.404 93.1035 264.018" fill="white"/>
<path d="M111.094 273.013H129.085V255.022C126.723 255.022 124.383 255.488 122.201 256.392C120.018 257.296 118.035 258.621 116.364 260.292C114.693 261.963 113.368 263.946 112.464 266.129C111.56 268.311 111.094 270.651 111.094 273.013Z" fill="white"/>
<path d="M147.076 255.022H129.085V273.013H147.076V255.022Z" fill="white"/>
<path d="M165.067 255.022H147.076V273.013H165.067V255.022Z" fill="white"/>
<path d="M183.058 255.022H165.067V273.013C167.43 273.013 169.769 272.548 171.952 271.644C174.135 270.74 176.118 269.415 177.789 267.744C179.46 266.073 180.785 264.09 181.689 261.907C182.593 259.725 183.058 257.385 183.058 255.022Z" fill="white"/>
<path d="M219.04 255.022H201.049V273.013H219.04V255.022Z" fill="white"/>
<path d="M237.032 255.022H219.041V273.013H237.032V255.022Z" fill="white"/>
<path d="M255.023 255.022H237.031V273.013H255.023V255.022Z" fill="white"/>
<path d="M380.959 273.013H398.95V255.022C394.179 255.022 389.603 256.918 386.229 260.292C382.855 263.666 380.959 268.242 380.959 273.013Z" fill="white"/>
<path d="M416.941 255.022H398.95V273.013H416.941V255.022Z" fill="white"/>
<path d="M434.932 255.022H416.941V273.013H434.932V255.022Z" fill="white"/>
<path d="M452.923 255.022H434.932V273.013H452.923V255.022Z" fill="white"/>
<path d="M488.906 273.013H506.897V255.022C502.125 255.022 497.549 256.918 494.175 260.292C490.801 263.666 488.906 268.242 488.906 273.013Z" fill="white"/>
<path d="M524.887 273.013H542.878V255.022C538.107 255.022 533.531 256.918 530.157 260.292C526.783 263.666 524.887 268.242 524.887 273.013Z" fill="white"/>
<path d="M57.1214 273.013H39.1304V291.004H57.1214V273.013Z" fill="white"/>
<path d="M75.1123 273.013H57.1213V291.004C61.8928 291.004 66.4689 289.109 69.8428 285.735C73.2168 282.361 75.1123 277.785 75.1123 273.013Z" fill="white"/>
<path d="M147.076 273.013H129.085V291.004H147.076V273.013Z" fill="white"/>
<path d="M183.058 291.004H201.049V273.013C196.278 273.013 191.702 274.909 188.328 278.283C184.954 281.657 183.058 286.233 183.058 291.004Z" fill="white"/>
<path d="M219.04 273.013H201.049V291.004H219.04V273.013Z" fill="white"/>
<path d="M255.023 273.013H237.031V291.004H255.023V273.013Z" fill="white"/>
<path d="M273.013 273.013H255.022V291.004H273.013V273.013Z" fill="white"/>
<path d="M291.004 273.013H273.013V291.004H291.004V273.013Z" fill="white"/>
<path d="M308.995 273.013H291.004V291.004H308.995V273.013Z" fill="white"/>
<path d="M326.986 273.013H308.995V291.004H326.986V273.013Z" fill="white"/>
<path d="M344.977 273.013H326.986V291.004H344.977V273.013Z" fill="white"/>
<path d="M362.969 273.013H344.978V291.004H362.969V273.013Z" fill="white"/>
<path d="M398.95 273.013H380.959V291.004H398.95V273.013Z" fill="white"/>
<path d="M416.941 273.013H398.95V291.004H416.941V273.013Z" fill="white"/>
<path d="M452.923 273.013H434.932V291.004H452.923V273.013Z" fill="white"/>
<path d="M470.915 291.005H488.906V273.014C484.134 273.014 479.558 274.909 476.184 278.283C472.81 281.657 470.915 286.233 470.915 291.005Z" fill="white"/>
<path d="M506.896 273.013H488.905V291.004C493.677 291.004 498.253 289.109 501.627 285.735C505.001 282.361 506.896 277.785 506.896 273.013Z" fill="white"/>
<path d="M542.878 273.013H524.887V291.004H542.878V273.013Z" fill="white"/>
<path d="M560.87 273.013H542.879V291.004C547.65 291.004 552.226 289.109 555.6 285.735C558.974 282.361 560.87 277.785 560.87 273.013Z" fill="white"/>
<path d="M57.1213 291.004H39.1303V308.995C43.9018 308.995 48.4779 307.1 51.8519 303.726C55.2258 300.352 57.1213 295.776 57.1213 291.004Z" fill="white"/>
<path d="M93.1035 291.004H84.108C81.7223 291.004 79.4342 291.952 77.7472 293.639C76.0603 295.326 75.1125 297.614 75.1125 300V308.995H84.108C86.4938 308.995 88.7818 308.048 90.4688 306.361C92.1558 304.674 93.1035 302.386 93.1035 300" fill="white"/>
<path d="M147.076 291.004H129.085V308.995H147.076V291.004Z" fill="white"/>
<path d="M165.067 291.004H147.076V308.995H165.067V291.004Z" fill="white"/>
<path d="M183.058 291.004H165.067V308.995C167.43 308.995 169.769 308.53 171.952 307.626C174.135 306.722 176.118 305.397 177.789 303.726C179.46 302.055 180.785 300.072 181.689 297.889C182.593 295.707 183.058 293.367 183.058 291.004Z" fill="white"/>
<path d="M219.041 291.004H201.05V308.995C205.821 308.995 210.397 307.1 213.771 303.726C217.145 300.352 219.041 295.776 219.041 291.004Z" fill="white"/>
<path d="M255.022 291.004H237.031V308.995C239.394 308.995 241.734 308.53 243.916 307.626C246.099 306.722 248.082 305.397 249.753 303.726C251.424 302.055 252.749 300.072 253.653 297.889C254.557 295.707 255.022 293.367 255.022 291.004Z" fill="white"/>
<path d="M326.986 291.004H308.995V308.995C313.767 308.995 318.343 307.1 321.717 303.726C325.091 300.352 326.986 295.776 326.986 291.004Z" fill="white"/>
<path d="M362.969 291.004H344.978V308.995H362.969V291.004Z" fill="white"/>
<path d="M416.941 291.004H398.95V308.995H416.941V291.004Z" fill="white"/>
<path d="M452.923 291.004H434.932V308.995H452.923V291.004Z" fill="white"/>
<path d="M470.915 291.004H452.924V308.995C457.695 308.995 462.271 307.1 465.645 303.726C469.019 300.352 470.915 295.776 470.915 291.004Z" fill="white"/>
<path d="M75.1123 308.996H66.1168C63.731 308.996 61.443 309.943 59.756 311.63C58.069 313.317 57.1213 315.605 57.1213 317.991V326.987H66.1168C68.5026 326.987 70.7906 326.039 72.4776 324.352C74.1646 322.665 75.1123 320.377 75.1123 317.991" fill="white"/>
<path d="M147.076 308.996H129.085V326.987H147.076V308.996Z" fill="white"/>
<path d="M201.049 308.996H192.054C189.668 308.996 187.38 309.943 185.693 311.63C184.006 313.317 183.058 315.605 183.058 317.991V326.987H192.054C194.44 326.987 196.728 326.039 198.415 324.352C200.102 322.665 201.049 320.377 201.049 317.991" fill="white"/>
<path d="M255.022 326.987H273.013V308.996C268.242 308.996 263.666 310.891 260.292 314.265C256.918 317.639 255.022 322.215 255.022 326.987Z" fill="white"/>
<path d="M291.004 308.996H273.013V326.987H291.004V308.996Z" fill="white"/>
<path d="M308.995 308.996H291.004V326.987C295.776 326.987 300.352 325.091 303.726 321.717C307.1 318.343 308.995 313.767 308.995 308.996Z" fill="white"/>
<path d="M362.969 308.996H344.978V326.987H362.969V308.996Z" fill="white"/>
<path d="M380.959 308.996H362.968V326.986C365.331 326.986 367.671 326.521 369.853 325.617C372.036 324.713 374.019 323.388 375.69 321.717C377.361 320.046 378.686 318.063 379.59 315.88C380.494 313.698 380.959 311.358 380.959 308.996Z" fill="white"/>
<path d="M416.941 308.996H398.95V326.987C403.722 326.987 408.298 325.091 411.672 321.717C415.046 318.343 416.941 313.767 416.941 308.996Z" fill="white"/>
<path d="M470.915 326.987H488.906V308.996C484.134 308.996 479.558 310.891 476.184 314.265C472.81 317.639 470.915 322.215 470.915 326.987Z" fill="white"/>
<path d="M506.897 308.996H488.906V326.987H506.897V308.996Z" fill="white"/>
<path d="M524.887 308.996H506.896V326.987H524.887V308.996Z" fill="white"/>
<path d="M542.878 308.996H524.887V326.987H542.878V308.996Z" fill="white"/>
<path d="M93.1035 344.978H111.095V326.986C106.323 326.986 101.747 328.882 98.3729 332.256C94.999 335.63 93.1035 340.206 93.1035 344.978Z" fill="white"/>
<path d="M129.085 326.987H111.094V344.978H129.085V326.987Z" fill="white"/>
<path d="M147.076 326.987H129.085V344.978H147.076V326.987Z" fill="white"/>
<path d="M165.067 326.987H147.076V344.978H165.067V326.987Z" fill="white"/>
<path d="M183.058 326.987H165.067V344.978C167.43 344.978 169.769 344.512 171.952 343.608C174.135 342.704 176.118 341.379 177.789 339.708C179.46 338.037 180.785 336.054 181.689 333.871C182.593 331.689 183.058 329.349 183.058 326.987Z" fill="white"/>
<path d="M273.013 326.987H255.022V344.978H273.013V326.987Z" fill="white"/>
<path d="M291.004 326.987H273.013V344.978C277.785 344.978 282.361 343.082 285.735 339.708C289.109 336.334 291.004 331.758 291.004 326.987Z" fill="white"/>
<path d="M308.995 344.978H326.986V326.986C322.215 326.986 317.639 328.882 314.265 332.256C310.891 335.63 308.995 340.206 308.995 344.978Z" fill="white"/>
<path d="M344.978 326.987H326.987V344.978C331.758 344.978 336.334 343.082 339.708 339.708C343.082 336.334 344.978 331.758 344.978 326.987Z" fill="white"/>
<path d="M452.923 326.986H443.928C441.542 326.986 439.254 327.934 437.567 329.621C435.88 331.308 434.932 333.596 434.932 335.982V344.977H443.928C446.314 344.977 448.602 344.03 450.289 342.343C451.976 340.656 452.923 338.368 452.923 335.982" fill="white"/>
<path d="M506.897 326.987H488.906V344.978H506.897V326.987Z" fill="white"/>
<path d="M524.887 326.987H506.896V344.978H524.887V326.987Z" fill="white"/>
<path d="M542.878 326.987H524.887V344.978C529.659 344.978 534.235 343.082 537.609 339.708C540.983 336.334 542.878 331.758 542.878 326.987Z" fill="white"/>
<path d="M39.1304 362.969H57.1214V344.978C52.3499 344.978 47.7738 346.873 44.3998 350.247C41.0258 353.621 39.1304 358.197 39.1304 362.969Z" fill="white"/>
<path d="M75.1123 344.978H57.1213V362.969H75.1123V344.978Z" fill="white"/>
<path d="M93.1033 344.978H75.1123V362.969H93.1033V344.978Z" fill="white"/>
<path d="M183.058 362.969H201.049V344.977C196.278 344.977 191.702 346.873 188.328 350.247C184.954 353.621 183.058 358.197 183.058 362.969Z" fill="white"/>
<path d="M219.041 362.969H237.032V344.978C232.26 344.978 227.684 346.873 224.31 350.247C220.936 353.621 219.041 358.197 219.041 362.969Z" fill="white"/>
<path d="M273.013 344.978H255.022V362.969H273.013V344.978Z" fill="white"/>
<path d="M308.995 344.978H300C297.614 344.978 295.326 345.925 293.639 347.612C291.952 349.299 291.004 351.587 291.004 353.973V362.969H300C302.386 362.969 304.674 362.021 306.361 360.334C308.048 358.647 308.995 356.359 308.995 353.973" fill="white"/>
<path d="M380.959 344.978H371.964C369.578 344.978 367.29 345.925 365.603 347.612C363.916 349.299 362.968 351.587 362.968 353.973V362.968H371.964C373.145 362.968 374.315 362.736 375.406 362.284C376.498 361.832 377.489 361.169 378.325 360.334C379.16 359.498 379.823 358.507 380.275 357.415C380.727 356.324 380.959 355.154 380.959 353.973" fill="white"/>
<path d="M398.95 362.969H416.941V344.978C412.17 344.978 407.594 346.873 404.22 350.247C400.846 353.621 398.95 358.197 398.95 362.969Z" fill="white"/>
<path d="M470.915 362.969H488.906V344.978C484.134 344.978 479.558 346.873 476.184 350.247C472.81 353.621 470.915 358.197 470.915 362.969Z" fill="white"/>
<path d="M506.897 344.978H488.906V362.969H506.897V344.978Z" fill="white"/>
<path d="M524.887 344.977H506.896V362.968C509.259 362.968 511.599 362.503 513.781 361.599C515.964 360.695 517.947 359.37 519.618 357.699C521.289 356.028 522.614 354.045 523.518 351.862C524.422 349.68 524.887 347.34 524.887 344.977Z" fill="white"/>
<path d="M542.878 362.969H560.869V344.978C556.098 344.978 551.522 346.873 548.148 350.247C544.774 353.621 542.878 358.197 542.878 362.969Z" fill="white"/>
<path d="M57.1214 362.969H39.1304V380.96H57.1214V362.969Z" fill="white"/>
<path d="M75.1123 362.969H57.1213V380.96H75.1123V362.969Z" fill="white"/>
<path d="M93.1033 362.969H75.1123V380.96H93.1033V362.969Z" fill="white"/>
<path d="M111.094 362.969H93.1035V380.96C97.875 380.96 102.451 379.064 105.825 375.69C109.199 372.316 111.094 367.74 111.094 362.969Z" fill="white"/>
<path d="M129.085 380.96H147.076V362.969C142.305 362.969 137.729 364.864 134.355 368.238C130.981 371.612 129.085 376.188 129.085 380.96Z" fill="white"/>
<path d="M165.067 362.969H147.076V380.96H165.067V362.969Z" fill="white"/>
<path d="M183.058 362.969H165.067V380.96H183.058V362.969Z" fill="white"/>
<path d="M201.049 362.969H183.058V380.96H201.049V362.969Z" fill="white"/>
<path d="M237.032 362.969H219.041V380.96H237.032V362.969Z" fill="white"/>
<path d="M273.013 362.969H255.022V380.96H273.013V362.969Z" fill="white"/>
<path d="M291.004 362.969H273.013V380.96C277.785 380.96 282.361 379.064 285.735 375.69C289.109 372.316 291.004 367.74 291.004 362.969Z" fill="white"/>
<path d="M326.986 362.969H317.991C316.81 362.969 315.64 363.201 314.548 363.653C313.457 364.105 312.465 364.768 311.63 365.603C310.795 366.439 310.132 367.43 309.68 368.522C309.228 369.613 308.995 370.783 308.995 371.964V380.96H317.991C320.377 380.96 322.665 380.012 324.352 378.325C326.039 376.638 326.986 374.35 326.986 371.964" fill="white"/>
<path d="M362.969 362.969H353.973C352.792 362.969 351.622 363.201 350.531 363.653C349.439 364.105 348.448 364.768 347.612 365.603C346.777 366.439 346.114 367.43 345.662 368.522C345.21 369.613 344.978 370.783 344.978 371.964V380.96H353.973C356.359 380.96 358.647 380.012 360.334 378.325C362.021 376.638 362.969 374.35 362.969 371.964" fill="white"/>
<path d="M416.941 362.969H398.95V380.96H416.941V362.969Z" fill="white"/>
<path d="M488.906 362.969H470.915V380.96H488.906V362.969Z" fill="white"/>
<path d="M506.897 362.969H488.906V380.96H506.897V362.969Z" fill="white"/>
<path d="M560.869 362.969H542.878V380.96H560.869V362.969Z" fill="white"/>
<path d="M57.1214 380.96H39.1304V398.951H57.1214V380.96Z" fill="white"/>
<path d="M201.049 380.96H183.058V398.951H201.049V380.96Z" fill="white"/>
<path d="M219.04 380.96H201.049V398.951H219.04V380.96Z" fill="white"/>
<path d="M237.032 380.96H219.041V398.951H237.032V380.96Z" fill="white"/>
<path d="M255.023 380.96H237.031V398.951H255.023V380.96Z" fill="white"/>
<path d="M273.013 380.96H255.022V398.951H273.013V380.96Z" fill="white"/>
<path d="M308.995 380.96H300C297.614 380.96 295.326 381.907 293.639 383.594C291.952 385.281 291.004 387.569 291.004 389.955V398.951H300C302.386 398.951 304.674 398.003 306.361 396.316C308.048 394.629 308.995 392.341 308.995 389.955" fill="white"/>
<path d="M380.959 398.951H398.95V380.96C394.179 380.96 389.603 382.855 386.229 386.229C382.855 389.603 380.959 394.179 380.959 398.951Z" fill="white"/>
<path d="M416.941 380.96H398.95V398.951H416.941V380.96Z" fill="white"/>
<path d="M434.932 380.96H416.941V398.951H434.932V380.96Z" fill="white"/>
<path d="M452.923 380.96H434.932V398.951H452.923V380.96Z" fill="white"/>
<path d="M470.914 380.96H452.923V398.951H470.914V380.96Z" fill="white"/>
<path d="M488.906 380.96H470.915V398.951H488.906V380.96Z" fill="white"/>
<path d="M506.897 380.96H488.906V398.951H506.897V380.96Z" fill="white"/>
<path d="M560.87 380.96H542.879V398.951C547.65 398.951 552.226 397.055 555.6 393.681C558.974 390.307 560.87 385.731 560.87 380.96Z" fill="white"/>
<path d="M57.1213 398.951H39.1303V416.942C43.9018 416.942 48.4779 415.046 51.8519 411.672C55.2258 408.298 57.1213 403.722 57.1213 398.951Z" fill="white"/>
<path d="M147.076 416.942H165.067V398.951C160.296 398.951 155.72 400.846 152.346 404.22C148.972 407.594 147.076 412.17 147.076 416.942Z" fill="white"/>
<path d="M183.058 398.951H165.067V416.942C167.43 416.942 169.769 416.476 171.952 415.572C174.135 414.668 176.118 413.343 177.789 411.672C179.46 410.001 180.785 408.018 181.689 405.835C182.593 403.653 183.058 401.313 183.058 398.951Z" fill="white"/>
<path d="M219.041 398.951H201.05V416.942C205.821 416.942 210.397 415.046 213.771 411.672C217.145 408.298 219.041 403.722 219.041 398.951Z" fill="white"/>
<path d="M273.013 398.951H255.022V416.942C259.794 416.942 264.37 415.046 267.744 411.672C271.118 408.298 273.013 403.722 273.013 398.951Z" fill="white"/>
<path d="M308.995 416.942H326.986V398.951C322.215 398.951 317.639 400.846 314.265 404.22C310.891 407.594 308.995 412.17 308.995 416.942Z" fill="white"/>
<path d="M344.977 398.951H326.986V416.942H344.977V398.951Z" fill="white"/>
<path d="M362.969 398.951H344.977V416.942C349.749 416.942 354.325 415.046 357.699 411.672C361.073 408.298 362.969 403.722 362.969 398.951Z" fill="white"/>
<path d="M398.95 398.951H380.959V416.942H398.95V398.951Z" fill="white"/>
<path d="M416.941 398.951H398.95V416.942H416.941V398.951Z" fill="white"/>
<path d="M434.932 398.951H416.941V416.942H434.932V398.951Z" fill="white"/>
<path d="M452.923 398.951H434.932V416.942H452.923V398.951Z" fill="white"/>
<path d="M470.914 398.951H452.923V416.942H470.914V398.951Z" fill="white"/>
<path d="M488.906 398.951H470.915V416.942H488.906V398.951Z" fill="white"/>
<path d="M506.897 398.951H488.906V416.942H506.897V398.951Z" fill="white"/>
<path d="M524.887 398.951H506.896V416.942H524.887V398.951Z" fill="white"/>
<path d="M183.058 434.932H201.049V416.941C198.687 416.941 196.347 417.407 194.165 418.311C191.982 419.215 189.998 420.54 188.328 422.211C186.657 423.882 185.332 425.865 184.428 428.048C183.524 430.23 183.058 432.57 183.058 434.932Z" fill="white"/>
<path d="M219.041 434.932H237.032V416.942C234.669 416.942 232.329 417.407 230.147 418.311C227.964 419.215 225.981 420.54 224.31 422.211C222.639 423.882 221.314 425.865 220.41 428.048C219.506 430.23 219.041 432.57 219.041 434.932Z" fill="white"/>
<path d="M255.022 416.942H237.031V434.933C239.394 434.933 241.734 434.467 243.916 433.563C246.099 432.659 248.082 431.334 249.753 429.663C251.424 427.992 252.749 426.009 253.653 423.826C254.557 421.644 255.022 419.304 255.022 416.942Z" fill="white"/>
<path d="M326.986 416.942H308.995V434.933H326.986V416.942Z" fill="white"/>
<path d="M416.941 416.942H398.95V434.933H416.941V416.942Z" fill="white"/>
<path d="M488.906 416.942H470.915V434.933H488.906V416.942Z" fill="white"/>
<path d="M506.897 416.942H488.906V434.933H506.897V416.942Z" fill="white"/>
<path d="M524.887 416.942H506.896V434.933H524.887V416.942Z" fill="white"/>
<path d="M542.878 416.942H524.887V434.933C527.25 434.933 529.589 434.467 531.772 433.563C533.955 432.659 535.938 431.334 537.609 429.663C539.28 427.992 540.605 426.009 541.509 423.826C542.413 421.644 542.878 419.304 542.878 416.942Z" fill="white"/>
<path d="M201.049 434.932H183.058V452.924H201.049V434.932Z" fill="white"/>
<path d="M219.04 434.932H201.049V452.924H219.04V434.932Z" fill="white"/>
<path d="M237.032 434.932H219.041V452.924H237.032V434.932Z" fill="white"/>
<path d="M255.022 452.924H273.013V434.933C268.242 434.933 263.666 436.828 260.292 440.202C256.918 443.576 255.022 448.152 255.022 452.924Z" fill="white"/>
<path d="M291.004 434.932H273.013V452.924H291.004V434.932Z" fill="white"/>
<path d="M308.995 434.932H291.004V452.924H308.995V434.932Z" fill="white"/>
<path d="M326.986 434.932H308.995V452.924H326.986V434.932Z" fill="white"/>
<path d="M362.969 452.924H380.96V434.933C378.597 434.933 376.257 435.398 374.075 436.302C371.892 437.206 369.909 438.531 368.238 440.202C366.567 441.873 365.242 443.856 364.338 446.039C363.434 448.221 362.969 450.561 362.969 452.924Z" fill="white"/>
<path d="M398.95 434.932H380.959V452.924H398.95V434.932Z" fill="white"/>
<path d="M416.941 434.932H398.95V452.924H416.941V434.932Z" fill="white"/>
<path d="M452.924 434.932H443.928C441.542 434.932 439.254 435.88 437.567 437.567C435.88 439.254 434.933 441.542 434.933 443.928V452.924H443.928C446.314 452.924 448.602 451.976 450.289 450.289C451.976 448.602 452.924 446.314 452.924 443.928" fill="white"/>
<path d="M488.906 434.932H470.915V452.924H488.906V434.932Z" fill="white"/>
<path d="M219.04 452.924H201.049V470.915H219.04V452.924Z" fill="white"/>
<path d="M237.032 452.924H219.041V470.915H237.032V452.924Z" fill="white"/>
<path d="M291.004 452.924H273.013V470.915C277.785 470.915 282.361 469.019 285.735 465.645C289.109 462.271 291.004 457.695 291.004 452.924Z" fill="white"/>
<path d="M326.986 452.924H308.995V470.915H326.986V452.924Z" fill="white"/>
<path d="M344.977 452.924H326.986V470.915H344.977V452.924Z" fill="white"/>
<path d="M398.95 452.924H380.959V470.915H398.95V452.924Z" fill="white"/>
<path d="M416.941 452.924H398.95V470.915H416.941V452.924Z" fill="white"/>
<path d="M488.906 452.924H470.915V470.915H488.906V452.924Z" fill="white"/>
<path d="M506.896 452.924H488.905V470.915C493.677 470.915 498.253 469.019 501.627 465.645C505.001 462.271 506.896 457.695 506.896 452.924Z" fill="white"/>
<path d="M542.878 470.915H560.869V452.924C556.098 452.924 551.522 454.819 548.148 458.193C544.774 461.567 542.878 466.143 542.878 470.915Z" fill="white"/>
<path d="M219.04 470.915H201.049V488.906H219.04V470.915Z" fill="white"/>
<path d="M237.032 470.915H219.041V488.906H237.032V470.915Z" fill="white"/>
<path d="M344.977 470.915H326.986V488.906H344.977V470.915Z" fill="white"/>
<path d="M362.969 470.915H344.978V488.906H362.969V470.915Z" fill="white"/>
<path d="M380.959 470.915H362.969V488.906H380.959V470.915Z" fill="white"/>
<path d="M398.95 470.915H380.959V488.906H398.95V470.915Z" fill="white"/>
<path d="M416.941 470.915H398.95V488.906H416.941V470.915Z" fill="white"/>
<path d="M434.932 470.915H416.941V488.906H434.932V470.915Z" fill="white"/>
<path d="M452.923 470.915H434.932V488.906H452.923V470.915Z" fill="white"/>
<path d="M470.914 470.915H452.923V488.906H470.914V470.915Z" fill="white"/>
<path d="M488.906 470.915H470.915V488.906C475.686 488.906 480.262 487.01 483.636 483.636C487.01 480.262 488.906 475.686 488.906 470.915Z" fill="white"/>
<path d="M560.87 470.915H542.879V488.906C547.65 488.906 552.226 487.01 555.6 483.636C558.974 480.262 560.87 475.686 560.87 470.915Z" fill="white"/>
<path d="M219.04 488.906H201.049V506.897H219.04V488.906Z" fill="white"/>
<path d="M237.032 488.906H219.041V506.897H237.032V488.906Z" fill="white"/>
<path d="M255.022 488.906H237.031V506.897C239.394 506.897 241.734 506.431 243.916 505.527C246.099 504.623 248.082 503.298 249.753 501.627C251.424 499.956 252.749 497.973 253.653 495.79C254.557 493.608 255.022 491.268 255.022 488.906Z" fill="white"/>
<path d="M273.013 506.897H291.004V488.906C286.233 488.906 281.657 490.801 278.283 494.175C274.909 497.549 273.013 502.125 273.013 506.897Z" fill="white"/>
<path d="M308.995 488.906H291.004V506.897H308.995V488.906Z" fill="white"/>
<path d="M344.978 488.906H326.987V506.897C331.758 506.897 336.334 505.001 339.708 501.627C343.082 498.253 344.978 493.677 344.978 488.906Z" fill="white"/>
<path d="M398.95 488.906H380.959V506.897H398.95V488.906Z" fill="white"/>
<path d="M416.941 488.906H398.95V506.897H416.941V488.906Z" fill="white"/>
<path d="M470.914 488.906H452.923V506.897H470.914V488.906Z" fill="white"/>
<path d="M524.887 506.897H542.878V488.906C538.107 488.906 533.531 490.801 530.157 494.175C526.783 497.549 524.887 502.125 524.887 506.897Z" fill="white"/>
<path d="M273.013 506.897H264.018C261.632 506.897 259.344 507.844 257.657 509.531C255.97 511.218 255.022 513.506 255.022 515.892V524.888H264.018C266.404 524.888 268.692 523.94 270.379 522.253C272.066 520.566 273.013 518.278 273.013 515.892" fill="white"/>
<path d="M308.995 506.897H291.004V524.888C295.776 524.888 300.352 522.992 303.726 519.618C307.1 516.244 308.995 511.668 308.995 506.897Z" fill="white"/>
<path d="M344.978 524.888H362.969V506.897C358.197 506.897 353.621 508.792 350.247 512.166C346.873 515.54 344.978 520.116 344.978 524.888Z" fill="white"/>
<path d="M380.959 506.897H362.969V524.888H380.959V506.897Z" fill="white"/>
<path d="M398.95 506.897H380.959V524.888H398.95V506.897Z" fill="white"/>
<path d="M416.941 506.897H398.95V524.888H416.941V506.897Z" fill="white"/>
<path d="M434.932 506.897H416.941V524.888H434.932V506.897Z" fill="white"/>
<path d="M452.923 506.897H434.932V524.888H452.923V506.897Z" fill="white"/>
<path d="M470.914 506.897H452.923V524.888H470.914V506.897Z" fill="white"/>
<path d="M488.906 506.897H470.915V524.888H488.906V506.897Z" fill="white"/>
<path d="M506.896 524.888H524.887V506.897C522.525 506.897 520.185 507.362 518.003 508.266C515.82 509.17 513.837 510.495 512.166 512.166C510.495 513.837 509.17 515.82 508.266 518.003C507.362 520.185 506.896 522.525 506.896 524.888Z" fill="white"/>
<path d="M542.878 506.897H524.887V524.888C529.659 524.888 534.235 522.992 537.609 519.618C540.983 516.244 542.878 511.668 542.878 506.897Z" fill="white"/>
<path d="M201.049 524.888H192.054C189.668 524.888 187.38 525.835 185.693 527.522C184.006 529.209 183.058 531.497 183.058 533.883V542.879H192.054C194.44 542.879 196.728 541.931 198.415 540.244C200.102 538.557 201.049 536.269 201.049 533.883" fill="white"/>
<path d="M237.031 542.879H255.023V524.888C252.66 524.888 250.32 525.353 248.138 526.257C245.955 527.161 243.972 528.486 242.301 530.157C240.63 531.828 239.305 533.811 238.401 535.994C237.497 538.176 237.031 540.516 237.031 542.879Z" fill="white"/>
<path d="M326.986 524.888H317.991C315.605 524.888 313.317 525.835 311.63 527.522C309.943 529.209 308.995 531.497 308.995 533.883V542.879H317.991C320.377 542.879 322.665 541.931 324.352 540.244C326.039 538.557 326.986 536.269 326.986 533.883" fill="white"/>
<path d="M380.959 524.888H362.969V542.879H380.959V524.888Z" fill="white"/>
<path d="M398.95 524.888H380.959V542.879H398.95V524.888Z" fill="white"/>
<path d="M416.941 524.888H398.95V542.879C403.722 542.879 408.298 540.983 411.672 537.609C415.046 534.235 416.941 529.659 416.941 524.888Z" fill="white"/>
<path d="M452.924 524.888H434.933V542.879C439.704 542.879 444.28 540.983 447.654 537.609C451.028 534.235 452.924 529.659 452.924 524.888Z" fill="white"/>
<path d="M488.906 524.888H470.915V542.879H488.906V524.888Z" fill="white"/>
<path d="M506.897 524.888H488.906V542.879H506.897V524.888Z" fill="white"/>
<path d="M524.887 524.888H506.896V542.879H524.887V524.888Z" fill="white"/>
<path d="M560.87 524.888H551.874C549.488 524.888 547.2 525.835 545.513 527.522C543.826 529.209 542.879 531.497 542.879 533.883V542.879H551.874C554.26 542.879 556.548 541.931 558.235 540.244C559.922 538.557 560.87 536.269 560.87 533.883" fill="white"/>
<path d="M255.023 542.879H237.031V560.87H255.023V542.879Z" fill="white"/>
<path d="M273.013 542.879H255.022V560.87H273.013V542.879Z" fill="white"/>
<path d="M291.004 542.879H273.013V560.87C275.376 560.87 277.715 560.404 279.898 559.5C282.081 558.596 284.064 557.271 285.735 555.6C287.406 553.929 288.731 551.946 289.635 549.763C290.539 547.581 291.004 545.241 291.004 542.879Z" fill="white"/>
<path d="M344.978 560.87H362.969V542.879C360.606 542.879 358.266 543.344 356.084 544.248C353.901 545.152 351.918 546.477 350.247 548.148C348.576 549.819 347.251 551.802 346.347 553.985C345.443 556.167 344.978 558.507 344.978 560.87Z" fill="white"/>
<path d="M380.959 542.879H362.968V560.87C365.331 560.87 367.671 560.404 369.853 559.5C372.036 558.596 374.019 557.271 375.69 555.6C377.361 553.929 378.686 551.946 379.59 549.763C380.494 547.581 380.959 545.241 380.959 542.879Z" fill="white"/>
<path d="M488.906 542.879H470.915V560.87H488.906V542.879Z" fill="white"/>
<path d="M506.897 542.879H488.906V560.87H506.897V542.879Z" fill="white"/>
<path d="M524.887 542.879H506.896V560.87C509.259 560.87 511.599 560.404 513.781 559.5C515.964 558.596 517.947 557.271 519.618 555.6C521.289 553.929 522.614 551.946 523.518 549.763C524.422 547.581 524.887 545.241 524.887 542.879Z" fill="white"/>
</mask>
<g mask="url(#mask1_1_370)">
<path d="M600 0H0V600H600V0Z" fill="black"/>
</g>
<mask id="mask2_1_370" style="mask-type:luminance" maskUnits="userSpaceOnUse" x="39" y="39" width="127" height="127">
<path fill-rule="evenodd" clip-rule="evenodd" d="M39.1304 39.1304V165.067H165.067V39.1304H39.1304ZM57.1214 57.1214H147.076V147.076H57.1214V57.1214Z" fill="white"/>
</mask>
<g mask="url(#mask2_1_370)">
<path d="M165.067 39.1304H39.1304V165.067H165.067V39.1304Z" fill="black"/>
</g>
<mask id="mask3_1_370" style="mask-type:luminance" maskUnits="userSpaceOnUse" x="75" y="75" width="55" height="55">
<path d="M129.086 75.1124H75.1125V129.085H129.086V75.1124Z" fill="white"/>
</mask>
<g mask="url(#mask3_1_370)">
<path d="M129.086 75.1124H75.1125V129.085H129.086V75.1124Z" fill="black"/>
</g>
<mask id="mask4_1_370" style="mask-type:luminance" maskUnits="userSpaceOnUse" x="434" y="39" width="127" height="127">
<path fill-rule="evenodd" clip-rule="evenodd" d="M560.87 39.1304L434.933 39.1304V165.067H560.87V39.1304ZM542.879 57.1214V147.076H452.924V57.1214L542.879 57.1214Z" fill="white"/>
</mask>
<g mask="url(#mask4_1_370)">
<path d="M560.87 39.1304H434.933V165.067H560.87V39.1304Z" fill="black"/>
</g>
<mask id="mask5_1_370" style="mask-type:luminance" maskUnits="userSpaceOnUse" x="470" y="75" width="55" height="55">
<path d="M524.888 129.085V75.1124H470.915V129.085H524.888Z" fill="white"/>
</mask>
<g mask="url(#mask5_1_370)">
<path d="M524.888 75.1124H470.915V129.085H524.888V75.1124Z" fill="black"/>
</g>
<mask id="mask6_1_370" style="mask-type:luminance" maskUnits="userSpaceOnUse" x="39" y="434" width="127" height="127">
<path fill-rule="evenodd" clip-rule="evenodd" d="M39.1304 560.87H165.067V434.932H39.1304L39.1304 560.87ZM57.1214 542.879L57.1214 452.923H147.076V542.879H57.1214Z" fill="white"/>
</mask>
<g mask="url(#mask6_1_370)">
<path d="M165.067 434.932H39.1304V560.87H165.067V434.932Z" fill="black"/>
</g>
<mask id="mask7_1_370" style="mask-type:luminance" maskUnits="userSpaceOnUse" x="75" y="470" width="55" height="55">
<path d="M75.1123 470.915V524.888H129.085V470.915H75.1123Z" fill="white"/>
</mask>
<g mask="url(#mask7_1_370)">
<path d="M129.085 470.915H75.1123V524.888H129.085V470.915Z" fill="black"/>
</g>
</g>
<path d="M62.6726 628.545V694H50.9112V638.389H22.2748V694H10.5135V628.545H62.6726ZM97.5609 694.959C92.7669 694.959 88.612 693.904 85.0964 691.795C81.5808 689.685 78.8535 686.734 76.9146 682.942C74.997 679.149 74.0382 674.717 74.0382 669.646C74.0382 664.575 74.997 660.133 76.9146 656.319C78.8535 652.505 81.5808 649.543 85.0964 647.434C88.612 645.325 92.7669 644.27 97.5609 644.27C102.355 644.27 106.51 645.325 110.025 647.434C113.541 649.543 116.258 652.505 118.175 656.319C120.114 660.133 121.084 664.575 121.084 669.646C121.084 674.717 120.114 679.149 118.175 682.942C116.258 686.734 113.541 689.685 110.025 691.795C106.51 693.904 102.355 694.959 97.5609 694.959ZM97.6248 685.69C100.224 685.69 102.398 684.977 104.145 683.549C105.892 682.1 107.192 680.161 108.044 677.732C108.917 675.303 109.354 672.597 109.354 669.614C109.354 666.61 108.917 663.893 108.044 661.464C107.192 659.014 105.892 657.065 104.145 655.616C102.398 654.167 100.224 653.442 97.6248 653.442C94.9615 653.442 92.7456 654.167 90.9771 655.616C89.2299 657.065 87.9196 659.014 87.046 661.464C86.1937 663.893 85.7676 666.61 85.7676 669.614C85.7676 672.597 86.1937 675.303 87.046 677.732C87.9196 680.161 89.2299 682.1 90.9771 683.549C92.7456 684.977 94.9615 685.69 97.6248 685.69ZM152.121 694.959C147.22 694.959 143.012 693.883 139.496 691.731C136.002 689.579 133.307 686.607 131.411 682.814C129.536 679 128.598 674.611 128.598 669.646C128.598 664.661 129.557 660.261 131.474 656.447C133.392 652.612 136.098 649.629 139.592 647.498C143.108 645.346 147.263 644.27 152.057 644.27C156.041 644.27 159.568 645.005 162.636 646.475C165.725 647.924 168.186 649.98 170.019 652.643C171.851 655.286 172.895 658.375 173.151 661.912H162.092C161.645 659.547 160.58 657.576 158.896 655.999C157.234 654.401 155.008 653.602 152.217 653.602C149.852 653.602 147.774 654.241 145.984 655.52C144.195 656.777 142.799 658.588 141.798 660.953C140.818 663.318 140.327 666.152 140.327 669.455C140.327 672.8 140.818 675.676 141.798 678.084C142.778 680.47 144.152 682.313 145.92 683.613C147.71 684.891 149.809 685.531 152.217 685.531C153.921 685.531 155.445 685.211 156.787 684.572C158.151 683.911 159.291 682.963 160.207 681.727C161.123 680.491 161.751 678.989 162.092 677.221H173.151C172.874 680.694 171.851 683.773 170.082 686.457C168.314 689.121 165.906 691.209 162.859 692.722C159.813 694.213 156.233 694.959 152.121 694.959ZM178.891 654.401V644.909H221.846V654.401H205.962V694H194.775V654.401H178.891ZM238.053 712.409C236.477 712.409 235.017 712.281 233.675 712.026C232.354 711.791 231.299 711.514 230.511 711.195L233.195 702.182C234.879 702.672 236.381 702.906 237.702 702.885C239.023 702.864 240.184 702.448 241.185 701.638C242.208 700.85 243.071 699.529 243.774 697.675L244.765 695.023L226.963 644.909H239.236L250.55 681.983H251.061L262.407 644.909H274.712L255.056 699.945C254.14 702.544 252.926 704.771 251.413 706.624C249.9 708.499 248.046 709.927 245.852 710.907C243.678 711.908 241.079 712.409 238.053 712.409ZM282.522 694V644.909H323.974V694H312.82V654.401H293.58V694H282.522ZM332.288 694L332.224 684.476H333.918C335.196 684.476 336.272 684.188 337.146 683.613C338.019 683.038 338.744 682.079 339.319 680.737C339.894 679.373 340.342 677.54 340.661 675.239C340.981 672.938 341.204 670.072 341.332 666.642L342.195 644.909H377.991V694H366.805V654.401H352.71L351.943 670.222C351.751 674.312 351.293 677.86 350.569 680.864C349.866 683.847 348.864 686.308 347.565 688.247C346.286 690.186 344.678 691.635 342.739 692.594C340.8 693.531 338.509 694 335.867 694H332.288ZM411.177 694.959C406.255 694.959 402.005 693.936 398.425 691.891C394.867 689.824 392.129 686.905 390.211 683.134C388.294 679.341 387.335 674.877 387.335 669.742C387.335 664.692 388.294 660.261 390.211 656.447C392.15 652.612 394.856 649.629 398.329 647.498C401.802 645.346 405.882 644.27 410.57 644.27C413.595 644.27 416.451 644.76 419.135 645.74C421.841 646.699 424.228 648.19 426.294 650.214C428.382 652.239 430.023 654.817 431.216 657.949C432.409 661.06 433.006 664.767 433.006 669.071V672.619H392.768V664.82H421.916C421.894 662.604 421.415 660.634 420.478 658.908C419.54 657.161 418.23 655.786 416.546 654.785C414.885 653.783 412.946 653.283 410.73 653.283C408.365 653.283 406.287 653.858 404.497 655.009C402.708 656.138 401.312 657.629 400.311 659.483C399.331 661.315 398.83 663.329 398.809 665.523V672.331C398.809 675.186 399.331 677.636 400.375 679.682C401.419 681.706 402.878 683.261 404.753 684.348C406.628 685.413 408.823 685.946 411.337 685.946C413.02 685.946 414.544 685.712 415.907 685.243C417.271 684.753 418.453 684.039 419.455 683.102C420.456 682.164 421.213 681.003 421.724 679.618L432.527 680.832C431.845 683.687 430.545 686.18 428.627 688.311C426.731 690.42 424.302 692.061 421.341 693.233C418.379 694.384 414.991 694.959 411.177 694.959ZM476.316 664.661V674.153H450.172V664.661H476.316ZM453.752 644.909V694H442.598V644.909H453.752ZM483.89 644.909V694H472.768V644.909H483.89ZM506.554 678.339L526.21 644.909H538.099V694H526.913V660.538L507.321 694H495.4V644.909H506.554V678.339ZM571.517 694.959C566.595 694.959 562.344 693.936 558.765 691.891C555.207 689.824 552.469 686.905 550.551 683.134C548.633 679.341 547.675 674.877 547.675 669.742C547.675 664.692 548.633 660.261 550.551 656.447C552.49 652.612 555.196 649.629 558.669 647.498C562.142 645.346 566.222 644.27 570.91 644.27C573.935 644.27 576.79 644.76 579.475 645.74C582.181 646.699 584.567 648.19 586.634 650.214C588.722 652.239 590.363 654.817 591.556 657.949C592.749 661.06 593.346 664.767 593.346 669.071V672.619H553.108V664.82H582.256C582.234 662.604 581.755 660.634 580.817 658.908C579.88 657.161 578.569 655.786 576.886 654.785C575.224 653.783 573.285 653.283 571.069 653.283C568.704 653.283 566.627 653.858 564.837 655.009C563.047 656.138 561.652 657.629 560.65 659.483C559.67 661.315 559.17 663.329 559.148 665.523V672.331C559.148 675.186 559.67 677.636 560.714 679.682C561.758 681.706 563.218 683.261 565.093 684.348C566.968 685.413 569.163 685.946 571.677 685.946C573.36 685.946 574.883 685.712 576.247 685.243C577.611 684.753 578.793 684.039 579.795 683.102C580.796 682.164 581.552 681.003 582.064 679.618L592.866 680.832C592.185 683.687 590.885 686.18 588.967 688.311C587.071 690.42 584.642 692.061 581.68 693.233C578.719 694.384 575.331 694.959 571.517 694.959Z" fill="black"/>
</g>
<defs>
<clipPath id="clip0_1_370">
<rect width="600" height="723" fill="white"/>
</clipPath>
<clipPath id="clip1_1_370">
<rect width="600" height="600" fill="white"/>
</clipPath>
</defs>
</svg>
