<svg width="600" height="723" viewBox="0 0 600 723" fill="none" xmlns="http://www.w3.org/2000/svg">
<g clip-path="url(#clip0_1_1079)">
<rect width="600" height="723" fill="white"/>
<g clip-path="url(#clip1_1_1079)">
<mask id="mask0_1_1079" style="mask-type:luminance" maskUnits="userSpaceOnUse" x="0" y="0" width="600" height="600">
<path d="M600 0H0V600H600V0Z" fill="white"/>
</mask>
<g mask="url(#mask0_1_1079)">
<path d="M600 0H0V600H600V0Z" fill="white"/>
</g>
<mask id="mask1_1_1079" style="mask-type:luminance" maskUnits="userSpaceOnUse" x="39" y="39" width="522" height="522">
<path d="M310.435 60H331.304V39.1304C325.769 39.1304 320.461 41.3292 316.547 45.243C312.634 49.1568 310.435 54.465 310.435 60Z" fill="white"/>
<path d="M206.087 80.8696H226.956V60C221.422 60 216.113 62.1987 212.199 66.1125C208.286 70.0263 206.087 75.3346 206.087 80.8696Z" fill="white"/>
<path d="M247.826 60H226.957V80.8695H247.826V60Z" fill="white"/>
<path d="M268.695 60H247.826V80.8695H268.695V60Z" fill="white"/>
<path d="M331.304 60H310.435V80.8695H331.304V60Z" fill="white"/>
<path d="M247.826 80.8696H226.957V101.739H247.826V80.8696Z" fill="white"/>
<path d="M268.696 80.8696H247.826V101.739C253.361 101.739 258.669 99.5404 262.583 95.6266C266.497 91.7128 268.696 86.4045 268.696 80.8696Z" fill="white"/>
<path d="M289.565 101.739H310.435V80.8696C307.694 80.8696 304.98 81.4094 302.448 82.4581C299.916 83.5069 297.616 85.0442 295.678 86.9821C293.74 88.92 292.203 91.2207 291.154 93.7527C290.105 96.2847 289.565 98.9985 289.565 101.739Z" fill="white"/>
<path d="M331.304 80.8696H310.435V101.739H331.304V80.8696Z" fill="white"/>
<path d="M352.174 80.8696H331.304V101.739H352.174V80.8696Z" fill="white"/>
<path d="M393.913 80.8696H383.478C380.711 80.8696 378.057 81.9689 376.1 83.9258C374.143 85.8827 373.044 88.5369 373.044 91.3043V101.739H383.478C386.246 101.739 388.9 100.64 390.857 98.6828C392.814 96.7259 393.913 94.0718 393.913 91.3043" fill="white"/>
<path d="M206.087 122.609H226.956V101.739C221.422 101.739 216.113 103.938 212.199 107.852C208.286 111.765 206.087 117.074 206.087 122.609Z" fill="white"/>
<path d="M310.435 101.739H289.565V122.609H310.435V101.739Z" fill="white"/>
<path d="M331.304 101.739H310.435V122.609H331.304V101.739Z" fill="white"/>
<path d="M352.174 101.739H331.304V122.609H352.174V101.739Z" fill="white"/>
<path d="M226.956 122.609H206.087V143.478H226.956V122.609Z" fill="white"/>
<path d="M247.826 122.609H226.956V143.478C232.491 143.478 237.8 141.279 241.713 137.366C245.627 133.452 247.826 128.144 247.826 122.609Z" fill="white"/>
<path d="M268.696 143.478H289.565V122.609C284.03 122.609 278.722 124.807 274.808 128.721C270.894 132.635 268.696 137.943 268.696 143.478Z" fill="white"/>
<path d="M310.435 122.609H289.565V143.478H310.435V122.609Z" fill="white"/>
<path d="M331.304 122.609H310.435V143.478H331.304V122.609Z" fill="white"/>
<path d="M352.174 122.609H331.304V143.478H352.174V122.609Z" fill="white"/>
<path d="M373.043 143.478H393.913V122.609C388.378 122.609 383.07 124.807 379.156 128.721C375.242 132.635 373.043 137.943 373.043 143.478Z" fill="white"/>
<path d="M331.304 143.478H310.435V164.348H331.304V143.478Z" fill="white"/>
<path d="M352.174 143.478H331.304V164.348H352.174V143.478Z" fill="white"/>
<path d="M393.913 143.478H373.043V164.348H393.913V143.478Z" fill="white"/>
<path d="M206.087 185.217H226.956V164.348C221.422 164.348 216.113 166.547 212.199 170.46C208.286 174.374 206.087 179.682 206.087 185.217Z" fill="white"/>
<path d="M247.826 185.217H268.695V164.348C263.161 164.348 257.852 166.547 253.938 170.46C250.025 174.374 247.826 179.682 247.826 185.217Z" fill="white"/>
<path d="M310.435 164.348H300C297.233 164.348 294.578 165.447 292.622 167.404C290.665 169.361 289.565 172.015 289.565 174.783V185.217H300C301.37 185.217 302.727 184.947 303.993 184.423C305.259 183.899 306.41 183.13 307.379 182.161C308.348 181.192 309.116 180.042 309.641 178.776C310.165 177.51 310.435 176.153 310.435 174.783" fill="white"/>
<path d="M352.174 164.348H331.304V185.217C334.045 185.217 336.759 184.678 339.291 183.629C341.823 182.58 344.123 181.043 346.061 179.105C347.999 177.167 349.536 174.866 350.585 172.334C351.634 169.802 352.174 167.088 352.174 164.348Z" fill="white"/>
<path d="M393.913 164.348H373.043V185.217H393.913V164.348Z" fill="white"/>
<path d="M226.956 185.217H206.087V206.087H226.956V185.217Z" fill="white"/>
<path d="M247.826 185.217H226.957V206.087H247.826V185.217Z" fill="white"/>
<path d="M268.695 185.217H247.826V206.087H268.695V185.217Z" fill="white"/>
<path d="M310.435 206.087H331.304V185.217C325.769 185.217 320.461 187.416 316.547 191.33C312.634 195.244 310.435 200.552 310.435 206.087Z" fill="white"/>
<path d="M352.174 206.087H373.043V185.217C367.508 185.217 362.2 187.416 358.286 191.33C354.373 195.244 352.174 200.552 352.174 206.087Z" fill="white"/>
<path d="M393.913 185.217H373.043V206.087H393.913V185.217Z" fill="white"/>
<path d="M60 226.957H80.8696V206.087C75.3346 206.087 70.0264 208.286 66.1126 212.199C62.1987 216.113 60 221.422 60 226.957Z" fill="white"/>
<path d="M101.739 226.957H122.609V206.087C117.074 206.087 111.765 208.286 107.852 212.2C103.938 216.113 101.739 221.422 101.739 226.957Z" fill="white"/>
<path d="M143.478 206.087H122.609V226.957H143.478V206.087Z" fill="white"/>
<path d="M164.348 206.087H143.478V226.957H164.348V206.087Z" fill="white"/>
<path d="M185.217 206.087H164.348V226.957C169.883 226.957 175.191 224.758 179.105 220.844C183.019 216.93 185.217 211.622 185.217 206.087Z" fill="white"/>
<path d="M226.956 206.087H206.087V226.957H226.956V206.087Z" fill="white"/>
<path d="M247.826 206.087H226.957V226.957H247.826V206.087Z" fill="white"/>
<path d="M268.695 206.087H247.826V226.957H268.695V206.087Z" fill="white"/>
<path d="M289.565 206.087H268.696V226.957H289.565V206.087Z" fill="white"/>
<path d="M310.435 206.087H289.565V226.957H310.435V206.087Z" fill="white"/>
<path d="M331.304 206.087H310.435V226.957H331.304V206.087Z" fill="white"/>
<path d="M393.913 206.087H373.043V226.957H393.913V206.087Z" fill="white"/>
<path d="M414.783 206.087H393.913V226.957H414.783V206.087Z" fill="white"/>
<path d="M435.652 206.087H414.783V226.957C420.317 226.957 425.626 224.758 429.54 220.844C433.453 216.93 435.652 211.622 435.652 206.087Z" fill="white"/>
<path d="M456.522 226.957H477.391V206.087C471.856 206.087 466.548 208.286 462.634 212.2C458.72 216.113 456.522 221.422 456.522 226.957Z" fill="white"/>
<path d="M498.261 206.087H477.391V226.957H498.261V206.087Z" fill="white"/>
<path d="M519.13 226.957H540V206.087C534.465 206.087 529.157 208.286 525.243 212.2C521.329 216.113 519.13 221.422 519.13 226.957Z" fill="white"/>
<path d="M80.8696 226.957H60V247.826H80.8696V226.957Z" fill="white"/>
<path d="M101.739 226.957H80.8696V247.826H101.739V226.957Z" fill="white"/>
<path d="M122.609 226.957H101.739V247.826H122.609V226.957Z" fill="white"/>
<path d="M143.478 226.957H122.609V247.826H143.478V226.957Z" fill="white"/>
<path d="M164.348 226.957H143.478V247.826H164.348V226.957Z" fill="white"/>
<path d="M268.695 226.957H247.826V247.826H268.695V226.957Z" fill="white"/>
<path d="M289.565 226.957H268.696V247.826C274.231 247.826 279.539 245.627 283.453 241.714C287.366 237.8 289.565 232.491 289.565 226.957Z" fill="white"/>
<path d="M331.304 226.957H310.435V247.826H331.304V226.957Z" fill="white"/>
<path d="M352.174 226.957H331.304V247.826H352.174V226.957Z" fill="white"/>
<path d="M373.043 226.957H352.174V247.826H373.043V226.957Z" fill="white"/>
<path d="M393.913 226.957H373.043V247.826H393.913V226.957Z" fill="white"/>
<path d="M435.652 247.826H456.522V226.957C450.987 226.957 445.678 229.155 441.765 233.069C437.851 236.983 435.652 242.291 435.652 247.826Z" fill="white"/>
<path d="M477.391 226.957H456.522V247.826H477.391V226.957Z" fill="white"/>
<path d="M498.261 226.957H477.391V247.826H498.261V226.957Z" fill="white"/>
<path d="M519.13 226.957H498.261V247.826H519.13V226.957Z" fill="white"/>
<path d="M540 226.957H519.13V247.826C524.665 247.826 529.974 245.627 533.887 241.714C537.801 237.8 540 232.491 540 226.957Z" fill="white"/>
<path d="M80.8696 247.826H60.0001V268.696C65.535 268.696 70.8433 266.497 74.7571 262.583C78.6709 258.669 80.8696 253.361 80.8696 247.826Z" fill="white"/>
<path d="M143.478 247.826H122.609V268.696H143.478V247.826Z" fill="white"/>
<path d="M164.348 247.826H143.478V268.696H164.348V247.826Z" fill="white"/>
<path d="M185.217 247.826H164.348V268.696C169.883 268.696 175.191 266.497 179.105 262.583C183.019 258.669 185.217 253.361 185.217 247.826Z" fill="white"/>
<path d="M226.957 268.696H247.826V247.826C242.291 247.826 236.983 250.025 233.069 253.939C229.155 257.852 226.957 263.161 226.957 268.696Z" fill="white"/>
<path d="M289.565 268.696H310.435V247.826C307.694 247.826 304.98 248.366 302.448 249.415C299.916 250.463 297.616 252.001 295.678 253.939C293.74 255.877 292.203 258.177 291.154 260.709C290.105 263.241 289.565 265.955 289.565 268.696Z" fill="white"/>
<path d="M331.304 247.826H310.435V268.696H331.304V247.826Z" fill="white"/>
<path d="M373.043 247.826H352.174V268.696H373.043V247.826Z" fill="white"/>
<path d="M393.913 247.826H373.044V268.696C378.578 268.696 383.887 266.497 387.801 262.583C391.714 258.669 393.913 253.361 393.913 247.826Z" fill="white"/>
<path d="M414.782 268.696H435.652V247.826C430.117 247.826 424.809 250.025 420.895 253.939C416.981 257.852 414.782 263.161 414.782 268.696Z" fill="white"/>
<path d="M456.522 247.826H435.652V268.696H456.522V247.826Z" fill="white"/>
<path d="M477.391 247.826H456.522V268.696H477.391V247.826Z" fill="white"/>
<path d="M498.261 247.826H477.391V268.696H498.261V247.826Z" fill="white"/>
<path d="M540 268.696H560.87V247.826C555.335 247.826 550.026 250.025 546.113 253.939C542.199 257.852 540 263.161 540 268.696Z" fill="white"/>
<path d="M39.1304 289.565H59.9999V268.696C57.2593 268.696 54.5455 269.235 52.0135 270.284C49.4815 271.333 47.1808 272.87 45.2429 274.808C43.305 276.746 41.7678 279.047 40.719 281.579C39.6702 284.111 39.1304 286.825 39.1304 289.565Z" fill="white"/>
<path d="M101.739 289.565H122.609V268.696C119.868 268.696 117.154 269.235 114.622 270.284C112.09 271.333 109.789 272.87 107.852 274.808C105.914 276.746 104.376 279.047 103.328 281.579C102.279 284.111 101.739 286.825 101.739 289.565Z" fill="white"/>
<path d="M143.478 268.696H122.609V289.565C125.349 289.565 128.063 289.025 130.595 287.977C133.127 286.928 135.428 285.391 137.366 283.453C139.304 281.515 140.841 279.214 141.89 276.682C142.938 274.15 143.478 271.436 143.478 268.696Z" fill="white"/>
<path d="M185.217 289.565H206.087V268.696C203.346 268.696 200.632 269.235 198.1 270.284C195.568 271.333 193.268 272.87 191.33 274.808C189.392 276.746 187.855 279.047 186.806 281.579C185.757 284.111 185.217 286.825 185.217 289.565Z" fill="white"/>
<path d="M247.826 268.696H226.957V289.565H247.826V268.696Z" fill="white"/>
<path d="M268.695 268.696H247.826V289.565H268.695V268.696Z" fill="white"/>
<path d="M331.304 268.696H310.435V289.565H331.304V268.696Z" fill="white"/>
<path d="M435.652 268.696H414.782V289.565H435.652V268.696Z" fill="white"/>
<path d="M498.261 268.696H477.391V289.565H498.261V268.696Z" fill="white"/>
<path d="M519.13 268.696H498.261V289.565H519.13V268.696Z" fill="white"/>
<path d="M540 268.696H519.13V289.565H540V268.696Z" fill="white"/>
<path d="M560.87 268.696H540V289.565H560.87V268.696Z" fill="white"/>
<path d="M59.9999 289.565H39.1304V310.435H59.9999V289.565Z" fill="white"/>
<path d="M101.739 289.565H91.3042C89.9339 289.565 88.577 289.835 87.311 290.36C86.045 290.884 84.8947 291.653 83.9257 292.622C82.9568 293.59 82.1882 294.741 81.6638 296.007C81.1394 297.273 80.8695 298.63 80.8695 300V310.435H91.3042C94.0717 310.435 96.7258 309.335 98.6827 307.379C100.64 305.422 101.739 302.768 101.739 300" fill="white"/>
<path d="M143.478 310.435H164.348V289.565C158.813 289.565 153.505 291.764 149.591 295.678C145.677 299.592 143.478 304.9 143.478 310.435Z" fill="white"/>
<path d="M185.217 289.565H164.348V310.435H185.217V289.565Z" fill="white"/>
<path d="M206.087 289.565H185.217V310.435C190.752 310.435 196.061 308.236 199.974 304.322C203.888 300.408 206.087 295.1 206.087 289.565Z" fill="white"/>
<path d="M247.826 289.565H226.957V310.435H247.826V289.565Z" fill="white"/>
<path d="M268.695 289.565H247.826V310.435H268.695V289.565Z" fill="white"/>
<path d="M289.565 289.565H268.696V310.435H289.565V289.565Z" fill="white"/>
<path d="M310.435 289.565H289.565V310.435H310.435V289.565Z" fill="white"/>
<path d="M331.304 289.565H310.435V310.435C315.97 310.435 321.278 308.236 325.192 304.322C329.105 300.408 331.304 295.1 331.304 289.565Z" fill="white"/>
<path d="M352.174 310.435H373.043V289.565C367.508 289.565 362.2 291.764 358.286 295.678C354.373 299.592 352.174 304.9 352.174 310.435Z" fill="white"/>
<path d="M435.652 289.565H414.782V310.435H435.652V289.565Z" fill="white"/>
<path d="M456.522 289.565H435.652V310.435C441.187 310.435 446.495 308.236 450.409 304.322C454.323 300.408 456.522 295.1 456.522 289.565Z" fill="white"/>
<path d="M560.87 289.565H540V310.435C545.535 310.435 550.843 308.236 554.757 304.322C558.671 300.408 560.87 295.1 560.87 289.565Z" fill="white"/>
<path d="M59.9999 310.435H39.1304V331.304H59.9999V310.435Z" fill="white"/>
<path d="M80.8696 310.435H60V331.304H80.8696V310.435Z" fill="white"/>
<path d="M101.739 331.304H122.609V310.435C119.868 310.435 117.154 310.975 114.622 312.023C112.09 313.072 109.789 314.609 107.852 316.547C105.914 318.485 104.376 320.786 103.328 323.318C102.279 325.85 101.739 328.564 101.739 331.304Z" fill="white"/>
<path d="M206.087 331.304H226.956V310.435C224.216 310.435 221.502 310.975 218.97 312.023C216.438 313.072 214.137 314.609 212.199 316.547C210.262 318.485 208.724 320.786 207.676 323.318C206.627 325.85 206.087 328.564 206.087 331.304Z" fill="white"/>
<path d="M268.695 310.435H247.826V331.304H268.695V310.435Z" fill="white"/>
<path d="M331.304 331.304H352.174V310.435C349.433 310.435 346.719 310.975 344.187 312.023C341.655 313.072 339.355 314.609 337.417 316.547C335.479 318.485 333.942 320.786 332.893 323.318C331.844 325.85 331.304 328.564 331.304 331.304Z" fill="white"/>
<path d="M373.043 310.435H352.174V331.304H373.043V310.435Z" fill="white"/>
<path d="M393.913 310.435H373.043V331.304H393.913V310.435Z" fill="white"/>
<path d="M414.783 310.435H393.913V331.304C396.654 331.304 399.368 330.765 401.9 329.716C404.432 328.667 406.732 327.13 408.67 325.192C410.608 323.254 412.145 320.953 413.194 318.421C414.243 315.889 414.783 313.175 414.783 310.435Z" fill="white"/>
<path d="M456.522 331.304H477.391V310.435C474.651 310.435 471.937 310.975 469.405 312.023C466.873 313.072 464.572 314.609 462.634 316.547C460.696 318.485 459.159 320.786 458.11 323.318C457.062 325.85 456.522 328.564 456.522 331.304Z" fill="white"/>
<path d="M519.13 331.304H540V310.435C537.259 310.435 534.546 310.975 532.014 312.023C529.481 313.072 527.181 314.609 525.243 316.547C523.305 318.485 521.768 320.786 520.719 323.318C519.67 325.85 519.13 328.564 519.13 331.304Z" fill="white"/>
<path d="M59.9999 331.304H39.1304V352.174H59.9999V331.304Z" fill="white"/>
<path d="M80.8696 331.304H60V352.174H80.8696V331.304Z" fill="white"/>
<path d="M101.739 331.304H80.8696V352.174H101.739V331.304Z" fill="white"/>
<path d="M122.609 331.304H101.739V352.174H122.609V331.304Z" fill="white"/>
<path d="M185.217 331.304H174.782C172.015 331.304 169.361 332.404 167.404 334.361C165.447 336.318 164.348 338.972 164.348 341.739V352.174H174.782C177.55 352.174 180.204 351.075 182.161 349.118C184.118 347.161 185.217 344.507 185.217 341.739" fill="white"/>
<path d="M226.956 331.304H206.087V352.174H226.956V331.304Z" fill="white"/>
<path d="M268.696 331.304H247.826V352.174C253.361 352.174 258.669 349.975 262.583 346.061C266.497 342.148 268.696 336.839 268.696 331.304Z" fill="white"/>
<path d="M289.565 352.174H310.435V331.304C307.694 331.304 304.98 331.844 302.448 332.893C299.916 333.942 297.616 335.479 295.678 337.417C293.74 339.355 292.203 341.655 291.154 344.187C290.105 346.719 289.565 349.433 289.565 352.174Z" fill="white"/>
<path d="M352.174 331.304H331.304V352.174H352.174V331.304Z" fill="white"/>
<path d="M373.043 331.304H352.174V352.174H373.043V331.304Z" fill="white"/>
<path d="M435.652 331.304H425.217C422.45 331.304 419.796 332.404 417.839 334.361C415.882 336.318 414.783 338.972 414.783 341.739V352.174H425.217C427.985 352.174 430.639 351.075 432.596 349.118C434.553 347.161 435.652 344.507 435.652 341.739" fill="white"/>
<path d="M477.391 331.304H456.522V352.174H477.391V331.304Z" fill="white"/>
<path d="M498.261 331.304H477.391V352.174H498.261V331.304Z" fill="white"/>
<path d="M519.13 331.304H498.261V352.174H519.13V331.304Z" fill="white"/>
<path d="M540 331.304H519.13V352.174H540V331.304Z" fill="white"/>
<path d="M560.87 331.304H540V352.174H560.87V331.304Z" fill="white"/>
<path d="M59.9999 352.174H39.1304V373.043H59.9999V352.174Z" fill="white"/>
<path d="M101.739 352.174H80.8696V373.043H101.739V352.174Z" fill="white"/>
<path d="M122.609 352.174H101.739V373.043H122.609V352.174Z" fill="white"/>
<path d="M143.478 352.174H122.609V373.043C128.144 373.043 133.452 370.845 137.366 366.931C141.28 363.017 143.478 357.709 143.478 352.174Z" fill="white"/>
<path d="M185.217 373.043H206.087V352.174C200.552 352.174 195.244 354.373 191.33 358.286C187.416 362.2 185.217 367.509 185.217 373.043Z" fill="white"/>
<path d="M226.956 352.174H206.087V373.043H226.956V352.174Z" fill="white"/>
<path d="M310.435 352.174H289.565V373.043H310.435V352.174Z" fill="white"/>
<path d="M373.043 352.174H352.174V373.043H373.043V352.174Z" fill="white"/>
<path d="M393.913 352.174H373.043V373.043H393.913V352.174Z" fill="white"/>
<path d="M414.783 352.174H393.913V373.043H414.783V352.174Z" fill="white"/>
<path d="M435.652 373.043H456.522V352.174C450.987 352.174 445.678 354.373 441.765 358.286C437.851 362.2 435.652 367.509 435.652 373.043Z" fill="white"/>
<path d="M498.261 352.174H477.391V373.043H498.261V352.174Z" fill="white"/>
<path d="M519.13 352.174H498.261V373.043H519.13V352.174Z" fill="white"/>
<path d="M560.87 352.174H540V373.043C545.535 373.043 550.843 370.845 554.757 366.931C558.671 363.017 560.87 357.709 560.87 352.174Z" fill="white"/>
<path d="M60 373.043H39.1304V393.913C41.8711 393.913 44.5849 393.373 47.1169 392.324C49.6489 391.276 51.9495 389.738 53.8875 387.801C55.8254 385.863 57.3626 383.562 58.4114 381.03C59.4602 378.498 60 375.784 60 373.043Z" fill="white"/>
<path d="M122.609 373.043H101.739V393.913C107.274 393.913 112.582 391.714 116.496 387.8C120.41 383.887 122.609 378.578 122.609 373.043Z" fill="white"/>
<path d="M185.217 373.043H174.783C172.015 373.043 169.361 374.143 167.404 376.1C165.447 378.057 164.348 380.711 164.348 383.478V393.913H174.783C177.55 393.913 180.204 392.814 182.161 390.857C184.118 388.9 185.217 386.246 185.217 383.478" fill="white"/>
<path d="M226.956 373.043H206.087V393.913H226.956V373.043Z" fill="white"/>
<path d="M268.696 373.043H258.261C255.493 373.043 252.839 374.143 250.882 376.1C248.925 378.057 247.826 380.711 247.826 383.478V393.913H258.261C261.028 393.913 263.682 392.814 265.639 390.857C267.596 388.9 268.696 386.246 268.696 383.478" fill="white"/>
<path d="M310.435 373.043H289.565V393.913H310.435V373.043Z" fill="white"/>
<path d="M331.304 373.043H310.435V393.913H331.304V373.043Z" fill="white"/>
<path d="M352.174 373.043H331.304V393.913H352.174V373.043Z" fill="white"/>
<path d="M373.043 373.043H352.174V393.913H373.043V373.043Z" fill="white"/>
<path d="M393.913 373.043H373.043V393.913H393.913V373.043Z" fill="white"/>
<path d="M414.783 373.043H393.913V393.913H414.783V373.043Z" fill="white"/>
<path d="M435.652 373.043H414.782V393.913H435.652V373.043Z" fill="white"/>
<path d="M456.522 373.043H435.652V393.913H456.522V373.043Z" fill="white"/>
<path d="M477.391 373.043H456.522V393.913H477.391V373.043Z" fill="white"/>
<path d="M519.13 373.043H498.261V393.913H519.13V373.043Z" fill="white"/>
<path d="M540 373.043H519.13V393.913H540V373.043Z" fill="white"/>
<path d="M226.957 393.913H206.087V414.783C208.828 414.783 211.541 414.243 214.073 413.194C216.605 412.145 218.906 410.608 220.844 408.67C222.782 406.732 224.319 404.432 225.368 401.9C226.417 399.367 226.957 396.654 226.957 393.913Z" fill="white"/>
<path d="M310.435 393.913H289.565V414.783H310.435V393.913Z" fill="white"/>
<path d="M373.043 393.913H352.174V414.783H373.043V393.913Z" fill="white"/>
<path d="M393.913 393.913H373.043V414.783H393.913V393.913Z" fill="white"/>
<path d="M477.391 393.913H456.522V414.783H477.391V393.913Z" fill="white"/>
<path d="M519.13 393.913H498.261V414.783H519.13V393.913Z" fill="white"/>
<path d="M540 393.913H519.13V414.783C521.871 414.783 524.585 414.243 527.117 413.194C529.649 412.145 531.95 410.608 533.887 408.67C535.825 406.732 537.363 404.431 538.411 401.899C539.46 399.367 540 396.654 540 393.913Z" fill="white"/>
<path d="M226.957 435.652H247.826V414.783C242.291 414.783 236.983 416.981 233.069 420.895C229.155 424.809 226.957 430.117 226.957 435.652Z" fill="white"/>
<path d="M268.696 414.783H247.826V435.652C253.361 435.652 258.669 433.453 262.583 429.54C266.497 425.626 268.696 420.318 268.696 414.783Z" fill="white"/>
<path d="M310.435 414.783H289.565V435.652H310.435V414.783Z" fill="white"/>
<path d="M393.913 414.783H373.043V435.652H393.913V414.783Z" fill="white"/>
<path d="M435.652 414.783H425.217C422.45 414.783 419.796 415.882 417.839 417.839C415.882 419.796 414.783 422.45 414.783 425.217V435.652H425.217C427.985 435.652 430.639 434.553 432.596 432.596C434.553 430.639 435.652 427.985 435.652 425.217" fill="white"/>
<path d="M477.391 414.783H456.522V435.652H477.391V414.783Z" fill="white"/>
<path d="M560.87 414.783H550.435C547.667 414.783 545.013 415.882 543.056 417.839C541.099 419.796 540 422.45 540 425.217V435.652H550.435C553.202 435.652 555.856 434.553 557.813 432.596C559.77 430.639 560.87 427.985 560.87 425.217" fill="white"/>
<path d="M206.087 456.522H226.956V435.652C221.422 435.652 216.113 437.851 212.199 441.765C208.286 445.679 206.087 450.987 206.087 456.522Z" fill="white"/>
<path d="M268.696 456.522H289.565V435.652C284.03 435.652 278.722 437.851 274.808 441.765C270.894 445.679 268.696 450.987 268.696 456.522Z" fill="white"/>
<path d="M310.435 435.652H289.565V456.522C292.306 456.522 295.02 455.982 297.552 454.933C300.084 453.884 302.384 452.347 304.322 450.409C306.26 448.471 307.797 446.171 308.846 443.639C309.895 441.107 310.435 438.393 310.435 435.652Z" fill="white"/>
<path d="M352.174 456.522H373.043V435.652C367.508 435.652 362.2 437.851 358.286 441.765C354.373 445.679 352.174 450.987 352.174 456.522Z" fill="white"/>
<path d="M393.913 435.652H373.043V456.522H393.913V435.652Z" fill="white"/>
<path d="M477.391 435.652H456.522V456.522H477.391V435.652Z" fill="white"/>
<path d="M540 435.652H529.565C526.798 435.652 524.144 436.751 522.187 438.708C520.23 440.665 519.13 443.319 519.13 446.087V456.522H529.565C532.333 456.522 534.987 455.422 536.944 453.465C538.901 451.508 540 448.854 540 446.087" fill="white"/>
<path d="M226.956 456.522H206.087V477.391H226.956V456.522Z" fill="white"/>
<path d="M331.304 477.391H352.174V456.522C349.433 456.522 346.719 457.062 344.187 458.11C341.655 459.159 339.355 460.696 337.417 462.634C335.479 464.572 333.942 466.873 332.893 469.405C331.844 471.937 331.304 474.651 331.304 477.391Z" fill="white"/>
<path d="M373.043 456.522H352.174V477.391H373.043V456.522Z" fill="white"/>
<path d="M393.913 456.522H373.043V477.391H393.913V456.522Z" fill="white"/>
<path d="M414.783 456.522H393.913V477.391H414.783V456.522Z" fill="white"/>
<path d="M435.652 456.522H414.782V477.391H435.652V456.522Z" fill="white"/>
<path d="M456.522 456.522H435.652V477.391H456.522V456.522Z" fill="white"/>
<path d="M477.391 456.522H456.522V477.391C462.057 477.391 467.365 475.193 471.279 471.279C475.192 467.365 477.391 462.057 477.391 456.522Z" fill="white"/>
<path d="M540 477.391H560.87V456.522C555.335 456.522 550.026 458.72 546.113 462.634C542.199 466.548 540 471.856 540 477.391Z" fill="white"/>
<path d="M226.957 477.391H206.087V498.261C211.622 498.261 216.93 496.062 220.844 492.148C224.758 488.235 226.957 482.926 226.957 477.391Z" fill="white"/>
<path d="M268.696 498.261H289.565V477.391C284.03 477.391 278.722 479.59 274.808 483.504C270.894 487.418 268.696 492.726 268.696 498.261Z" fill="white"/>
<path d="M310.435 477.391H289.565V498.261H310.435V477.391Z" fill="white"/>
<path d="M331.304 477.391H310.435V498.261H331.304V477.391Z" fill="white"/>
<path d="M352.174 477.391H331.304V498.261C334.045 498.261 336.759 497.721 339.291 496.672C341.823 495.623 344.123 494.086 346.061 492.148C347.999 490.21 349.536 487.91 350.585 485.378C351.634 482.846 352.174 480.132 352.174 477.391Z" fill="white"/>
<path d="M435.652 477.391H414.783V498.261C420.317 498.261 425.626 496.062 429.54 492.148C433.453 488.235 435.652 482.926 435.652 477.391Z" fill="white"/>
<path d="M519.13 498.261H540V477.391C534.465 477.391 529.157 479.59 525.243 483.504C521.329 487.418 519.13 492.726 519.13 498.261Z" fill="white"/>
<path d="M560.87 477.391H540V498.261H560.87V477.391Z" fill="white"/>
<path d="M247.826 519.13H268.695V498.261C265.955 498.261 263.241 498.801 260.709 499.849C258.177 500.898 255.876 502.436 253.938 504.373C252.001 506.311 250.463 508.612 249.415 511.144C248.366 513.676 247.826 516.39 247.826 519.13Z" fill="white"/>
<path d="M289.565 498.261H268.696V519.13H289.565V498.261Z" fill="white"/>
<path d="M331.304 498.261H310.435V519.13H331.304V498.261Z" fill="white"/>
<path d="M414.782 498.261H404.348C402.977 498.261 401.62 498.531 400.354 499.055C399.088 499.58 397.938 500.348 396.969 501.317C396 502.286 395.232 503.436 394.707 504.702C394.183 505.968 393.913 507.325 393.913 508.696V519.13H404.348C407.115 519.13 409.769 518.031 411.726 516.074C413.683 514.117 414.782 511.463 414.782 508.696" fill="white"/>
<path d="M456.522 519.13H477.391V498.261C474.651 498.261 471.937 498.801 469.405 499.849C466.873 500.898 464.572 502.436 462.634 504.373C460.696 506.311 459.159 508.612 458.11 511.144C457.062 513.676 456.522 516.39 456.522 519.13Z" fill="white"/>
<path d="M498.261 498.261H477.391V519.13H498.261V498.261Z" fill="white"/>
<path d="M519.13 498.261H498.261V519.13H519.13V498.261Z" fill="white"/>
<path d="M540 498.261H519.13V519.13H540V498.261Z" fill="white"/>
<path d="M560.87 498.261H540V519.13H560.87V498.261Z" fill="white"/>
<path d="M206.087 540H226.957V519.13C221.422 519.13 216.113 521.329 212.2 525.243C208.286 529.157 206.087 534.465 206.087 540Z" fill="white"/>
<path d="M247.826 519.13H226.957V540H247.826V519.13Z" fill="white"/>
<path d="M268.695 519.13H247.826V540H268.695V519.13Z" fill="white"/>
<path d="M289.565 519.13H268.696V540H289.565V519.13Z" fill="white"/>
<path d="M310.435 519.13H289.565V540H310.435V519.13Z" fill="white"/>
<path d="M331.304 519.13H310.435V540C315.97 540 321.278 537.801 325.192 533.887C329.105 529.974 331.304 524.665 331.304 519.13Z" fill="white"/>
<path d="M373.043 519.13H362.609C359.841 519.13 357.187 520.23 355.23 522.187C353.273 524.144 352.174 526.798 352.174 529.565V540H362.609C365.376 540 368.03 538.901 369.987 536.944C371.944 534.987 373.043 532.333 373.043 529.565" fill="white"/>
<path d="M435.652 540H456.522V519.13C450.987 519.13 445.678 521.329 441.765 525.243C437.851 529.157 435.652 534.465 435.652 540Z" fill="white"/>
<path d="M477.391 519.13H456.522V540C462.057 540 467.365 537.801 471.279 533.887C475.193 529.974 477.391 524.665 477.391 519.13Z" fill="white"/>
<path d="M519.13 519.13H498.261V540H519.13V519.13Z" fill="white"/>
<path d="M540 519.13H519.13V540H540V519.13Z" fill="white"/>
<path d="M560.87 519.13H540V540H560.87V519.13Z" fill="white"/>
<path d="M373.043 560.87H393.913V540C388.378 540 383.07 542.199 379.156 546.113C375.242 550.026 373.043 555.335 373.043 560.87Z" fill="white"/>
<path d="M414.782 540H393.913V560.87C399.448 560.87 404.756 558.671 408.67 554.757C412.584 550.843 414.782 545.535 414.782 540Z" fill="white"/>
<path d="M498.261 540H487.826C485.058 540 482.404 541.099 480.447 543.056C478.491 545.013 477.391 547.667 477.391 550.435V560.87H487.826C490.593 560.87 493.248 559.77 495.204 557.813C497.161 555.856 498.261 553.202 498.261 550.435" fill="white"/>
<path d="M560.87 540H540V560.87C545.535 560.87 550.843 558.671 554.757 554.757C558.671 550.843 560.87 545.535 560.87 540Z" fill="white"/>
</mask>
<g mask="url(#mask1_1_1079)">
<path d="M600 -7.62939e-06H0V600H600V-7.62939e-06Z" fill="black"/>
</g>
<mask id="mask2_1_1079" style="mask-type:luminance" maskUnits="userSpaceOnUse" x="39" y="39" width="147" height="147">
<path fill-rule="evenodd" clip-rule="evenodd" d="M39.1304 39.1304V185.217H185.217V39.1304H39.1304ZM59.9999 60H164.348V164.348H59.9999V60Z" fill="white"/>
</mask>
<g mask="url(#mask2_1_1079)">
<path d="M185.217 39.1304H39.1304V185.217H185.217V39.1304Z" fill="black"/>
</g>
<mask id="mask3_1_1079" style="mask-type:luminance" maskUnits="userSpaceOnUse" x="80" y="80" width="64" height="64">
<path d="M143.478 80.8696H80.8696V143.478H143.478V80.8696Z" fill="white"/>
</mask>
<g mask="url(#mask3_1_1079)">
<path d="M143.478 80.8696H80.8696V143.478H143.478V80.8696Z" fill="black"/>
</g>
<mask id="mask4_1_1079" style="mask-type:luminance" maskUnits="userSpaceOnUse" x="414" y="39" width="147" height="147">
<path fill-rule="evenodd" clip-rule="evenodd" d="M560.87 39.1304L414.783 39.1304V185.217H560.87V39.1304ZM540 60V164.348H435.652V60L540 60Z" fill="white"/>
</mask>
<g mask="url(#mask4_1_1079)">
<path d="M560.87 39.1304H414.783V185.217H560.87V39.1304Z" fill="black"/>
</g>
<mask id="mask5_1_1079" style="mask-type:luminance" maskUnits="userSpaceOnUse" x="456" y="80" width="64" height="64">
<path d="M519.13 143.478V80.8696H456.522V143.478H519.13Z" fill="white"/>
</mask>
<g mask="url(#mask5_1_1079)">
<path d="M519.13 80.8696H456.522V143.478H519.13V80.8696Z" fill="black"/>
</g>
<mask id="mask6_1_1079" style="mask-type:luminance" maskUnits="userSpaceOnUse" x="39" y="414" width="147" height="147">
<path fill-rule="evenodd" clip-rule="evenodd" d="M39.1304 560.87H185.217V414.783H39.1304L39.1304 560.87ZM60 540L60 435.652H164.348V540H60Z" fill="white"/>
</mask>
<g mask="url(#mask6_1_1079)">
<path d="M185.217 414.783H39.1304V560.87H185.217V414.783Z" fill="black"/>
</g>
<mask id="mask7_1_1079" style="mask-type:luminance" maskUnits="userSpaceOnUse" x="80" y="456" width="64" height="64">
<path d="M80.8696 456.522V519.13H143.478V456.522H80.8696Z" fill="white"/>
</mask>
<g mask="url(#mask7_1_1079)">
<path d="M143.478 456.522H80.8696V519.13H143.478V456.522Z" fill="black"/>
</g>
</g>
<path d="M151.27 628.545V694H139.508V638.389H110.872V694H99.1107V628.545H151.27ZM165.256 628.545H177.018V673.162H177.625L208.402 628.545H219.045V694H207.188V649.415H206.645L175.771 694H165.256V628.545ZM233.495 628.545H245.16V684.156H265.359V628.545H276.961V684.156H297V628.545H308.602V694H233.495V628.545ZM345.196 694V628.545H370.252C374.982 628.545 378.914 629.291 382.046 630.783C385.199 632.253 387.553 634.266 389.109 636.823C390.686 639.38 391.474 642.278 391.474 645.516C391.474 648.18 390.963 650.46 389.94 652.356C388.917 654.231 387.543 655.754 385.817 656.926C384.091 658.098 382.163 658.94 380.032 659.451V660.09C382.355 660.218 384.581 660.932 386.712 662.232C388.864 663.51 390.622 665.321 391.985 667.665C393.349 670.009 394.031 672.842 394.031 676.166C394.031 679.554 393.21 682.601 391.57 685.307C389.929 687.991 387.458 690.112 384.155 691.667C380.852 693.222 376.698 694 371.691 694H345.196ZM357.053 684.092H369.805C374.109 684.092 377.209 683.272 379.105 681.631C381.023 679.969 381.982 677.839 381.982 675.239C381.982 673.3 381.502 671.553 380.544 669.998C379.585 668.421 378.221 667.185 376.453 666.29C374.684 665.374 372.575 664.916 370.125 664.916H357.053V684.092ZM357.053 656.383H368.782C370.828 656.383 372.671 656.01 374.311 655.264C375.952 654.497 377.241 653.421 378.178 652.036C379.137 650.63 379.617 648.968 379.617 647.05C379.617 644.515 378.722 642.427 376.932 640.786C375.164 639.146 372.532 638.325 369.038 638.325H357.053V656.383ZM446.241 628.545V638.485H416.007V694H404.15V628.545H446.241ZM461.922 694.895V684.923H465.661C467.344 684.923 468.729 684.678 469.816 684.188C470.903 683.698 471.776 682.995 472.437 682.079C473.118 681.163 473.683 680.097 474.131 678.883L474.993 676.678L451.599 628.545H463.999L480.299 663.574L494.393 628.545H506.602L484.038 681.919C482.994 684.22 481.79 686.362 480.427 688.343C479.063 690.303 477.284 691.891 475.089 693.105C472.916 694.298 470.082 694.895 466.588 694.895H461.922Z" fill="black"/>
</g>
<defs>
<clipPath id="clip0_1_1079">
<rect width="600" height="723" fill="white"/>
</clipPath>
<clipPath id="clip1_1_1079">
<rect width="600" height="600" fill="white"/>
</clipPath>
</defs>
</svg>
