<svg width="1609" height="450" viewBox="0 0 1609 450" fill="none" xmlns="http://www.w3.org/2000/svg">
<path d="M450 450H0V0H450V450ZM15 15V435H435V15H15Z" fill="#071D49"/>
<path d="M435 435H15L118.936 331.063C140.955 353.083 169.787 368.289 202 373.246V358.045C173.937 353.228 148.835 339.747 129.543 320.456L140.148 309.851C156.709 326.411 178.087 338.154 202 342.796V327.471C182.238 323.054 164.578 313.067 150.755 299.244L161.361 288.638C172.439 299.714 186.389 307.918 202 312.032V296.405C190.539 292.717 180.284 286.343 171.97 278.029L203.786 246.212C209.215 251.641 216.715 255 225 255C241.569 255 255 241.569 255 225C255 216.715 251.641 209.215 246.212 203.786L278.033 171.967C291.606 185.539 300 204.289 300 225C300 258.766 277.686 287.318 247 296.72V312.289C286.071 302.473 315 267.116 315 225C315 200.147 304.926 177.647 288.64 161.36L299.246 150.754C318.247 169.755 330 196.005 330 225C330 275.444 294.428 317.578 247 327.689V342.985C302.767 332.652 345 283.759 345 225C345 191.863 331.568 161.863 309.853 140.147L320.459 129.541C344.889 153.971 360 187.721 360 225C360 292.067 311.094 347.709 247 358.214V373.395C319.413 362.751 375 300.369 375 225C375 183.579 358.211 146.078 331.066 118.934L435 15V435ZM217 374.788C219.649 374.927 222.316 375 225 375C227.346 375 229.68 374.943 232 374.836V299.676C229.695 299.889 227.36 300 225 300C222.297 300 219.629 299.855 217 299.576V374.788Z" fill="#071D49"/>
<mask id="mask0_9529_183" style="mask-type:alpha" maskUnits="userSpaceOnUse" x="15" y="15" width="420" height="420">
<path d="M15 15H435L15 435V15Z" fill="white"/>
</mask>
<g mask="url(#mask0_9529_183)">
<path d="M225 75C307.843 75.0001 375 142.157 375 225C375 300.369 319.413 362.751 247 373.395V358.214C311.094 347.709 360 292.067 360 225C360 150.442 299.558 90 225 90C150.442 90 90 150.442 90 225C90 291.717 138.398 347.128 202 358.045V373.246C130.076 362.178 75 300.022 75 225C75 142.157 142.157 75 225 75ZM225 105C291.274 105 345 158.726 345 225C345 283.759 302.767 332.652 247 342.985V327.689C294.428 317.578 330 275.444 330 225C330 167.01 282.99 120 225 120C167.01 120 120 167.01 120 225C120 275.089 155.073 316.984 202 327.471V342.796C146.729 332.067 105 283.407 105 225C105 158.726 158.726 105 225 105ZM225 135C274.705 135 315 175.295 315 225C315 267.116 286.071 302.473 247 312.289V296.72C277.686 287.318 300 258.766 300 225C300 183.579 266.421 150 225 150C183.579 150 150 183.579 150 225C150 258.398 171.831 286.695 202 296.405V312.032C163.437 301.868 135 266.756 135 225C135 175.294 175.294 135 225 135Z" fill="#071D49"/>
<path d="M217 299.576C219.629 299.855 222.297 300 225 300C227.36 300 229.695 299.889 232 299.676V374.836C229.68 374.943 227.346 375 225 375C222.316 375 219.649 374.927 217 374.788V299.576Z" fill="#071D49"/>
<circle cx="225" cy="225" r="30" fill="#071D49"/>
</g>
<path d="M624.055 93.6758C624.055 99.4049 622.178 103.96 618.426 107.34C614.702 110.72 609.632 112.41 603.215 112.41H585.426V136H577.219V75.457H602.699C609.488 75.457 614.745 77.0469 618.469 80.2266C622.193 83.4062 624.055 87.8893 624.055 93.6758ZM615.805 93.7617C615.805 85.9414 611.107 82.0312 601.711 82.0312H585.426V105.922H602.055C611.221 105.922 615.805 101.868 615.805 93.7617ZM670.074 112.711C670.074 120.846 668.284 126.905 664.703 130.887C661.122 134.868 655.923 136.859 649.105 136.859C642.316 136.859 637.189 134.797 633.723 130.672C630.257 126.518 628.523 120.531 628.523 112.711C628.523 96.6693 635.47 88.6484 649.363 88.6484C656.467 88.6484 661.695 90.6107 665.047 94.5352C668.398 98.431 670.074 104.49 670.074 112.711ZM661.953 112.711C661.953 106.294 660.993 101.639 659.074 98.7461C657.184 95.8242 653.99 94.3633 649.492 94.3633C644.966 94.3633 641.686 95.8529 639.652 98.832C637.647 101.783 636.645 106.409 636.645 112.711C636.645 118.841 637.633 123.453 639.609 126.547C641.615 129.612 644.751 131.145 649.02 131.145C653.66 131.145 656.969 129.655 658.945 126.676C660.951 123.697 661.953 119.042 661.953 112.711ZM685.629 112.539C685.629 118.727 686.603 123.31 688.551 126.289C690.499 129.268 693.435 130.758 697.359 130.758C700.109 130.758 702.401 130.013 704.234 128.523C706.096 127.034 707.242 124.742 707.672 121.648L715.492 122.164C714.891 126.633 712.986 130.199 709.777 132.863C706.569 135.527 702.501 136.859 697.574 136.859C691.072 136.859 686.102 134.811 682.664 130.715C679.255 126.59 677.551 120.589 677.551 112.711C677.551 104.891 679.27 98.9323 682.707 94.8359C686.145 90.7109 691.072 88.6484 697.488 88.6484C702.243 88.6484 706.182 89.8802 709.305 92.3438C712.456 94.8073 714.432 98.2018 715.234 102.527L707.285 103.129C706.884 100.551 705.867 98.5026 704.234 96.9844C702.602 95.4661 700.281 94.707 697.273 94.707C693.177 94.707 690.212 96.0677 688.379 98.7891C686.546 101.51 685.629 106.094 685.629 112.539ZM729.629 112.539C729.629 118.727 730.603 123.31 732.551 126.289C734.499 129.268 737.435 130.758 741.359 130.758C744.109 130.758 746.401 130.013 748.234 128.523C750.096 127.034 751.242 124.742 751.672 121.648L759.492 122.164C758.891 126.633 756.986 130.199 753.777 132.863C750.569 135.527 746.501 136.859 741.574 136.859C735.072 136.859 730.102 134.811 726.664 130.715C723.255 126.59 721.551 120.589 721.551 112.711C721.551 104.891 723.27 98.9323 726.707 94.8359C730.145 90.7109 735.072 88.6484 741.488 88.6484C746.243 88.6484 750.182 89.8802 753.305 92.3438C756.456 94.8073 758.432 98.2018 759.234 102.527L751.285 103.129C750.884 100.551 749.867 98.5026 748.234 96.9844C746.602 95.4661 744.281 94.707 741.273 94.707C737.177 94.707 734.212 96.0677 732.379 98.7891C730.546 101.51 729.629 106.094 729.629 112.539ZM775.391 89.5078V114.945L774.961 126.848L796.402 89.5078H804.867V136H797.477V107.641C797.477 106.609 797.52 105.048 797.605 102.957C797.72 100.866 797.82 99.3763 797.906 98.4883L776.164 136H767.914V89.5078H775.391ZM824.547 89.5078V114.945L824.117 126.848L845.559 89.5078H854.023V136H846.633V107.641C846.633 106.609 846.676 105.048 846.762 102.957C846.876 100.866 846.977 99.3763 847.062 98.4883L825.32 136H817.07V89.5078H824.547ZM835.633 84.4375C825.435 84.4375 820.178 79.8542 819.863 70.6875H826.91C827.254 76.388 830.161 79.2383 835.633 79.2383C841.104 79.2383 844.012 76.388 844.355 70.6875H851.402C851.087 79.8542 845.831 84.4375 835.633 84.4375ZM871.941 112.539C871.941 118.727 872.915 123.31 874.863 126.289C876.811 129.268 879.747 130.758 883.672 130.758C886.422 130.758 888.714 130.013 890.547 128.523C892.409 127.034 893.555 124.742 893.984 121.648L901.805 122.164C901.203 126.633 899.298 130.199 896.09 132.863C892.882 135.527 888.814 136.859 883.887 136.859C877.384 136.859 872.414 134.811 868.977 130.715C865.568 126.59 863.863 120.589 863.863 112.711C863.863 104.891 865.582 98.9323 869.02 94.8359C872.457 90.7109 877.384 88.6484 883.801 88.6484C888.556 88.6484 892.495 89.8802 895.617 92.3438C898.768 94.8073 900.745 98.2018 901.547 102.527L893.598 103.129C893.197 100.551 892.18 98.5026 890.547 96.9844C888.914 95.4661 886.594 94.707 883.586 94.707C879.49 94.707 876.525 96.0677 874.691 98.7891C872.858 101.51 871.941 106.094 871.941 112.539ZM910.055 89.5078H917.789V109.875C918.648 109.875 919.422 109.76 920.109 109.531C920.797 109.302 921.513 108.829 922.258 108.113C923.003 107.368 923.848 106.337 924.793 105.02C925.738 103.702 929.004 98.5312 934.59 89.5078H942.668L933.387 103.473C930.723 107.368 928.889 109.732 927.887 110.562L943.055 136H934.461L922.516 114.645C921.971 114.874 921.227 115.074 920.281 115.246C919.365 115.418 918.534 115.504 917.789 115.504V136H910.055V89.5078ZM962.391 136.859C957.721 136.859 954.212 135.628 951.863 133.164C949.514 130.701 948.34 127.32 948.34 123.023C948.34 118.211 949.915 114.516 953.066 111.938C956.246 109.359 961.359 107.984 968.406 107.812L978.848 107.641V105.105C978.848 101.324 978.046 98.6172 976.441 96.9844C974.837 95.3516 972.316 94.5352 968.879 94.5352C965.413 94.5352 962.892 95.1224 961.316 96.2969C959.741 97.4714 958.796 99.3477 958.48 101.926L950.402 101.195C951.72 92.8307 957.936 88.6484 969.051 88.6484C974.895 88.6484 979.292 89.9948 982.242 92.6875C985.193 95.3516 986.668 99.2188 986.668 104.289V124.312C986.668 126.604 986.969 128.337 987.57 129.512C988.172 130.658 989.318 131.23 991.008 131.23C991.753 131.23 992.598 131.13 993.543 130.93V135.742C991.595 136.201 989.604 136.43 987.57 136.43C984.706 136.43 982.615 135.685 981.297 134.195C980.008 132.677 979.277 130.314 979.105 127.105H978.848C976.871 130.658 974.565 133.178 971.93 134.668C969.323 136.129 966.143 136.859 962.391 136.859ZM964.152 131.059C966.988 131.059 969.509 130.414 971.715 129.125C973.921 127.836 975.654 126.074 976.914 123.84C978.203 121.577 978.848 119.257 978.848 116.879V113.055L970.383 113.227C966.745 113.284 963.98 113.656 962.09 114.344C960.228 115.031 958.796 116.091 957.793 117.523C956.79 118.956 956.289 120.832 956.289 123.152C956.289 125.673 956.962 127.621 958.309 128.996C959.684 130.371 961.632 131.059 964.152 131.059ZM1016.57 116.32L1003.04 136H994.316L1009.1 115.762C1001.96 114.301 998.398 109.832 998.398 102.355C998.398 98.0872 999.945 94.8789 1003.04 92.7305C1006.13 90.582 1010.64 89.5078 1016.57 89.5078H1035.14V136H1027.4V116.32H1016.57ZM1027.4 94.9648H1017.35C1013.62 94.9648 1010.9 95.6237 1009.18 96.9414C1007.46 98.2591 1006.61 100.25 1006.61 102.914C1006.61 105.607 1007.36 107.626 1008.88 108.973C1010.43 110.29 1012.98 110.949 1016.53 110.949H1027.4V94.9648ZM1068.14 122.465L1075.96 121.949C1076.42 125.043 1077.59 127.335 1079.48 128.824C1081.4 130.314 1083.79 131.059 1086.66 131.059C1090.35 131.059 1093.22 129.798 1095.25 127.277C1097.28 124.728 1098.47 120.732 1098.82 115.289H1081.07V109.66H1098.82C1098.59 104.246 1097.5 100.35 1095.55 97.9727C1093.63 95.5951 1090.7 94.4062 1086.74 94.4062C1080.73 94.4062 1077.26 97.2135 1076.34 102.828L1068.39 102.227C1069.2 97.9583 1071.19 94.6354 1074.37 92.2578C1077.58 89.8516 1081.63 88.6484 1086.53 88.6484C1093.12 88.6484 1098.16 90.7109 1101.65 94.8359C1105.18 98.9609 1106.94 104.919 1106.94 112.711C1106.94 120.617 1105.18 126.618 1101.65 130.715C1098.16 134.811 1093.09 136.859 1086.44 136.859C1081.37 136.859 1077.2 135.57 1073.94 132.992C1070.67 130.414 1068.74 126.905 1068.14 122.465ZM1146.3 136V95.1367H1130.18C1128.49 107.626 1127.19 116.062 1126.27 120.445C1125.36 124.799 1124.37 128.094 1123.31 130.328C1122.25 132.562 1120.93 134.21 1119.36 135.27C1117.81 136.329 1115.8 136.859 1113.34 136.859C1111.91 136.859 1110.56 136.673 1109.3 136.301V130.758C1110.02 131.016 1110.99 131.145 1112.22 131.145C1113.8 131.145 1115.06 130.357 1116 128.781C1116.98 127.206 1117.85 124.484 1118.62 120.617C1119.43 116.75 1120.33 111.035 1121.33 103.473L1123.22 89.5078H1154.07V136H1146.3ZM1172.08 114.387C1172.08 119.715 1173.18 123.826 1175.39 126.719C1177.59 129.612 1180.82 131.059 1185.05 131.059C1188.41 131.059 1191.08 130.385 1193.09 129.039C1195.12 127.693 1196.5 125.988 1197.21 123.926L1204 125.859C1201.23 133.193 1194.91 136.859 1185.05 136.859C1178.18 136.859 1172.94 134.811 1169.33 130.715C1165.75 126.618 1163.96 120.531 1163.96 112.453C1163.96 104.776 1165.75 98.8893 1169.33 94.793C1172.94 90.6966 1178.08 88.6484 1184.75 88.6484C1198.42 88.6484 1205.25 96.8841 1205.25 113.355V114.387H1172.08ZM1197.26 108.457C1196.83 103.559 1195.58 99.9922 1193.52 97.7578C1191.46 95.4948 1188.49 94.3633 1184.62 94.3633C1180.87 94.3633 1177.89 95.6237 1175.69 98.1445C1173.51 100.637 1172.34 104.074 1172.16 108.457H1197.26ZM1215.13 89.5078H1222.87V109.875C1223.73 109.875 1224.5 109.76 1225.19 109.531C1225.88 109.302 1226.59 108.829 1227.34 108.113C1228.08 107.368 1228.93 106.337 1229.87 105.02C1230.82 103.702 1234.08 98.5312 1239.67 89.5078H1247.75L1238.46 103.473C1235.8 107.368 1233.97 109.732 1232.96 110.562L1248.13 136H1239.54L1227.59 114.645C1227.05 114.874 1226.3 115.074 1225.36 115.246C1224.44 115.418 1223.61 115.504 1222.87 115.504V136H1215.13V89.5078ZM1250.24 89.5078H1287.54V95.1367H1272.75V136H1265.02V95.1367H1250.24V89.5078ZM1334.29 112.539C1334.29 128.753 1328.58 136.859 1317.18 136.859C1310.02 136.859 1305.21 134.167 1302.75 128.781H1302.53C1302.65 129.01 1302.7 131.445 1302.7 136.086V154.262H1294.97V99.0039C1294.97 94.2201 1294.88 91.0547 1294.71 89.5078H1302.19C1302.22 89.6224 1302.26 90.0378 1302.32 90.7539C1302.37 91.4414 1302.43 92.5156 1302.49 93.9766C1302.57 95.4375 1302.62 96.4401 1302.62 96.9844H1302.79C1304.16 94.1198 1305.98 92.0286 1308.25 90.7109C1310.51 89.3646 1313.49 88.6914 1317.18 88.6914C1322.91 88.6914 1327.2 90.6107 1330.03 94.4492C1332.87 98.2878 1334.29 104.318 1334.29 112.539ZM1326.16 112.711C1326.16 106.237 1325.29 101.611 1323.54 98.832C1321.8 96.0534 1319.02 94.6641 1315.21 94.6641C1312.14 94.6641 1309.74 95.3086 1307.99 96.5977C1306.27 97.8867 1304.95 99.9062 1304.04 102.656C1303.15 105.378 1302.7 108.93 1302.7 113.312C1302.7 119.414 1303.68 123.911 1305.62 126.805C1307.57 129.698 1310.74 131.145 1315.12 131.145C1318.96 131.145 1321.75 129.741 1323.5 126.934C1325.28 124.098 1326.16 119.357 1326.16 112.711ZM1383.27 112.711C1383.27 120.846 1381.48 126.905 1377.9 130.887C1374.32 134.868 1369.12 136.859 1362.3 136.859C1355.51 136.859 1350.38 134.797 1346.92 130.672C1343.45 126.518 1341.72 120.531 1341.72 112.711C1341.72 96.6693 1348.67 88.6484 1362.56 88.6484C1369.66 88.6484 1374.89 90.6107 1378.24 94.5352C1381.59 98.431 1383.27 104.49 1383.27 112.711ZM1375.15 112.711C1375.15 106.294 1374.19 101.639 1372.27 98.7461C1370.38 95.8242 1367.18 94.3633 1362.69 94.3633C1358.16 94.3633 1354.88 95.8529 1352.85 98.832C1350.84 101.783 1349.84 106.409 1349.84 112.711C1349.84 118.841 1350.83 123.453 1352.8 126.547C1354.81 129.612 1357.95 131.145 1362.21 131.145C1366.86 131.145 1370.16 129.655 1372.14 126.676C1374.15 123.697 1375.15 119.042 1375.15 112.711ZM1400.84 89.5078V109.188H1421.77V89.5078H1429.5V136H1421.77V114.816H1400.84V136H1393.11V89.5078H1400.84ZM1449.23 89.5078V114.945L1448.8 126.848L1470.24 89.5078H1478.7V136H1471.31V107.641C1471.31 106.609 1471.36 105.048 1471.44 102.957C1471.56 100.866 1471.66 99.3763 1471.74 98.4883L1450 136H1441.75V89.5078H1449.23ZM1490.73 89.5078H1498.47V109.875C1499.33 109.875 1500.1 109.76 1500.79 109.531C1501.48 109.302 1502.19 108.829 1502.94 108.113C1503.68 107.368 1504.53 106.337 1505.47 105.02C1506.42 103.702 1509.68 98.5312 1515.27 89.5078H1523.35L1514.07 103.473C1511.4 107.368 1509.57 109.732 1508.57 110.562L1523.73 136H1515.14L1503.2 114.645C1502.65 114.874 1501.91 115.074 1500.96 115.246C1500.04 115.418 1499.21 115.504 1498.47 115.504V136H1490.73V89.5078ZM1543.07 136.859C1538.4 136.859 1534.89 135.628 1532.54 133.164C1530.19 130.701 1529.02 127.32 1529.02 123.023C1529.02 118.211 1530.6 114.516 1533.75 111.938C1536.93 109.359 1542.04 107.984 1549.09 107.812L1559.53 107.641V105.105C1559.53 101.324 1558.73 98.6172 1557.12 96.9844C1555.52 95.3516 1553 94.5352 1549.56 94.5352C1546.09 94.5352 1543.57 95.1224 1542 96.2969C1540.42 97.4714 1539.48 99.3477 1539.16 101.926L1531.08 101.195C1532.4 92.8307 1538.62 88.6484 1549.73 88.6484C1555.57 88.6484 1559.97 89.9948 1562.92 92.6875C1565.87 95.3516 1567.35 99.2188 1567.35 104.289V124.312C1567.35 126.604 1567.65 128.337 1568.25 129.512C1568.85 130.658 1570 131.23 1571.69 131.23C1572.43 131.23 1573.28 131.13 1574.22 130.93V135.742C1572.27 136.201 1570.28 136.43 1568.25 136.43C1565.39 136.43 1563.29 135.685 1561.98 134.195C1560.69 132.677 1559.96 130.314 1559.79 127.105H1559.53C1557.55 130.658 1555.24 133.178 1552.61 134.668C1550 136.129 1546.82 136.859 1543.07 136.859ZM1544.83 131.059C1547.67 131.059 1550.19 130.414 1552.39 129.125C1554.6 127.836 1556.33 126.074 1557.59 123.84C1558.88 121.577 1559.53 119.257 1559.53 116.879V113.055L1551.06 113.227C1547.42 113.284 1544.66 113.656 1542.77 114.344C1540.91 115.031 1539.48 116.091 1538.47 117.523C1537.47 118.956 1536.97 120.832 1536.97 123.152C1536.97 125.673 1537.64 127.621 1538.99 128.996C1540.36 130.371 1542.31 131.059 1544.83 131.059ZM1590.81 126.59V133.809C1590.81 136.845 1590.54 139.38 1589.99 141.414C1589.45 143.448 1588.6 145.396 1587.46 147.258H1582.17C1584.86 143.362 1586.21 139.609 1586.21 136H1582.43V126.59H1590.81ZM583.578 209.508V234.945L583.148 246.848L604.59 209.508H613.055V256H605.664V227.641C605.664 226.609 605.707 225.048 605.793 222.957C605.908 220.866 606.008 219.376 606.094 218.488L584.352 256H576.102V209.508H583.578ZM632.992 209.508V229.188H653.918V209.508H661.652V256H653.918V234.816H632.992V256H625.258V209.508H632.992ZM736.461 232.539C736.461 240.674 735.129 246.762 732.465 250.801C729.829 254.84 725.934 256.859 720.777 256.859C714.303 256.859 709.935 254.167 707.672 248.781H707.414C707.557 251.273 707.629 253.708 707.629 256.086V274.262H700.324V256.086C700.324 252.964 700.396 250.443 700.539 248.523H700.324C699.007 251.503 697.273 253.637 695.125 254.926C693.005 256.215 690.355 256.859 687.176 256.859C681.848 256.859 677.895 254.897 675.316 250.973C672.767 247.02 671.492 241.018 671.492 232.969C671.492 216.755 676.72 208.648 687.176 208.648C690.384 208.648 693.048 209.293 695.168 210.582C697.316 211.871 699.035 213.919 700.324 216.727H700.539L700.324 210.238V192.234H707.629V210.281L707.5 216.984H707.715C709.033 214.005 710.723 211.885 712.785 210.625C714.848 209.336 717.512 208.691 720.777 208.691C726.02 208.691 729.944 210.654 732.551 214.578C735.158 218.474 736.461 224.461 736.461 232.539ZM679.613 232.711C679.613 239.156 680.387 243.797 681.934 246.633C683.509 249.469 685.987 250.887 689.367 250.887C693.091 250.887 695.827 249.483 697.574 246.676C699.322 243.84 700.238 239.357 700.324 233.227V232.195C700.324 226.151 699.465 221.668 697.746 218.746C696.056 215.824 693.292 214.363 689.453 214.363C685.987 214.363 683.48 215.839 681.934 218.789C680.387 221.74 679.613 226.38 679.613 232.711ZM728.34 232.711C728.34 226.466 727.566 221.897 726.02 219.004C724.501 216.111 722.023 214.664 718.586 214.664C715.893 214.664 713.788 215.323 712.27 216.641C710.751 217.958 709.591 219.978 708.789 222.699C708.016 225.392 707.629 228.93 707.629 233.312V234.301C707.686 240.059 708.589 244.312 710.336 247.062C712.083 249.784 714.805 251.145 718.5 251.145C721.909 251.145 724.401 249.684 725.977 246.762C727.552 243.811 728.34 239.128 728.34 232.711ZM785.488 232.711C785.488 240.846 783.698 246.905 780.117 250.887C776.536 254.868 771.337 256.859 764.52 256.859C757.73 256.859 752.603 254.797 749.137 250.672C745.671 246.518 743.938 240.531 743.938 232.711C743.938 216.669 750.884 208.648 764.777 208.648C771.882 208.648 777.109 210.611 780.461 214.535C783.812 218.431 785.488 224.49 785.488 232.711ZM777.367 232.711C777.367 226.294 776.408 221.639 774.488 218.746C772.598 215.824 769.404 214.363 764.906 214.363C760.38 214.363 757.1 215.853 755.066 218.832C753.061 221.783 752.059 226.409 752.059 232.711C752.059 238.841 753.047 243.453 755.023 246.547C757.029 249.612 760.165 251.145 764.434 251.145C769.074 251.145 772.383 249.655 774.359 246.676C776.365 243.697 777.367 239.042 777.367 232.711ZM795.156 209.508H802.891V229.875C803.75 229.875 804.523 229.76 805.211 229.531C805.898 229.302 806.615 228.829 807.359 228.113C808.104 227.368 808.949 226.337 809.895 225.02C810.84 223.702 814.105 218.531 819.691 209.508H827.77L818.488 223.473C815.824 227.368 813.991 229.732 812.988 230.562L828.156 256H819.562L807.617 234.645C807.073 234.874 806.328 235.074 805.383 235.246C804.466 235.418 803.635 235.504 802.891 235.504V256H795.156V209.508ZM874.004 232.711C874.004 240.846 872.214 246.905 868.633 250.887C865.052 254.868 859.853 256.859 853.035 256.859C846.246 256.859 841.118 254.797 837.652 250.672C834.186 246.518 832.453 240.531 832.453 232.711C832.453 216.669 839.4 208.648 853.293 208.648C860.397 208.648 865.625 210.611 868.977 214.535C872.328 218.431 874.004 224.49 874.004 232.711ZM865.883 232.711C865.883 226.294 864.923 221.639 863.004 218.746C861.113 215.824 857.919 214.363 853.422 214.363C848.896 214.363 845.616 215.853 843.582 218.832C841.577 221.783 840.574 226.409 840.574 232.711C840.574 238.841 841.562 243.453 843.539 246.547C845.544 249.612 848.681 251.145 852.949 251.145C857.59 251.145 860.898 249.655 862.875 246.676C864.88 243.697 865.883 239.042 865.883 232.711ZM911.559 256H904.984L891.062 215.137C891.234 219.605 891.32 222.857 891.32 224.891V256H883.844V209.508H895.875L905.328 237.91C906.818 242.007 907.792 246.103 908.25 250.199C908.88 245.587 909.854 241.491 911.172 237.91L920.625 209.508H932.184V256H924.75V224.891L924.879 219.992L925.094 215.051L911.559 256ZM972.059 256H965.484L951.562 215.137C951.734 219.605 951.82 222.857 951.82 224.891V256H944.344V209.508H956.375L965.828 237.91C967.318 242.007 968.292 246.103 968.75 250.199C969.38 245.587 970.354 241.491 971.672 237.91L981.125 209.508H992.684V256H985.25V224.891L985.379 219.992L985.594 215.051L972.059 256ZM1007.98 274.262C1005.86 274.262 1004.08 274.104 1002.65 273.789V267.988C1003.74 268.16 1004.94 268.246 1006.26 268.246C1011.07 268.246 1014.88 264.708 1017.69 257.633L1018.42 255.785L999.988 209.508H1008.24L1018.04 235.203C1018.18 235.604 1018.35 236.091 1018.55 236.664C1018.75 237.208 1019.4 239.07 1020.48 242.25C1021.57 245.43 1022.16 247.206 1022.25 247.578L1025.25 239.113L1035.44 209.508H1043.6L1025.73 256C1023.81 260.956 1022.02 264.637 1020.36 267.043C1018.69 269.478 1016.85 271.283 1014.81 272.457C1012.81 273.66 1010.53 274.262 1007.98 274.262ZM1057.61 209.508V229.188H1078.54V209.508H1086.27V256H1078.54V234.816H1057.61V256H1049.88V209.508H1057.61ZM1105.99 209.508V234.945L1105.56 246.848L1127 209.508H1135.47V256H1128.08V227.641C1128.08 226.609 1128.12 225.048 1128.21 222.957C1128.32 220.866 1128.42 219.376 1128.51 218.488L1106.77 256H1098.52V209.508H1105.99ZM1147.5 209.508H1155.23V229.875C1156.09 229.875 1156.87 229.76 1157.55 229.531C1158.24 229.302 1158.96 228.829 1159.7 228.113C1160.45 227.368 1161.29 226.337 1162.24 225.02C1163.18 223.702 1166.45 218.531 1172.04 209.508H1180.11L1170.83 223.473C1168.17 227.368 1166.33 229.732 1165.33 230.562L1180.5 256H1171.91L1159.96 234.645C1159.42 234.874 1158.67 235.074 1157.73 235.246C1156.81 235.418 1155.98 235.504 1155.23 235.504V256H1147.5V209.508ZM1199.84 256.859C1195.17 256.859 1191.66 255.628 1189.31 253.164C1186.96 250.701 1185.79 247.32 1185.79 243.023C1185.79 238.211 1187.36 234.516 1190.51 231.938C1193.69 229.359 1198.8 227.984 1205.85 227.812L1216.29 227.641V225.105C1216.29 221.324 1215.49 218.617 1213.89 216.984C1212.28 215.352 1209.76 214.535 1206.32 214.535C1202.86 214.535 1200.34 215.122 1198.76 216.297C1197.19 217.471 1196.24 219.348 1195.93 221.926L1187.85 221.195C1189.17 212.831 1195.38 208.648 1206.5 208.648C1212.34 208.648 1216.74 209.995 1219.69 212.688C1222.64 215.352 1224.11 219.219 1224.11 224.289V244.312C1224.11 246.604 1224.41 248.337 1225.02 249.512C1225.62 250.658 1226.76 251.23 1228.45 251.23C1229.2 251.23 1230.04 251.13 1230.99 250.93V255.742C1229.04 256.201 1227.05 256.43 1225.02 256.43C1222.15 256.43 1220.06 255.685 1218.74 254.195C1217.45 252.677 1216.72 250.314 1216.55 247.105H1216.29C1214.32 250.658 1212.01 253.178 1209.38 254.668C1206.77 256.129 1203.59 256.859 1199.84 256.859ZM1201.6 251.059C1204.43 251.059 1206.95 250.414 1209.16 249.125C1211.37 247.836 1213.1 246.074 1214.36 243.84C1215.65 241.577 1216.29 239.257 1216.29 236.879V233.055L1207.83 233.227C1204.19 233.284 1201.43 233.656 1199.54 234.344C1197.67 235.031 1196.24 236.091 1195.24 237.523C1194.24 238.956 1193.73 240.832 1193.73 243.152C1193.73 245.673 1194.41 247.621 1195.75 248.996C1197.13 250.371 1199.08 251.059 1201.6 251.059ZM1244.87 209.508V250.371H1265.36V209.508H1273.1V250.371H1279.41V273.531H1272.41V256H1237.13V209.508H1244.87ZM1295.05 209.508V234.945L1294.62 246.848L1316.07 209.508H1324.53V256H1317.14V227.641C1317.14 226.609 1317.18 225.048 1317.27 222.957C1317.38 220.866 1317.48 219.376 1317.57 218.488L1295.83 256H1287.58V209.508H1295.05ZM1344.21 209.508V234.945L1343.78 246.848L1365.22 209.508H1373.69V256H1366.3V227.641C1366.3 226.609 1366.34 225.048 1366.43 222.957C1366.54 220.866 1366.64 219.376 1366.73 218.488L1344.98 256H1336.73V209.508H1344.21ZM583.578 329.508V354.945L583.148 366.848L604.59 329.508H613.055V376H605.664V347.641C605.664 346.609 605.707 345.048 605.793 342.957C605.908 340.866 606.008 339.376 606.094 338.488L584.352 376H576.102V329.508H583.578ZM688.895 352.539C688.895 368.753 683.194 376.859 671.793 376.859C664.632 376.859 659.819 374.167 657.355 368.781H657.141C657.255 369.01 657.312 371.445 657.312 376.086V394.262H649.578V339.004C649.578 334.22 649.492 331.055 649.32 329.508H656.797C656.826 329.622 656.868 330.038 656.926 330.754C656.983 331.441 657.04 332.516 657.098 333.977C657.184 335.438 657.227 336.44 657.227 336.984H657.398C658.773 334.12 660.592 332.029 662.855 330.711C665.118 329.365 668.098 328.691 671.793 328.691C677.522 328.691 681.805 330.611 684.641 334.449C687.477 338.288 688.895 344.318 688.895 352.539ZM680.773 352.711C680.773 346.237 679.9 341.611 678.152 338.832C676.405 336.053 673.626 334.664 669.816 334.664C666.751 334.664 664.345 335.309 662.598 336.598C660.879 337.887 659.561 339.906 658.645 342.656C657.757 345.378 657.312 348.93 657.312 353.312C657.312 359.414 658.286 363.911 660.234 366.805C662.182 369.698 665.348 371.145 669.73 371.145C673.569 371.145 676.362 369.741 678.109 366.934C679.885 364.098 680.773 359.357 680.773 352.711ZM710.422 376.859C705.753 376.859 702.243 375.628 699.895 373.164C697.546 370.701 696.371 367.32 696.371 363.023C696.371 358.211 697.947 354.516 701.098 351.938C704.277 349.359 709.391 347.984 716.438 347.812L726.879 347.641V345.105C726.879 341.324 726.077 338.617 724.473 336.984C722.868 335.352 720.348 334.535 716.91 334.535C713.444 334.535 710.923 335.122 709.348 336.297C707.772 337.471 706.827 339.348 706.512 341.926L698.434 341.195C699.751 332.831 705.967 328.648 717.082 328.648C722.926 328.648 727.323 329.995 730.273 332.688C733.224 335.352 734.699 339.219 734.699 344.289V364.312C734.699 366.604 735 368.337 735.602 369.512C736.203 370.658 737.349 371.23 739.039 371.23C739.784 371.23 740.629 371.13 741.574 370.93V375.742C739.626 376.201 737.635 376.43 735.602 376.43C732.737 376.43 730.646 375.685 729.328 374.195C728.039 372.677 727.309 370.314 727.137 367.105H726.879C724.902 370.658 722.596 373.178 719.961 374.668C717.354 376.129 714.174 376.859 710.422 376.859ZM712.184 371.059C715.02 371.059 717.54 370.414 719.746 369.125C721.952 367.836 723.685 366.074 724.945 363.84C726.234 361.577 726.879 359.257 726.879 356.879V353.055L718.414 353.227C714.776 353.284 712.012 353.656 710.121 354.344C708.259 355.031 706.827 356.091 705.824 357.523C704.822 358.956 704.32 360.832 704.32 363.152C704.32 365.673 704.993 367.621 706.34 368.996C707.715 370.371 709.663 371.059 712.184 371.059ZM777.453 335.137H764.305C763.245 342.928 762.07 349.717 760.781 355.504C759.492 361.262 757.931 366.217 756.098 370.371H777.453V335.137ZM791.461 393.531H784.457V376H749.48V393.531H742.477V370.371H747.59C749.738 366.79 751.6 361.706 753.176 355.117C754.751 348.529 756.198 339.992 757.516 329.508H785.188V370.371H791.461V393.531ZM806.586 329.508V354.945L806.156 366.848L827.598 329.508H836.062V376H828.672V347.641C828.672 346.609 828.715 345.048 828.801 342.957C828.915 340.866 829.016 339.376 829.102 338.488L807.359 376H799.109V329.508H806.586ZM887.41 352.711C887.41 360.846 885.62 366.905 882.039 370.887C878.458 374.868 873.259 376.859 866.441 376.859C859.652 376.859 854.525 374.797 851.059 370.672C847.592 366.518 845.859 360.531 845.859 352.711C845.859 336.669 852.806 328.648 866.699 328.648C873.803 328.648 879.031 330.611 882.383 334.535C885.734 338.431 887.41 344.49 887.41 352.711ZM879.289 352.711C879.289 346.294 878.329 341.639 876.41 338.746C874.52 335.824 871.326 334.363 866.828 334.363C862.302 334.363 859.022 335.853 856.988 338.832C854.983 341.783 853.98 346.409 853.98 352.711C853.98 358.841 854.969 363.453 856.945 366.547C858.951 369.612 862.087 371.145 866.355 371.145C870.996 371.145 874.305 369.655 876.281 366.676C878.286 363.697 879.289 359.042 879.289 352.711ZM902.965 352.539C902.965 358.727 903.939 363.31 905.887 366.289C907.835 369.268 910.771 370.758 914.695 370.758C917.445 370.758 919.737 370.013 921.57 368.523C923.432 367.034 924.578 364.742 925.008 361.648L932.828 362.164C932.227 366.633 930.322 370.199 927.113 372.863C923.905 375.527 919.837 376.859 914.91 376.859C908.408 376.859 903.438 374.811 900 370.715C896.591 366.59 894.887 360.589 894.887 352.711C894.887 344.891 896.605 338.932 900.043 334.836C903.48 330.711 908.408 328.648 914.824 328.648C919.579 328.648 923.518 329.88 926.641 332.344C929.792 334.807 931.768 338.202 932.57 342.527L924.621 343.129C924.22 340.551 923.203 338.503 921.57 336.984C919.938 335.466 917.617 334.707 914.609 334.707C910.513 334.707 907.548 336.068 905.715 338.789C903.882 341.51 902.965 346.094 902.965 352.539ZM959.383 329.508C965.112 329.508 969.409 330.51 972.273 332.516C975.138 334.521 976.57 337.4 976.57 341.152C976.57 343.816 975.754 346.036 974.121 347.812C972.488 349.589 970.111 350.777 966.988 351.379V351.68C970.684 352.167 973.448 353.341 975.281 355.203C977.143 357.065 978.074 359.529 978.074 362.594C978.074 366.805 976.499 370.099 973.348 372.477C970.225 374.826 965.9 376 960.371 376H941.25V329.508H959.383ZM948.984 370.285H959.125C963.078 370.285 965.857 369.684 967.461 368.48C969.065 367.249 969.867 365.301 969.867 362.637C969.867 359.743 969.008 357.71 967.289 356.535C965.599 355.332 962.706 354.73 958.609 354.73H948.984V370.285ZM948.984 335.395V349.145H958.266C961.932 349.145 964.539 348.629 966.086 347.598C967.661 346.566 968.449 344.762 968.449 342.184C968.449 339.835 967.719 338.116 966.258 337.027C964.797 335.939 962.333 335.395 958.867 335.395H948.984ZM1003.94 356.32L990.406 376H981.684L996.465 355.762C989.332 354.301 985.766 349.832 985.766 342.355C985.766 338.087 987.312 334.879 990.406 332.73C993.5 330.582 998.012 329.508 1003.94 329.508H1022.5V376H1014.77V356.32H1003.94ZM1014.77 334.965H1004.71C1000.99 334.965 998.27 335.624 996.551 336.941C994.832 338.259 993.973 340.25 993.973 342.914C993.973 345.607 994.732 347.626 996.25 348.973C997.797 350.29 1000.35 350.949 1003.9 350.949H1014.77V334.965ZM1048.33 376.859C1043.54 376.859 1039.73 375.971 1036.9 374.195C1034.09 372.391 1032.04 369.641 1030.75 365.945L1037.59 364.055C1039.1 368.753 1042.74 371.102 1048.5 371.102C1051.25 371.102 1053.43 370.428 1055.03 369.082C1056.66 367.736 1057.48 365.759 1057.48 363.152C1057.48 357.423 1052.74 354.559 1043.26 354.559V348.672C1047.87 348.672 1051.26 348.07 1053.44 346.867C1055.62 345.664 1056.71 343.802 1056.71 341.281C1056.71 339.161 1055.99 337.486 1054.56 336.254C1053.15 335.022 1051.12 334.406 1048.46 334.406C1045.91 334.406 1043.82 334.936 1042.18 335.996C1040.58 337.056 1039.61 338.589 1039.26 340.594L1032.3 339.734C1033.62 332.344 1039.02 328.648 1048.5 328.648C1053.31 328.648 1057.19 329.794 1060.14 332.086C1063.1 334.349 1064.57 337.285 1064.57 340.895C1064.57 343.788 1063.52 346.208 1061.43 348.156C1059.37 350.104 1056.86 351.207 1053.91 351.465V351.551C1057.38 351.923 1060.2 353.141 1062.38 355.203C1064.58 357.237 1065.69 359.815 1065.69 362.938C1065.69 367.292 1064.14 370.701 1061.05 373.164C1057.98 375.628 1053.74 376.859 1048.33 376.859ZM1093.45 349.188C1099.32 349.188 1103.76 350.247 1106.77 352.367C1109.77 354.458 1111.28 357.781 1111.28 362.336C1111.28 366.747 1109.73 370.128 1106.64 372.477C1103.54 374.826 1099.16 376 1093.49 376H1075.14V329.508H1082.88V349.188H1093.45ZM1082.88 370.543H1092.33C1096.05 370.543 1098.77 369.884 1100.49 368.566C1102.21 367.249 1103.07 365.172 1103.07 362.336C1103.07 359.643 1102.24 357.681 1100.58 356.449C1098.92 355.189 1096.18 354.559 1092.37 354.559H1082.88V370.543Z" fill="#071D49"/>
</svg>
