<svg width="276" height="276" viewBox="0 0 276 276" fill="none" xmlns="http://www.w3.org/2000/svg">
<path d="M237.262 150.212H75.4798V153.157H237.262V150.212Z" fill="black"/>
<path d="M237.262 123.946H75.4798V126.891H237.262V123.946Z" fill="black"/>
<path fill-rule="evenodd" clip-rule="evenodd" d="M119.607 130.377V133.62H125.552V147.401H129.471V133.62H135.172V130.377H119.607Z" fill="black"/>
<path fill-rule="evenodd" clip-rule="evenodd" d="M190.568 137.511C190.244 138.024 189.433 138.322 188.19 138.322H184.596V133.295H187.703C188.838 133.295 189.757 133.512 190.244 133.89C190.811 134.268 191.054 134.863 191.054 135.7C191.081 136.376 190.892 136.97 190.568 137.511ZM194.27 132.917C193.784 132.161 193.135 131.485 192.298 131.053C191.405 130.593 190.406 130.377 189.19 130.377H180.759V147.401H184.596V141.24H189.027C190.595 141.24 191.73 140.943 192.621 140.267C193.513 139.673 194.081 138.916 194.432 138.078C194.757 137.268 194.918 136.511 194.918 135.836C194.918 134.728 194.757 133.755 194.27 132.917ZM234.993 141.105C234.749 142.375 234.263 143.429 233.614 144.402C232.966 145.374 232.047 146.05 230.912 146.563C229.858 147.104 228.534 147.401 226.994 147.401C225.345 147.401 223.886 147.023 222.562 146.347C221.346 145.672 220.346 144.699 219.617 143.348C218.887 141.997 218.563 140.348 218.563 138.484C218.563 136.538 218.887 134.971 219.617 133.62C220.346 132.269 221.427 131.215 222.724 130.539C223.94 129.864 225.427 129.485 227.075 129.485C228.372 129.485 229.534 129.701 230.507 130.08C231.561 130.458 232.399 130.918 232.966 131.512C233.614 132.106 234.1 132.782 234.425 133.458C234.749 134.133 234.993 134.809 234.993 135.565H231.155C230.912 134.755 230.507 133.998 230.02 133.458C229.453 132.863 228.453 132.566 227.075 132.566C225.859 132.566 224.778 133.025 223.886 133.998C222.995 134.89 222.481 136.403 222.481 138.484C222.481 139.619 222.644 140.591 222.968 141.402C223.292 142.294 223.778 142.969 224.454 143.51C225.183 144.023 226.021 144.348 227.075 144.348C227.805 144.348 228.453 144.185 228.966 143.969C229.534 143.753 230.02 143.375 230.426 142.834C230.75 142.375 230.993 141.78 231.155 141.105H234.993ZM210.97 141.321C210.645 142.078 210.24 142.672 209.754 143.132C209.267 143.591 208.781 143.888 208.186 144.104C207.619 144.267 206.971 144.402 206.376 144.402C205.808 144.402 205.241 144.239 204.647 144.104C204.079 143.888 203.593 143.591 202.998 143.132C202.512 142.672 202.106 142.078 201.864 141.321C201.539 140.483 201.376 139.592 201.376 138.484C201.376 137.349 201.539 136.376 201.864 135.565C202.106 134.809 202.512 134.214 202.998 133.782C203.565 133.322 204.052 133.025 204.647 132.809C205.214 132.647 205.782 132.512 206.376 132.512C206.943 132.512 207.592 132.674 208.186 132.809C208.754 133.025 209.24 133.322 209.754 133.782C210.24 134.241 210.645 134.836 210.97 135.565C211.294 136.403 211.456 137.376 211.456 138.484C211.483 139.592 211.321 140.51 210.97 141.321ZM214.348 133.836C213.78 132.647 212.969 131.728 211.97 131.053C210.996 130.458 209.997 130.08 209.105 129.864C208.132 129.647 207.213 129.485 206.403 129.485C205.592 129.485 204.754 129.647 203.782 129.864C202.809 130.08 201.89 130.458 200.917 131.134C199.945 131.728 199.107 132.62 198.458 133.836C197.891 135.025 197.567 136.619 197.567 138.484C197.567 140.294 197.891 141.861 198.458 143.05C199.107 144.239 199.945 145.158 200.917 145.753C201.89 146.428 202.89 146.807 203.782 147.023C204.754 147.239 205.673 147.401 206.403 147.401C207.213 147.401 208.132 147.239 209.105 147.023C209.997 146.807 210.996 146.428 211.97 145.834C212.943 145.158 213.78 144.267 214.348 143.05C214.996 141.861 215.32 140.267 215.32 138.484C215.32 136.592 214.996 135.025 214.348 133.836ZM177.408 130.377H172.193L166.951 136.079L161.708 130.377H156.493L164.357 138.889L156.493 147.401H161.708L166.951 141.699L172.193 147.401H177.408L169.545 138.889L177.408 130.377ZM152.872 130.377H139.469V147.428H152.872V143.915H143.414V140.672H150.116V137.16H143.414V133.917H152.872V130.377Z" fill="black"/>
<path fill-rule="evenodd" clip-rule="evenodd" d="M111.824 130.377V136.457H103.934V130.377H100.07V147.428H103.934V140.7H111.824V147.428H115.689V130.377H111.824ZM77.6686 130.377V147.428H81.5328L91.6121 135.079V147.428H95.4493V130.377H91.6121L81.5328 142.807V130.377H77.6686Z" fill="black"/>
<path d="M55.9967 123.297C55.9967 123.297 61.7524 127.621 61.4011 136.322C61.0498 145.023 61.5902 136.322 61.5902 136.322L60.9688 139.646C60.9688 139.646 57.9963 144.429 53.2945 147.617C48.5925 150.806 45.2418 152.265 39.4861 151.59L39.2699 151.941C39.2699 151.941 47.3766 155.21 54.9428 150.455L56.1588 149.59C56.1588 149.59 61.5092 144.942 62.3198 139.997L62.7252 137.106C62.7252 137.106 63.9412 129.566 56.375 123.054L56.3209 123.027L55.9967 123.297Z" fill="#DD2B1C"/>
<path d="M70.3729 151.354C70.3729 151.354 63.7686 154.211 56.2747 149.699C48.7809 145.187 56.1939 149.859 56.1939 149.859L53.5791 147.696C53.5791 147.696 50.8026 142.811 50.2905 137.204C49.7783 131.597 50.1287 127.993 53.4982 123.347L53.2826 123C53.2826 123 46.4626 128.393 47.0018 137.257L47.1635 138.726C47.1635 138.726 48.6731 145.587 52.6356 148.711L54.9809 150.447C54.9809 150.447 61.046 155.145 70.4268 151.781L70.4807 151.755L70.3729 151.354Z" fill="#DD2B1C"/>
<path d="M38.4324 149.536C38.4324 149.536 39.3781 142.375 47.1876 138.321C54.997 134.268 47.1065 138.159 47.1065 138.159L50.3221 137.051C50.3221 137.051 55.9968 137.214 61.1311 139.727C66.2653 142.24 69.1837 144.401 71.4536 149.752H71.8589C71.8589 149.752 70.724 141.078 62.7794 136.889L61.4012 136.241C61.4012 136.241 54.6728 133.944 49.9168 135.7L47.1876 136.808C47.1876 136.808 39.9726 139.537 38 149.347V149.401L38.4324 149.536Z" fill="#DD2B1C"/>
</svg>
