<svg width="276" height="276" viewBox="0 0 276 276" fill="none" xmlns="http://www.w3.org/2000/svg">
<path d="M138 63C179.421 63 213 96.5786 213 138C213 179.421 179.421 213 138 213C96.5786 213 63 179.421 63 138C63 96.5786 96.5786 63 138 63ZM138 77.7061C104.7 77.7061 77.7061 104.7 77.7061 138C77.7061 171.299 104.701 198.294 138 198.294C171.299 198.294 198.294 171.299 198.294 138C198.294 104.701 171.299 77.7061 138 77.7061Z" fill="#003D5E"/>
<circle cx="138" cy="138" r="60.2941" fill="#0098C1"/>
<path d="M138 86.5293C160.059 86.5293 173.253 101.169 180.647 113C181.663 114.626 182.529 116.619 183.249 118.882H198.294C201.543 118.882 204.176 121.516 204.176 124.765C204.176 128.013 201.543 130.647 198.294 130.647H185.395C186.408 144.224 183.414 160.742 174.765 170.353C161.529 185.059 145.353 186.529 135.059 186.529C124.765 186.529 114.47 183.588 108.588 177.706C101.018 170.135 99.7647 160.24 99.7646 154.176C99.7646 145.353 108.004 136.529 117.412 136.529C126.819 136.529 132.118 142.147 132.118 145.353C132.118 142.412 136.529 136.529 143.882 136.529C152.12 136.529 155.647 139.961 157.118 140.941C158.588 141.921 161.529 145.353 161.529 149.765V160.059C161.529 163 160.059 164.47 157.118 164.47C155.647 164.47 152.706 163 152.706 160.059V152.706C152.706 146.082 145.353 145.353 143.882 145.353C139.47 145.353 138 146.823 136.529 148.294C134.866 149.958 135.059 152.706 135.059 157.118C135.059 161.529 134.112 164.47 130.647 164.47C127.706 164.47 126.235 161.768 126.235 157.118C126.235 152.706 126.235 149.765 124.765 148.294C122.804 146.333 120.353 145.353 117.412 145.353C114.781 145.353 113.837 144.833 111.529 148.294C109.222 151.755 108.588 154.176 110.059 163C110.726 167.006 115.12 170.852 118.882 173.294C123.324 176.176 129.293 177.434 135.059 177.706C139.47 177.914 148.461 175.689 151.235 174.765C153.84 173.896 160.059 171.823 164.47 167.412C165.747 166.135 169.062 161.995 170.353 160.059C171.643 158.123 173.294 155.647 174.765 149.765C176.23 143.903 176.398 136.869 175.514 130.647H115.941C112.692 130.647 110.059 128.013 110.059 124.765C110.059 121.516 112.692 118.882 115.941 118.882H172.022C170.047 114.703 167.838 111.955 163 107.118C158.626 102.744 154.176 99.7646 146.823 98.294C141.001 97.1295 134.342 96.4335 127.706 98.294C122.013 99.8902 115.941 104.176 110.059 107.118C107.49 108.402 104.84 109.058 102.706 107.118C100.954 105.525 101.235 102.706 102.706 101.235C108.306 95.6353 120.314 86.5293 138 86.5293Z" fill="white"/>
<path d="M93.8823 113C100.38 113 105.647 118.267 105.647 124.765C105.647 131.262 100.38 136.529 93.8823 136.529C87.3848 136.529 82.1176 131.262 82.1176 124.765C82.1176 118.267 87.3848 113 93.8823 113Z" fill="white"/>
</svg>
