<svg width="276" height="276" viewBox="0 0 276 276" fill="none" xmlns="http://www.w3.org/2000/svg">
<path d="M88.9298 142.115H84.1513V137.315H88.9298V142.115ZM109.981 117.569V115.87H103.656V124.226H107.545V129.009H103.371L103.324 129.005C102.791 128.983 102.283 128.901 101.808 128.748C101.302 128.585 100.836 128.341 100.419 128.004C99.9223 127.603 99.5283 127.102 99.2587 126.487C99.003 125.903 98.8653 125.232 98.8653 124.464V115.866H92.8093V117.603H96.1263V122.39H92.8093V129.005H88.0203V123.467L80.8687 129.005H76.6201V122.361H69.1886V117.573H76.6201V115.9H66.8142V130.223C66.8181 130.239 66.8215 130.25 66.8239 130.257C66.8345 130.285 66.841 130.301 66.843 130.305C66.8771 130.373 66.9307 130.444 66.9991 130.513L67.0021 130.516L67.0078 130.522L67.0226 130.537L67.0272 130.541C67.0449 130.558 67.0698 130.579 67.1008 130.604C67.1348 130.631 67.16 130.65 67.1759 130.66C67.2626 130.717 67.3519 130.755 67.4344 130.768H108.22V130.891C108.85 131.011 109.461 131.221 110.038 131.505C110.166 131.569 110.314 131.649 110.478 131.743C111.216 132.168 111.894 132.717 112.479 133.349L112.493 133.358L112.494 133.359L112.491 133.362C112.693 133.581 112.872 133.793 113.028 133.996C113.202 134.225 113.364 134.459 113.512 134.695C114.074 135.598 114.475 136.602 114.654 137.635H114.769V156.768H114.665C114.583 157.271 114.447 157.735 114.261 158.161C114.197 158.309 114.138 158.432 114.087 158.529H114.082C113.754 159.146 113.317 159.668 112.785 160.1C112.546 160.294 112.289 160.467 112.016 160.619C111.743 160.771 111.462 160.9 111.176 161.005C110.887 161.112 110.587 161.199 110.278 161.267L110.278 161.268C110.04 161.32 109.792 161.361 109.535 161.392V161.471H66.2973V161.37C65.8795 161.303 65.4863 161.2 65.1186 161.062C65.0141 161.023 64.8986 160.974 64.7722 160.916C64.1783 160.645 63.6604 160.278 63.2213 159.822C62.8786 159.467 62.5899 159.06 62.3561 158.604C62.1285 158.161 61.9586 157.682 61.848 157.17C61.8311 157.092 61.809 156.975 61.7838 156.819L61.7763 156.769H61.6804V139.717H61.685V137.323H78.555V137.511C78.7366 137.568 78.9111 137.638 79.0785 137.719H79.0832C79.15 137.752 79.2318 137.796 79.3282 137.852C79.7368 138.088 80.0948 138.394 80.3944 138.752C80.5589 138.949 80.7048 139.161 80.8303 139.384C80.9501 139.597 81.0551 139.831 81.1433 140.082C81.1806 140.188 81.2141 140.295 81.2435 140.404H81.408V145.947H81.1935C81.1829 145.976 81.1716 146.005 81.1601 146.035C81.108 146.168 81.0475 146.298 80.98 146.423C80.7265 146.894 80.3751 147.299 79.9626 147.622C79.8387 147.719 79.6969 147.816 79.5395 147.911C79.3879 148.002 79.2388 148.08 79.0943 148.145C78.9333 148.218 78.7746 148.279 78.6201 148.328L78.5562 148.347V148.532H76.6584L78.8849 150.286H84.1466V143.714H88.9345V150.281H91.4281V137.332L107.365 137.332L107.365 142.107H96.2114V143.489H103.543V148.278H96.216V155.065H93.8226V155.07H77.2341L76.5785 154.552L76.5762 154.555L70.2316 149.556V149.551L69.3157 148.828V143.744H76.6201V142.107H66.4679V155.823C66.4748 155.921 66.4858 156.012 66.5011 156.097C66.5074 156.132 66.5164 156.172 66.5278 156.216V156.22C66.5597 156.344 66.5997 156.436 66.6469 156.494L66.6481 156.493L66.6491 156.494L66.6631 156.512L66.6806 156.531H66.6853C66.7008 156.542 66.714 156.551 66.724 156.557C66.848 156.626 67.0376 156.669 67.2933 156.683H108.628C108.667 156.68 108.709 156.678 108.751 156.675C108.857 156.667 108.945 156.658 109.014 156.648C109.077 156.64 109.152 156.626 109.238 156.607H109.243C109.48 156.556 109.66 156.487 109.77 156.398L109.769 156.396L109.77 156.395H109.774C109.791 156.381 109.803 156.371 109.808 156.365C109.812 156.361 109.822 156.346 109.839 156.321C109.918 156.2 109.967 156.007 109.981 155.733V138.644C109.954 138.342 109.864 138.025 109.725 137.71L109.728 137.708C109.704 137.653 109.673 137.59 109.637 137.518C109.469 137.192 109.245 136.875 108.977 136.586L108.963 136.571L108.962 136.571L108.965 136.568C108.887 136.484 108.803 136.402 108.713 136.321C108.631 136.246 108.538 136.17 108.435 136.094C108.026 135.789 107.582 135.591 107.153 135.557H66.2973V135.405C66.1717 135.375 66.0417 135.338 65.9086 135.295C65.7211 135.235 65.5541 135.173 65.4085 135.11C64.7904 134.843 64.2146 134.456 63.7196 133.983L63.7156 133.98L63.7141 133.982L63.7085 133.976L63.6963 133.969L63.6954 133.968L63.6976 133.966C63.5616 133.835 63.4332 133.698 63.3135 133.557C63.1882 133.41 63.0692 133.254 62.9583 133.093C62.6035 132.575 62.3351 131.997 62.1802 131.383H62.0269V111.111H78.5562V111.286C78.6239 111.305 78.687 111.324 78.7456 111.344C78.8388 111.376 78.953 111.421 79.0879 111.481L79.0896 111.477C79.4762 111.649 79.8342 111.884 80.1511 112.174H80.1558C80.3439 112.347 80.518 112.544 80.675 112.762C80.8313 112.98 80.9646 113.212 81.0718 113.457C81.1297 113.589 81.1808 113.727 81.2244 113.869H81.408V122.549L87.7969 117.603H88.0203V115.067C88.0203 114.515 88.1049 114 88.2759 113.524C88.4557 113.022 88.7263 112.584 89.0893 112.211C89.4607 111.829 89.8983 111.543 90.4024 111.353C90.8812 111.172 91.4058 111.082 91.9766 111.082H98.4886C98.3794 110.836 98.2475 110.618 98.0929 110.431L98.0918 110.431L98.073 110.407C98.0173 110.343 97.95 110.275 97.8711 110.205C97.7994 110.141 97.7216 110.081 97.6379 110.024C97.2379 109.755 96.7143 109.586 96.062 109.545H61.7668V104.756H96.9359V104.837C97.7406 104.936 98.4782 105.136 99.1482 105.426C99.316 105.499 99.4762 105.575 99.6283 105.655C100.437 106.078 101.128 106.635 101.701 107.304V107.309L101.703 107.311L101.705 107.309C101.86 107.49 102.009 107.684 102.151 107.889C102.288 108.086 102.417 108.293 102.536 108.508C102.97 109.285 103.276 110.152 103.457 111.082H110.905C111.584 111.082 112.176 111.219 112.693 111.476C113.232 111.743 113.665 112.129 114.006 112.614L114.003 112.616C114.284 113.013 114.478 113.454 114.601 113.93C114.717 114.384 114.769 114.851 114.769 115.328V118.502C114.769 119.13 114.67 119.683 114.467 120.178V120.183C114.249 120.716 113.921 121.151 113.478 121.51C113.079 121.834 112.639 122.051 112.146 122.184C111.703 122.303 111.229 122.353 110.71 122.353V122.348H105.967V117.569H109.981ZM48.2238 156.653C47.3733 155.774 46.5828 154.894 45.8532 154.014L45.851 154.011L45.8463 154.006C45.0344 153.026 44.284 152.032 43.5942 151.025C42.9067 150.021 42.2863 149.013 41.7318 148.001C38.8546 142.755 37.7028 137.379 38.0641 132.004L38.0647 131.995C38.1353 130.949 38.262 129.913 38.4427 128.887C38.623 127.864 38.8602 126.835 39.1526 125.802C40.6352 120.562 43.51 115.422 47.5696 110.507C47.7394 110.301 47.9567 110.044 48.219 109.737C48.4023 109.523 48.6247 109.268 48.8871 108.971C50.0526 107.654 51.2953 106.361 52.6116 105.093L52.9613 104.756L60.1364 104.756L57.7423 106.851L57.7415 106.852C57.4619 107.103 57.1282 107.408 56.7435 107.767C56.3962 108.09 56.0708 108.399 55.7676 108.693C54.1157 110.294 52.6084 111.916 51.2568 113.553L51.25 113.561V113.566C50.5231 114.446 49.855 115.309 49.2477 116.152C48.6447 116.989 48.064 117.86 47.5069 118.765C44.7605 123.227 43.1431 127.784 42.8378 132.322L42.8372 132.331C42.7782 133.212 42.7676 134.086 42.8069 134.951C42.8465 135.823 42.936 136.696 43.0763 137.567C43.8011 142.066 45.8954 146.567 49.54 150.963C49.7772 151.249 50.0288 151.543 50.2928 151.843C50.5766 152.166 50.8421 152.46 51.088 152.724C52.4885 154.229 54.0816 155.724 55.8741 157.205L61.0063 161.443H38.9145V156.653H48.2238ZM127.959 109.543C128.806 110.419 129.593 111.295 130.32 112.172L130.323 112.176L130.327 112.181C131.138 113.159 131.887 114.151 132.575 115.157C133.261 116.159 133.881 117.165 134.434 118.174C137.306 123.41 138.456 128.776 138.095 134.14L138.095 134.148C138.024 135.192 137.898 136.227 137.717 137.251C137.537 138.273 137.3 139.3 137.009 140.331C135.529 145.561 132.66 150.691 128.609 155.597C128.434 155.808 128.212 156.071 127.947 156.38C127.758 156.601 127.532 156.86 127.266 157.16C126.078 158.501 124.81 159.818 123.465 161.107L123.114 161.443H115.939L118.333 159.348L118.334 159.348C118.622 159.09 118.961 158.782 119.349 158.421C119.701 158.095 120.033 157.781 120.347 157.478C122.025 155.858 123.554 154.214 124.925 152.554L124.932 152.545V152.541C125.657 151.662 126.324 150.801 126.93 149.96C127.553 149.095 128.134 148.225 128.672 147.352C131.409 142.906 133.022 138.358 133.328 133.823L133.328 133.814C133.387 132.935 133.397 132.063 133.358 131.2C133.318 130.329 133.229 129.458 133.089 128.589C132.365 124.098 130.275 119.607 126.638 115.22C126.401 114.934 126.15 114.641 125.887 114.341C125.603 114.018 125.338 113.725 125.093 113.462C123.695 111.96 122.106 110.468 120.317 108.99L115.19 104.756H137.246V109.543H127.959Z" fill="black"/>
<path fill-rule="evenodd" clip-rule="evenodd" d="M170.305 114.278H176.658C179.835 114.278 182.146 115.664 182.146 118.61C182.146 121.498 179.893 122.538 175.676 122.538H170.305V114.278ZM170.305 131.664H174.464C180.817 131.664 181.741 133.454 181.741 138.884C181.741 142.58 182.088 145.237 182.434 146.162H196.239V144.891C195.142 144.891 194.795 143.736 194.795 137.613C194.795 129.238 192.138 128.198 187.748 126.581C192.6 125.252 194.795 121.209 194.795 116.415C194.795 108.328 190.174 104.574 176.312 104.574H156.673V146.162H170.305V131.664ZM213.279 115.895H201.264V146.162H213.279V115.895ZM201.264 103.477V112.025H213.279V103.477H201.264ZM238 103.477H232.859C225.177 103.477 220.961 105.267 220.961 115.895H216.975V122.826H220.961V146.162H232.975V122.826H238V115.895H232.975C232.975 111.91 234.072 111.043 238 111.043V103.477Z" fill="black"/>
<path fill-rule="evenodd" clip-rule="evenodd" d="M166.214 156.03C165.976 153.709 164.433 152.342 161.674 152.342C159.152 152.342 157.171 154.161 157.171 157.083C157.171 160.018 158.977 161.852 161.962 161.852C164.345 161.852 166.014 160.445 166.277 158.112H163.43C163.317 158.977 162.865 159.642 161.912 159.642C160.407 159.642 160.131 158.45 160.131 157.184C160.131 155.44 160.758 154.549 161.799 154.549C162.727 154.549 163.317 155.089 163.405 156.03H166.214ZM170.856 156.607C171.52 156.607 171.959 157.296 171.959 158.262C171.959 159.504 171.533 160.043 170.83 160.043C170.166 160.043 169.702 159.504 169.702 158.262C169.702 157.522 169.965 156.607 170.856 156.607ZM167.092 158.4C167.092 160.646 168.723 161.802 170.83 161.802C172.938 161.802 174.568 160.671 174.568 158.262C174.568 156.218 173.138 154.85 170.818 154.85C168.598 154.85 167.092 156.117 167.092 158.4ZM178.068 155.039H175.697V161.611H178.306V159.341C178.306 157.924 178.846 157.422 179.912 157.422C180.088 157.422 180.276 157.472 180.451 157.497V154.888C180.338 154.876 180.226 154.85 180.113 154.85C179.097 154.85 178.457 155.34 178.093 156.368H178.068V155.039ZM181.342 155.039V163.846H183.951V160.959C184.39 161.511 184.917 161.802 185.632 161.802C187.099 161.802 188.705 160.859 188.705 158.275C188.705 156.469 187.752 154.85 185.77 154.85C185.017 154.85 184.076 155.214 183.713 156.017H183.688V155.039H181.342ZM184.967 159.805C184.29 159.805 183.901 159.178 183.901 158.262C183.901 157.384 184.327 156.757 184.954 156.757C185.644 156.757 186.096 157.271 186.096 158.312C186.096 159.216 185.657 159.805 184.967 159.805ZM193.346 156.607C194.011 156.607 194.45 157.296 194.45 158.262C194.45 159.504 194.023 160.043 193.321 160.043C192.656 160.043 192.192 159.504 192.192 158.262C192.192 157.522 192.455 156.607 193.346 156.607ZM189.583 158.4C189.583 160.646 191.214 161.802 193.321 161.802C195.428 161.802 197.059 160.671 197.059 158.262C197.059 156.218 195.629 154.85 193.308 154.85C191.088 154.85 189.583 156.117 189.583 158.4ZM200.559 155.039H198.188V161.611H200.797V159.341C200.797 157.924 201.336 157.422 202.403 157.422C202.578 157.422 202.766 157.472 202.942 157.497V154.888C202.829 154.876 202.716 154.85 202.603 154.85C201.587 154.85 200.947 155.34 200.584 156.368H200.559V155.039ZM206.429 157.058C206.492 156.494 206.981 156.418 207.345 156.418C207.621 156.418 208.198 156.481 208.198 156.958C208.198 158.187 203.519 156.832 203.519 159.818C203.519 161.185 204.623 161.802 205.865 161.802C206.843 161.802 207.596 161.599 208.336 160.909L208.461 161.611H211.158V161.486C210.819 161.21 210.807 161.022 210.807 160.646V157.572C210.807 156.004 210.619 154.85 207.508 154.85C204.911 154.85 203.92 155.666 203.92 157.058H206.429ZM208.198 158.701C208.198 159.705 207.959 160.319 207.044 160.319C206.529 160.319 206.216 160.094 206.216 159.767C206.216 158.915 207.345 159.115 208.198 158.701ZM212.651 152.994V155.039H211.722V156.544H212.651V159.291C212.651 161.561 213.039 161.611 216.489 161.611V159.742H216.075C215.347 159.742 215.26 159.529 215.26 158.927V156.544H216.514V155.039H215.26V152.994H212.651ZM220.252 155.039H217.643V161.611H220.252V155.039ZM217.643 152.342V154.198H220.252V152.342H217.643ZM225.144 156.607C225.809 156.607 226.248 157.296 226.248 158.262C226.248 159.504 225.821 160.043 225.119 160.043C224.454 160.043 223.99 159.504 223.99 158.262C223.99 157.522 224.253 156.607 225.144 156.607ZM221.381 158.4C221.381 160.646 223.012 161.802 225.119 161.802C227.226 161.802 228.857 160.671 228.857 158.262C228.857 156.218 227.427 154.85 225.106 154.85C222.886 154.85 221.381 156.117 221.381 158.4ZM232.369 155.039H229.986V161.611H232.595V158.262C232.595 157.422 232.808 156.908 233.611 156.908C234.351 156.908 234.527 157.485 234.527 158.137V161.611H237.136V157.673C237.136 155.866 236.32 154.85 234.589 154.85C233.598 154.85 232.959 155.277 232.369 156.067V155.039Z" fill="black"/>
<path fill-rule="evenodd" clip-rule="evenodd" d="M138.612 159.06C141.106 159.06 143.135 157.029 143.135 154.534C143.135 152.04 141.106 150.011 138.612 150.011C136.093 150.011 134.088 152.04 134.088 154.534C134.088 157.029 136.093 159.06 138.612 159.06ZM138.612 157.984C136.642 157.984 135.282 156.551 135.282 154.534C135.282 152.517 136.642 151.085 138.612 151.085C140.545 151.085 141.942 152.517 141.942 154.534C141.942 156.551 140.545 157.984 138.612 157.984ZM136.75 156.993H137.776V154.928H138.588L139.674 156.993H140.856L139.674 154.928C140.533 154.869 141.011 154.51 141.011 153.603C141.011 152.458 140.39 152.111 139.113 152.111H136.75V156.993ZM137.776 152.863H138.862C139.722 152.863 140.056 152.983 140.056 153.472C140.056 154.081 139.686 154.2 139.125 154.2H137.776V152.863Z" fill="black"/>
</svg>
