<svg width="276" height="276" viewBox="0 0 276 276" fill="none" xmlns="http://www.w3.org/2000/svg">
<path d="M127.67 125.275L125.306 129.792C124.803 130.646 124.807 131.156 124.815 132.167C124.816 132.297 124.817 132.436 124.817 132.585L124.813 144.975L129.076 144.977L129.081 129.001L139.122 129.005L139.123 124.294L129.431 124.288C128.934 124.288 128.211 124.389 127.67 125.275Z" fill="black"/>
<path d="M120.224 124.283C120.136 124.282 120.048 124.281 119.958 124.283C119.521 124.294 119.03 124.375 118.408 124.893L116.759 126.202L116.76 124.282L116.756 124.323L116.758 118.585H112.495L112.49 140.406C112.489 140.973 112.684 141.522 113.065 142.031L114.721 144.416L114.729 144.427C115.088 144.883 115.564 145.115 116.145 145.115L121.723 145.118V140.406L116.752 140.404L116.755 128.995H121.723V124.284L120.352 124.283L120.224 124.283Z" fill="black"/>
<path d="M102.183 137.172L102.189 137.174C102.18 137.168 102.171 137.161 102.162 137.155C102.073 137.085 101.978 137.016 101.875 136.947C100.91 136.307 96.8251 133.699 93.461 131.545C91.8281 130.494 90.3608 129.55 89.5234 129.014L102.337 129.026V124.315L102.304 124.315V124.309L91.3695 124.304C91.1498 124.311 90.9319 124.333 90.7214 124.399C90.3843 124.506 90.0579 124.661 89.6977 124.888L89.6948 124.888L89.6306 124.93C89.5719 124.968 89.5075 125.011 89.441 125.057L86.6508 126.917C86.0738 127.241 85.6703 127.628 85.4636 128.058C85.3112 128.374 85.288 128.599 85.1546 129.11C85.0961 129.357 85.047 129.575 85.0139 129.739C84.8119 130.742 85.0308 131.453 85.7567 132.054C85.7594 132.057 85.7628 132.06 85.7655 132.062C85.8814 132.157 86.0088 132.25 86.1506 132.34L86.1525 132.341C86.2182 132.386 86.2789 132.427 86.3243 132.458L86.3502 132.476L86.4459 132.534C86.9981 132.885 89.5008 134.497 91.9299 136.061C94.487 137.707 97.2255 139.471 98.5012 140.287L85.721 140.282V144.993L96.6552 144.998C96.875 144.991 97.093 144.969 97.3033 144.902C97.6405 144.796 97.9668 144.64 98.327 144.414L98.3299 144.414L98.3942 144.371C98.4528 144.334 98.5172 144.291 98.5837 144.245L101.374 142.385C101.951 142.06 102.354 141.674 102.561 141.244C102.714 140.928 102.737 140.703 102.87 140.192C102.929 139.944 102.978 139.727 103.011 139.562C103.221 138.521 102.979 137.805 102.183 137.172Z" fill="black"/>
<path d="M109.54 118.469H105.278V122.784H109.54V118.469Z" fill="black"/>
<path d="M161.476 129.593C161.462 129.173 161.417 128.858 161.278 128.525C161.09 128.072 160.698 127.651 160.126 127.282L157.376 125.199C157.31 125.148 157.247 125.1 157.187 125.056L157.134 125.017L157.132 125.017C156.772 124.758 156.444 124.576 156.103 124.444C155.643 124.266 155.101 124.281 154.704 124.291C154.625 124.294 154.552 124.296 154.489 124.296L150.965 124.297L147.44 124.293C147.377 124.293 147.304 124.291 147.225 124.288C146.829 124.277 146.287 124.262 145.826 124.439C145.485 124.571 145.157 124.753 144.797 125.011L144.743 125.05C144.682 125.095 144.618 125.143 144.555 125.192L141.813 127.265C141.229 127.642 140.837 128.063 140.648 128.516C140.509 128.849 140.464 129.164 140.45 129.583L140.439 139.249L140.441 139.678H140.446C140.46 140.097 140.505 140.412 140.644 140.746C140.832 141.198 141.224 141.619 141.795 141.988L144.546 144.071C144.612 144.122 144.675 144.17 144.733 144.212L144.795 144.259L144.798 144.259C145.155 144.514 145.48 144.695 145.819 144.826C146.279 145.004 146.822 144.989 147.218 144.979C147.297 144.976 147.369 144.974 147.432 144.974L150.957 144.973L154.482 144.977C154.545 144.977 154.618 144.979 154.697 144.982C154.799 144.985 154.91 144.988 155.027 144.988C155.366 144.988 155.754 144.962 156.095 144.831C156.435 144.7 156.76 144.519 157.117 144.264L157.178 144.221C157.24 144.176 157.303 144.128 157.366 144.078L160.109 142.005C160.693 141.628 161.085 141.207 161.274 140.754C161.413 140.421 161.458 140.106 161.472 139.687L161.482 130.021L161.481 129.593H161.476ZM157.216 140.262L144.702 140.257L144.706 129.008L157.22 129.013L157.216 140.262Z" fill="black"/>
<path d="M109.534 124.282H105.271V144.968H109.534V124.282Z" fill="black"/>
<path d="M228.836 137.172L228.841 137.174C228.833 137.168 228.823 137.161 228.815 137.155C228.726 137.085 228.63 137.016 228.528 136.947C227.563 136.307 223.477 133.699 220.113 131.545C218.481 130.494 217.014 129.55 216.177 129.014L228.989 129.026V124.315L228.956 124.315V124.309L218.022 124.304C217.803 124.311 217.585 124.333 217.374 124.399C217.037 124.506 216.71 124.661 216.35 124.888L216.348 124.888L216.283 124.93C216.225 124.968 216.16 125.011 216.094 125.057L213.303 126.917C212.727 127.241 212.323 127.628 212.116 128.058C211.964 128.374 211.941 128.599 211.807 129.11C211.749 129.357 211.699 129.575 211.666 129.739C211.465 130.742 211.684 131.453 212.41 132.054C212.412 132.057 212.415 132.06 212.418 132.062C212.534 132.157 212.662 132.25 212.803 132.34L212.806 132.341C212.87 132.386 212.931 132.427 212.977 132.458L213.003 132.476L213.099 132.534C213.651 132.885 216.153 134.497 218.582 136.061C221.139 137.707 223.879 139.471 225.154 140.287L212.374 140.282V144.993L223.308 144.998C223.528 144.991 223.746 144.969 223.956 144.902C224.294 144.796 224.619 144.64 224.979 144.414L224.982 144.414L225.047 144.371C225.106 144.334 225.17 144.291 225.236 144.245L228.026 142.385C228.604 142.06 229.007 141.674 229.214 141.244C229.367 140.928 229.389 140.703 229.523 140.192C229.581 139.944 229.63 139.727 229.663 139.562C229.873 138.521 229.632 137.805 228.836 137.172Z" fill="black"/>
<path d="M234.334 124.333H233.509V128.586H234.334V124.333Z" fill="black"/>
<path d="M198.27 124.309C197.874 124.298 197.332 124.283 196.872 124.46C196.531 124.592 196.203 124.773 195.844 125.03L195.789 125.07C195.727 125.116 195.663 125.163 195.6 125.213L192.858 127.286C192.273 127.663 191.881 128.084 191.694 128.536C191.554 128.87 191.509 129.185 191.495 129.604L191.484 139.27L191.487 139.698H191.491C191.505 140.118 191.55 140.432 191.69 140.766C191.877 141.219 192.269 141.64 192.841 142.009L195.592 144.092C195.657 144.143 195.72 144.191 195.778 144.233L195.841 144.281L195.844 144.281C196.201 144.536 196.526 144.716 196.865 144.847C197.206 144.979 197.593 145.005 197.932 145.005C198.05 145.005 198.161 145.002 198.262 144.999C198.342 144.997 198.414 144.995 198.477 144.995L209.214 145L209.215 140.284L195.746 140.278L195.75 129.028L209.219 129.034L209.221 124.318L198.484 124.313C198.422 124.313 198.349 124.311 198.27 124.309Z" fill="black"/>
<path d="M234.818 124.333L234.817 125.153L235.999 125.154L235.997 128.586L236.817 128.587L236.818 125.154L238 125.155V124.334L234.818 124.333Z" fill="black"/>
<path d="M179.232 125.009L179.225 124.999C178.866 124.542 178.39 124.31 177.81 124.31L171.545 124.307L171.417 124.307C171.329 124.306 171.241 124.305 171.151 124.307C170.714 124.318 170.224 124.399 169.602 124.917L167.952 126.226L167.953 124.306L163.69 124.304L163.683 144.991L167.946 144.992L167.951 129.017L177.201 129.021L177.196 144.996L181.458 144.998L181.465 129.019C181.465 128.452 181.269 127.903 180.888 127.395L179.232 125.009Z" fill="black"/>
<path d="M188.637 124.314H184.375V145.001H188.637V124.314Z" fill="black"/>
<path d="M188.643 118.501H184.381V122.816H188.643V118.501Z" fill="black"/>
<path d="M194.796 151.612C195.579 151.612 196.353 151.797 197.011 152.144V153.426C196.458 153.033 195.716 152.826 194.963 152.826C193.531 152.826 192.088 153.692 192.088 155.806C192.088 158.117 193.604 158.799 194.931 158.799C195.339 158.799 195.737 158.718 196.029 158.567V155.506H197.189V159.457C196.488 159.804 195.663 160 194.858 160C192.83 160 190.865 158.822 190.865 155.806C190.865 152.953 192.83 151.612 194.796 151.612Z" fill="black"/>
<path d="M199.091 159.85V151.763H202.018C203.388 151.763 204.83 152.363 204.83 154.293C204.83 155.737 204.014 156.43 203.052 156.684L205.394 159.85H203.961L201.767 156.823H200.283V159.85H199.091ZM200.283 155.656H202.07C202.854 155.656 203.617 155.344 203.617 154.316C203.617 153.276 202.854 152.964 202.07 152.964H200.283V155.656Z" fill="black"/>
<path d="M210.117 151.612C212.688 151.612 213.964 153.669 213.964 155.806C213.964 157.944 212.688 160 210.117 160C207.535 160 206.27 157.944 206.27 155.806C206.27 153.669 207.535 151.612 210.117 151.612ZM210.117 152.849C208.35 152.849 207.483 154.258 207.483 155.806C207.483 157.354 208.35 158.764 210.117 158.764C211.894 158.764 212.752 157.354 212.752 155.806C212.752 154.258 211.894 152.849 210.117 152.849Z" fill="black"/>
<path d="M221.865 151.763V156.858C221.865 159.203 220.371 160 218.75 160C217.12 160 215.615 159.203 215.615 156.858V151.763H216.806V156.788C216.806 158.256 217.611 158.776 218.75 158.776C219.869 158.776 220.673 158.256 220.673 156.788V151.763H221.865Z" fill="black"/>
<path d="M226.599 151.763C228.334 151.763 229.724 152.363 229.724 154.42C229.724 156.476 228.334 157.077 226.599 157.077H225.178V159.85H223.986V151.763H226.599ZM226.662 152.964H225.178V155.876H226.662C227.665 155.876 228.512 155.598 228.512 154.42C228.512 153.242 227.676 152.964 226.662 152.964Z" fill="black"/>
<path d="M75.9043 130.456L58.8563 135.897L55.429 148.713L38 154.275L41.5987 140.82L58.6468 135.378L62.0739 122.563L79.5028 117L75.9043 130.456ZM39.0324 138.301L42.631 124.845L60.0599 119.282L56.4614 132.738L39.0324 138.301ZM78.6426 132.785L75.044 146.24L57.615 151.803L61.2137 138.347L78.6426 132.785Z" fill="url(#paint0_linear_81_54)"/>
<defs>
<linearGradient id="paint0_linear_81_54" x1="44.5923" y1="154.307" x2="65.603" y2="119.999" gradientUnits="userSpaceOnUse">
<stop offset="0.219156" stop-color="#A954FF"/>
<stop offset="1" stop-color="#19C2FF"/>
</linearGradient>
</defs>
</svg>
