<svg width="276" height="276" viewBox="0 0 276 276" fill="none" xmlns="http://www.w3.org/2000/svg">
<path fill-rule="evenodd" clip-rule="evenodd" d="M50.2892 137.737L55.0927 119.184L59.8967 137.737L55.0927 156.298L50.2892 137.737ZM61.5018 137.736L66.3055 107L71.1173 137.736L66.3055 168.481L61.5018 137.736ZM72.7213 137.737L77.5249 119.184L82.337 137.737L77.5249 156.298L72.7213 137.737Z" fill="#1A3678"/>
<path fill-rule="evenodd" clip-rule="evenodd" d="M37.9999 137.736L41.7345 136.003L43.3384 131.939L44.9422 136.003L48.6849 137.736L44.9422 139.478L43.3384 143.542L41.7345 139.478L37.9999 137.736Z" fill="#DA0033"/>
<path fill-rule="evenodd" clip-rule="evenodd" d="M83.9321 137.736L87.6747 136.003L89.279 131.939L90.8745 136.003L94.6171 137.736L90.8745 139.478L89.279 143.542L87.6747 139.478L83.9321 137.736Z" fill="#DA0033"/>
<path fill-rule="evenodd" clip-rule="evenodd" d="M126.6 132.484C125.442 131.829 124.474 130.841 123.803 129.626C123.13 128.381 122.782 126.96 122.799 125.517C122.781 124.076 123.129 122.658 123.803 121.417C124.474 120.202 125.442 119.213 126.6 118.558C127.836 117.872 129.204 117.514 130.593 117.514C131.981 117.514 133.351 117.872 134.587 118.558C135.751 119.223 136.724 120.225 137.396 121.453C138.068 122.682 138.414 124.088 138.395 125.517C138.416 126.947 138.071 128.355 137.398 129.585C136.726 130.815 135.753 131.819 134.587 132.484C133.349 133.165 131.981 133.52 130.593 133.52C129.205 133.52 127.837 133.165 126.6 132.484ZM132.876 129.804C133.568 129.389 134.139 128.77 134.521 128.018C134.914 127.229 135.112 126.342 135.097 125.445C135.112 124.551 134.914 123.667 134.521 122.882C134.139 122.13 133.568 121.51 132.876 121.095C132.177 120.679 131.394 120.461 130.597 120.461C129.801 120.461 129.017 120.679 128.319 121.095C127.623 121.506 127.052 122.127 126.674 122.882C126.281 123.667 126.082 124.551 126.098 125.445C126.082 126.342 126.281 127.229 126.674 128.018C127.052 128.773 127.623 129.393 128.319 129.804C129.017 130.22 129.801 130.438 130.597 130.438C131.394 130.438 132.177 130.22 132.876 129.804ZM148.225 125.035C149.716 124.231 150.463 123.099 150.463 121.64C150.465 121.055 150.344 120.477 150.107 119.952C149.869 119.427 149.524 118.968 149.096 118.612C147.996 117.738 146.649 117.308 145.288 117.397C143.635 117.377 142.01 117.863 140.599 118.8H140.542V122.373L140.731 122.212C141.875 121.138 143.332 120.537 144.844 120.515C145.474 120.475 146.102 120.64 146.645 120.988C146.836 121.109 146.993 121.283 147.101 121.492C147.21 121.7 147.265 121.937 147.262 122.176C147.264 122.42 147.208 122.66 147.096 122.872C146.985 123.084 146.823 123.26 146.629 123.382C146.095 123.724 145.48 123.888 144.861 123.855H142.664V126.651H144.861C145.608 126.605 146.353 126.791 147.007 127.187C147.228 127.314 147.413 127.503 147.543 127.734C147.674 127.965 147.744 128.229 147.747 128.5C147.741 128.774 147.666 129.042 147.531 129.275C147.397 129.507 147.208 129.696 146.983 129.822C146.338 130.221 145.602 130.413 144.861 130.376C143.215 130.36 141.636 129.668 140.443 128.438L140.254 128.25V132.171L140.312 132.216C141.812 133.149 143.52 133.613 145.247 133.556C146.747 133.635 148.232 133.207 149.5 132.332C150.009 131.98 150.43 131.493 150.717 130.916C151.005 130.34 151.153 129.692 151.145 129.036C151.096 127.169 150.133 125.829 148.225 125.035ZM188.909 125.035C190.39 124.231 191.146 123.096 191.146 121.64C191.149 121.054 191.027 120.476 190.788 119.95C190.551 119.424 190.202 118.966 189.772 118.612C188.672 117.737 187.325 117.307 185.964 117.397C184.311 117.378 182.686 117.864 181.275 118.8H181.226V122.373L181.415 122.212C182.558 121.136 184.016 120.534 185.528 120.515C186.161 120.476 186.791 120.641 187.338 120.988C187.528 121.111 187.687 121.287 187.797 121.497C187.906 121.706 187.964 121.944 187.964 122.185C187.964 122.426 187.906 122.663 187.797 122.873C187.687 123.083 187.528 123.258 187.338 123.382C186.806 123.723 186.194 123.888 185.578 123.855H183.381V126.651H185.578C186.323 126.605 187.065 126.79 187.716 127.187C187.937 127.314 188.121 127.503 188.252 127.734C188.382 127.965 188.452 128.229 188.457 128.5C188.451 128.775 188.377 129.043 188.242 129.276C188.108 129.509 187.917 129.698 187.692 129.822C187.049 130.221 186.316 130.413 185.578 130.376C183.921 130.37 182.329 129.676 181.127 128.438L180.93 128.25V132.171L180.987 132.216C182.488 133.148 184.195 133.611 185.923 133.556C187.425 133.63 188.91 133.196 190.175 132.314C190.685 131.963 191.105 131.475 191.393 130.898C191.681 130.321 191.828 129.674 191.82 129.018C191.772 127.169 190.809 125.829 188.917 125.035H188.909ZM164.939 126.562C165.412 127.232 165.656 128.059 165.631 128.902C165.655 129.525 165.536 130.144 165.285 130.704C165.034 131.264 164.657 131.747 164.191 132.109C162.969 132.961 161.527 133.365 160.078 133.261H153.053V117.782H159.741C161.096 117.697 162.443 118.059 163.606 118.818C164.051 119.142 164.412 119.585 164.654 120.105C164.895 120.624 165.011 121.202 164.989 121.783C165.005 122.501 164.822 123.208 164.462 123.811C164.091 124.408 163.575 124.883 162.973 125.186C163.743 125.415 164.43 125.895 164.939 126.562ZM156.344 124.195H159.42C160.002 124.241 160.58 124.074 161.065 123.721C161.253 123.552 161.399 123.336 161.496 123.092C161.591 122.848 161.633 122.583 161.616 122.319C161.63 122.055 161.587 121.792 161.49 121.549C161.392 121.307 161.245 121.094 161.057 120.926C160.578 120.559 159.996 120.385 159.412 120.434H156.335L156.344 124.195ZM162.29 128.616C162.29 127.33 161.517 126.696 159.971 126.696H156.344V130.608H159.971C161.517 130.608 162.29 129.947 162.29 128.616ZM178.948 130.403V133.261H167.909V117.782H178.66V120.657H171.166V124.016H177.747V126.803H171.166V130.376L178.948 130.403ZM208.988 130.358V136.477H205.928V133.261H195.867V136.477H192.816V130.349H193.384C194.207 130.349 194.84 129.644 195.193 128.312C195.615 126.453 195.834 124.547 195.843 122.632L196.007 117.79H206.964V130.34L208.988 130.358ZM198.401 127.589C198.277 128.581 197.933 129.525 197.398 130.34H203.773V120.702H198.887L198.821 122.953C198.783 124.507 198.642 126.056 198.401 127.589ZM210.929 117.763H214.219V127.866L221.022 117.782H224.115V133.261H220.824V123.203L214.03 133.261H210.912L210.929 117.763ZM238 130.367V133.261H226.928V117.782H237.695V120.657H230.201V124.016H236.823V126.803H230.201V130.376L238 130.367ZM120.94 129.233C119.808 130.082 118.458 130.52 117.082 130.483C116.259 130.5 115.445 130.285 114.721 129.858C114.026 129.447 113.455 128.827 113.076 128.072C112.677 127.288 112.475 126.403 112.492 125.508C112.475 124.612 112.677 123.728 113.076 122.944C113.455 122.189 114.026 121.569 114.721 121.158C115.445 120.728 116.258 120.509 117.082 120.524C118.462 120.508 119.812 120.965 120.94 121.828V118.612C120.725 118.476 120.502 118.354 120.274 118.246C119.104 117.731 117.847 117.493 116.586 117.548C115.324 117.604 114.089 117.951 112.961 118.567C111.816 119.222 110.859 120.209 110.197 121.417C109.515 122.664 109.165 124.093 109.186 125.544C109.166 126.994 109.516 128.422 110.197 129.67C110.859 130.879 111.816 131.865 112.961 132.52C114.175 133.214 115.53 133.567 116.901 133.547C118.056 133.565 119.201 133.325 120.266 132.841C120.496 132.725 120.726 132.6 120.94 132.466V129.233Z" fill="#1A3678"/>
<path fill-rule="evenodd" clip-rule="evenodd" d="M126.599 156.923C125.442 156.268 124.474 155.279 123.802 154.064C123.144 152.814 122.798 151.399 122.798 149.96C122.798 148.52 123.144 147.105 123.802 145.855C124.474 144.64 125.442 143.651 126.599 142.997C127.837 142.316 129.205 141.961 130.593 141.961C131.98 141.961 133.349 142.316 134.586 142.997C135.749 143.669 136.722 144.672 137.401 145.898C138.079 147.125 138.437 148.529 138.437 149.96C138.437 151.39 138.079 152.794 137.401 154.021C136.722 155.247 135.749 156.25 134.586 156.923C133.35 157.609 131.981 157.967 130.593 157.967C129.204 157.967 127.835 157.609 126.599 156.923ZM132.875 154.243C133.565 153.824 134.135 153.205 134.52 152.456C134.899 151.662 135.096 150.782 135.096 149.888C135.096 148.994 134.899 148.114 134.52 147.32C134.138 146.568 133.568 145.949 132.875 145.534C132.177 145.118 131.393 144.899 130.597 144.899C129.8 144.899 129.016 145.118 128.318 145.534C127.623 145.945 127.052 146.565 126.673 147.32C126.295 148.114 126.097 148.994 126.097 149.888C126.097 150.782 126.295 151.662 126.673 152.456C127.057 153.207 127.626 153.826 128.318 154.243C129.018 154.653 129.801 154.868 130.597 154.868C131.392 154.868 132.175 154.653 132.875 154.243ZM153.892 142.175V157.699H150.602V151.348H144.112V157.699H140.821V142.22H144.112V148.321H150.585V142.22L153.892 142.175ZM171.988 154.734V160.862H168.953V157.699H157.018V142.22H160.307V154.779H166.666V142.22H169.956V154.779L171.988 154.734ZM184.919 154.734V157.61H173.856V142.22H184.631V145.096H177.137V148.454H183.718V151.241H177.137V154.814L184.919 154.734ZM197.94 143.586C197.498 143.1 196.968 142.719 196.383 142.468C195.799 142.217 195.171 142.102 194.543 142.131H187.14V157.699H190.43V152.554H194.543C195.171 152.583 195.799 152.468 196.383 152.217C196.968 151.966 197.498 151.585 197.94 151.098C198.773 150.08 199.231 148.766 199.231 147.405C199.231 146.044 198.773 144.73 197.94 143.711V143.586ZM190.454 145.006H194.075C194.341 144.995 194.608 145.044 194.856 145.152C195.103 145.259 195.328 145.423 195.513 145.632C195.886 146.077 196.082 146.665 196.057 147.267C196.084 147.876 195.889 148.473 195.513 148.928C195.33 149.139 195.106 149.304 194.857 149.412C194.609 149.52 194.341 149.568 194.075 149.553H190.454V145.006ZM214.548 142.131V157.699H211.257V151.348H204.776V157.699H201.485V142.22H204.776V148.321H211.257V142.22L214.548 142.131ZM109.901 157.699H113.191V142.22H109.901V157.699ZM122.799 142.22H119.147L113.956 150.107L119.097 157.699H122.79L117.625 150.08L122.799 142.22Z" fill="#DA0033"/>
</svg>
