<svg width="600" height="723" viewBox="0 0 600 723" fill="none" xmlns="http://www.w3.org/2000/svg">
<g clip-path="url(#clip0_1_1696)">
<rect width="600" height="723" fill="white"/>
<g clip-path="url(#clip1_1_1696)">
<mask id="mask0_1_1696" style="mask-type:luminance" maskUnits="userSpaceOnUse" x="0" y="0" width="600" height="600">
<path d="M600 0H0V600H600V0Z" fill="white"/>
</mask>
<g mask="url(#mask0_1_1696)">
<path d="M600 0H0V600H600V0Z" fill="white"/>
</g>
<mask id="mask1_1_1696" style="mask-type:luminance" maskUnits="userSpaceOnUse" x="39" y="39" width="522" height="522">
<path d="M181.423 54.9407H197.233V39.1304C195.157 39.1304 193.101 39.5394 191.183 40.3339C189.265 41.1285 187.522 42.293 186.054 43.7612C184.585 45.2293 183.421 46.9722 182.626 48.8904C181.832 50.8086 181.423 52.8645 181.423 54.9407Z" fill="white"/>
<path d="M213.043 39.1304H197.233V54.9407H213.043V39.1304Z" fill="white"/>
<path d="M228.854 39.1304H213.043V54.9407H228.854V39.1304Z" fill="white"/>
<path d="M244.664 39.1304H228.854V54.9407H244.664V39.1304Z" fill="white"/>
<path d="M260.474 54.9407H276.285V39.1304C272.091 39.1304 268.07 40.7962 265.105 43.7612C262.14 46.7262 260.474 50.7476 260.474 54.9407Z" fill="white"/>
<path d="M292.095 39.1304H276.285V54.9407H292.095V39.1304Z" fill="white"/>
<path d="M307.905 39.1304H292.095V54.9407H307.905V39.1304Z" fill="white"/>
<path d="M323.715 39.1304H307.905V54.9407H323.715V39.1304Z" fill="white"/>
<path d="M339.526 54.9407H355.336V39.1304C351.143 39.1304 347.121 40.7962 344.156 43.7612C341.191 46.7262 339.526 50.7475 339.526 54.9407Z" fill="white"/>
<path d="M371.146 39.1304H355.336V54.9407H371.146V39.1304Z" fill="white"/>
<path d="M386.957 54.9407H402.767V39.1304C398.574 39.1304 394.552 40.7962 391.587 43.7612C388.622 46.7262 386.957 50.7476 386.957 54.9407Z" fill="white"/>
<path d="M418.577 39.1304H402.767V54.9407H418.577V39.1304Z" fill="white"/>
<path d="M165.613 70.751H181.423V54.9407C177.23 54.9407 173.208 56.6064 170.243 59.5714C167.278 62.5364 165.613 66.5578 165.613 70.751Z" fill="white"/>
<path d="M197.233 54.9407H181.423V70.751H197.233V54.9407Z" fill="white"/>
<path d="M228.854 54.9407H213.043V70.751H228.854V54.9407Z" fill="white"/>
<path d="M244.664 54.9407H228.854V70.751H244.664V54.9407Z" fill="white"/>
<path d="M260.474 54.9407H244.664V70.751C248.857 70.751 252.879 69.0853 255.844 66.1203C258.809 63.1553 260.474 59.1339 260.474 54.9407Z" fill="white"/>
<path d="M323.715 54.9407H307.905V70.751C312.098 70.751 316.12 69.0853 319.085 66.1203C322.05 63.1553 323.715 59.1339 323.715 54.9407Z" fill="white"/>
<path d="M371.146 54.9407H355.336V70.751H371.146V54.9407Z" fill="white"/>
<path d="M402.767 54.9407H386.957V70.751H402.767V54.9407Z" fill="white"/>
<path d="M418.577 54.9407H402.767V70.751H418.577V54.9407Z" fill="white"/>
<path d="M434.387 54.9407H418.577V70.751H434.387V54.9407Z" fill="white"/>
<path d="M181.423 70.751H165.613V86.5613H181.423V70.751Z" fill="white"/>
<path d="M197.233 70.751H181.423V86.5613H197.233V70.751Z" fill="white"/>
<path d="M213.043 70.751H197.233V86.5613H213.043V70.751Z" fill="white"/>
<path d="M260.474 86.5613H276.285V70.751C272.091 70.751 268.07 72.4167 265.105 75.3817C262.14 78.3467 260.474 82.3681 260.474 86.5613Z" fill="white"/>
<path d="M292.095 70.751H276.285V86.5613H292.095V70.751Z" fill="white"/>
<path d="M323.715 86.5613H339.526V70.751C335.332 70.751 331.311 72.4167 328.346 75.3817C325.381 78.3467 323.715 82.3681 323.715 86.5613Z" fill="white"/>
<path d="M371.146 70.751H355.336V86.5613H371.146V70.751Z" fill="white"/>
<path d="M434.387 70.751H418.577V86.5613H434.387V70.751Z" fill="white"/>
<path d="M213.043 86.5613H197.233V102.372H213.043V86.5613Z" fill="white"/>
<path d="M228.854 86.5613H213.043V102.372C217.237 102.372 221.258 100.706 224.223 97.7408C227.188 94.7758 228.854 90.7544 228.854 86.5613Z" fill="white"/>
<path d="M244.664 102.372H260.474V86.5613C256.281 86.5613 252.26 88.227 249.295 91.192C246.33 94.157 244.664 98.1784 244.664 102.372Z" fill="white"/>
<path d="M276.285 86.5613H260.474V102.372H276.285V86.5613Z" fill="white"/>
<path d="M292.095 86.5613H276.285V102.372H292.095V86.5613Z" fill="white"/>
<path d="M307.905 102.372H323.715V86.5613C319.522 86.5613 315.501 88.227 312.536 91.192C309.571 94.157 307.905 98.1784 307.905 102.372Z" fill="white"/>
<path d="M339.526 86.5613H323.715V102.372H339.526V86.5613Z" fill="white"/>
<path d="M355.336 86.5613H339.526V102.372H355.336V86.5613Z" fill="white"/>
<path d="M371.146 86.5613H355.336V102.372C359.529 102.372 363.551 100.706 366.516 97.7408C369.481 94.7758 371.146 90.7544 371.146 86.5613Z" fill="white"/>
<path d="M386.957 102.372H402.767V86.5613C398.574 86.5613 394.552 88.227 391.587 91.192C388.622 94.157 386.957 98.1784 386.957 102.372Z" fill="white"/>
<path d="M418.577 86.5613H402.767V102.372H418.577V86.5613Z" fill="white"/>
<path d="M434.387 86.5612H418.577V102.372C422.77 102.372 426.791 100.706 429.756 97.7408C432.721 94.7758 434.387 90.7544 434.387 86.5612Z" fill="white"/>
<path d="M181.423 118.182H197.233V102.372C195.157 102.372 193.101 102.78 191.183 103.575C189.265 104.37 187.522 105.534 186.054 107.002C184.585 108.47 183.421 110.213 182.626 112.131C181.832 114.05 181.423 116.106 181.423 118.182Z" fill="white"/>
<path d="M260.474 102.372H244.664V118.182H260.474V102.372Z" fill="white"/>
<path d="M276.285 102.372H260.474V118.182H276.285V102.372Z" fill="white"/>
<path d="M292.095 102.372H276.285V118.182H292.095V102.372Z" fill="white"/>
<path d="M307.905 102.372H292.095V118.182H307.905V102.372Z" fill="white"/>
<path d="M323.715 102.372H307.905V118.182H323.715V102.372Z" fill="white"/>
<path d="M355.336 102.372H339.526V118.182H355.336V102.372Z" fill="white"/>
<path d="M197.233 118.182H181.423V133.992C183.499 133.992 185.555 133.583 187.473 132.789C189.391 131.994 191.134 130.829 192.602 129.361C194.071 127.893 195.235 126.15 196.03 124.232C196.824 122.314 197.233 120.258 197.233 118.182Z" fill="white"/>
<path d="M213.043 133.992H228.854V118.182C224.661 118.182 220.639 119.848 217.674 122.813C214.709 125.778 213.043 129.799 213.043 133.992Z" fill="white"/>
<path d="M244.664 118.182H228.854V133.992H244.664V118.182Z" fill="white"/>
<path d="M276.285 118.182H260.474V133.992H276.285V118.182Z" fill="white"/>
<path d="M323.715 118.182H307.905V133.992C312.098 133.992 316.12 132.326 319.085 129.361C322.05 126.396 323.715 122.375 323.715 118.182Z" fill="white"/>
<path d="M355.336 118.182H339.526V133.992H355.336V118.182Z" fill="white"/>
<path d="M371.146 118.182H355.336V133.992H371.146V118.182Z" fill="white"/>
<path d="M386.957 118.182H371.146V133.992H386.957V118.182Z" fill="white"/>
<path d="M402.767 118.182H386.957V133.992H402.767V118.182Z" fill="white"/>
<path d="M418.577 133.992H434.387V118.182C430.194 118.182 426.173 119.848 423.208 122.813C420.243 125.778 418.577 129.799 418.577 133.992Z" fill="white"/>
<path d="M181.423 133.992H173.518C171.421 133.992 169.41 134.825 167.928 136.307C166.445 137.79 165.613 139.801 165.613 141.897V149.802H173.518C175.614 149.802 177.625 148.97 179.107 147.487C180.59 146.005 181.423 143.994 181.423 141.897" fill="white"/>
<path d="M197.233 149.802H213.043V133.992C208.85 133.992 204.829 135.658 201.864 138.623C198.899 141.588 197.233 145.609 197.233 149.802Z" fill="white"/>
<path d="M244.664 133.992H228.854V149.802H244.664V133.992Z" fill="white"/>
<path d="M276.285 133.992H260.474V149.802C264.668 149.802 268.689 148.137 271.654 145.172C274.619 142.207 276.285 138.185 276.285 133.992Z" fill="white"/>
<path d="M292.095 149.802H307.905V133.992C303.712 133.992 299.69 135.658 296.725 138.623C293.76 141.588 292.095 145.609 292.095 149.802Z" fill="white"/>
<path d="M323.715 149.802H339.526V133.992C335.332 133.992 331.311 135.658 328.346 138.623C325.381 141.588 323.715 145.609 323.715 149.802Z" fill="white"/>
<path d="M371.146 133.992H355.336V149.802H371.146V133.992Z" fill="white"/>
<path d="M402.767 133.992H386.957V149.802H402.767V133.992Z" fill="white"/>
<path d="M434.387 133.992H418.577V149.802C422.77 149.802 426.791 148.137 429.756 145.172C432.721 142.207 434.387 138.185 434.387 133.992Z" fill="white"/>
<path d="M181.423 165.613H197.233V149.802C195.157 149.802 193.101 150.211 191.183 151.006C189.265 151.8 187.522 152.965 186.054 154.433C184.585 155.901 183.421 157.644 182.626 159.562C181.832 161.481 181.423 163.536 181.423 165.613Z" fill="white"/>
<path d="M213.043 149.802H197.233V165.613H213.043V149.802Z" fill="white"/>
<path d="M228.854 149.802H213.043V165.613H228.854V149.802Z" fill="white"/>
<path d="M244.664 149.802H228.854V165.613H244.664V149.802Z" fill="white"/>
<path d="M260.474 149.802H244.664V165.613C248.857 165.613 252.879 163.947 255.844 160.982C258.809 158.017 260.474 153.996 260.474 149.802Z" fill="white"/>
<path d="M307.905 149.802H292.095V165.613H307.905V149.802Z" fill="white"/>
<path d="M323.715 149.802H307.905V165.613H323.715V149.802Z" fill="white"/>
<path d="M339.526 149.802H323.715V165.613C327.908 165.613 331.93 163.947 334.895 160.982C337.86 158.017 339.526 153.996 339.526 149.802Z" fill="white"/>
<path d="M371.146 149.802H355.336V165.613C359.529 165.613 363.551 163.947 366.516 160.982C369.481 158.017 371.146 153.996 371.146 149.802Z" fill="white"/>
<path d="M402.767 149.802H386.957V165.613C391.15 165.613 395.171 163.947 398.136 160.982C401.101 158.017 402.767 153.996 402.767 149.802Z" fill="white"/>
<path d="M54.9407 181.423H70.7509V165.613C66.5578 165.613 62.5364 167.278 59.5714 170.243C56.6064 173.208 54.9407 177.23 54.9407 181.423Z" fill="white"/>
<path d="M86.5613 165.613H70.751V181.423H86.5613V165.613Z" fill="white"/>
<path d="M102.372 165.613H86.5613V181.423C90.7545 181.423 94.7759 179.757 97.7409 176.792C100.706 173.827 102.372 169.806 102.372 165.613Z" fill="white"/>
<path d="M118.182 181.423H133.992V165.613C129.799 165.613 125.778 167.278 122.813 170.243C119.848 173.208 118.182 177.23 118.182 181.423Z" fill="white"/>
<path d="M149.802 165.613H133.992V181.423C136.068 181.423 138.124 181.014 140.042 180.219C141.96 179.425 143.703 178.26 145.172 176.792C146.64 175.324 147.804 173.581 148.599 171.663C149.393 169.745 149.802 167.689 149.802 165.613Z" fill="white"/>
<path d="M197.233 165.613H181.423V181.423C183.499 181.423 185.555 181.014 187.473 180.219C189.391 179.425 191.134 178.26 192.602 176.792C194.071 175.324 195.235 173.581 196.03 171.663C196.824 169.745 197.233 167.689 197.233 165.613Z" fill="white"/>
<path d="M244.664 165.613H228.854V181.423H244.664V165.613Z" fill="white"/>
<path d="M260.474 181.423H276.285V165.613C272.091 165.613 268.07 167.278 265.105 170.243C262.14 173.208 260.474 177.23 260.474 181.423Z" fill="white"/>
<path d="M292.095 165.613H276.284V181.423C280.478 181.423 284.499 179.757 287.464 176.792C290.429 173.827 292.095 169.806 292.095 165.613Z" fill="white"/>
<path d="M323.715 165.613H307.905V181.423H323.715V165.613Z" fill="white"/>
<path d="M339.526 181.423H355.336V165.613C351.143 165.613 347.121 167.278 344.156 170.243C341.191 173.208 339.526 177.23 339.526 181.423Z" fill="white"/>
<path d="M386.957 165.613H379.051C376.955 165.613 374.944 166.446 373.462 167.928C371.979 169.411 371.146 171.421 371.146 173.518V181.423H379.051C381.148 181.423 383.159 180.59 384.641 179.108C386.124 177.625 386.957 175.614 386.957 173.518" fill="white"/>
<path d="M513.439 181.423H529.249V165.613C525.056 165.613 521.034 167.278 518.069 170.243C515.104 173.208 513.439 177.23 513.439 181.423Z" fill="white"/>
<path d="M545.059 165.613H529.249V181.423H545.059V165.613Z" fill="white"/>
<path d="M70.751 181.423H54.9407V197.233H70.751V181.423Z" fill="white"/>
<path d="M86.5613 181.423H70.751V197.233H86.5613V181.423Z" fill="white"/>
<path d="M102.372 197.233H118.182V181.423C113.989 181.423 109.967 183.089 107.002 186.054C104.037 189.019 102.372 193.04 102.372 197.233Z" fill="white"/>
<path d="M165.613 197.233H181.423V181.423C177.23 181.423 173.208 183.089 170.243 186.054C167.278 189.019 165.613 193.04 165.613 197.233Z" fill="white"/>
<path d="M213.043 197.233H228.854V181.423C224.661 181.423 220.639 183.089 217.674 186.054C214.709 189.019 213.043 193.04 213.043 197.233Z" fill="white"/>
<path d="M244.664 181.423H228.854V197.233C233.047 197.233 237.068 195.567 240.033 192.602C242.998 189.637 244.664 185.616 244.664 181.423Z" fill="white"/>
<path d="M276.285 181.423H260.474V197.233H276.285V181.423Z" fill="white"/>
<path d="M292.095 197.233H307.905V181.423C303.712 181.423 299.69 183.089 296.725 186.054C293.76 189.019 292.095 193.04 292.095 197.233Z" fill="white"/>
<path d="M323.715 181.423H307.905V197.233H323.715V181.423Z" fill="white"/>
<path d="M339.526 181.423H323.715V197.233H339.526V181.423Z" fill="white"/>
<path d="M355.336 181.423H339.526V197.233H355.336V181.423Z" fill="white"/>
<path d="M371.146 181.423H355.336V197.233C359.529 197.233 363.551 195.567 366.516 192.602C369.481 189.637 371.146 185.616 371.146 181.423Z" fill="white"/>
<path d="M402.767 197.233H418.577V181.423C414.384 181.423 410.363 183.089 407.398 186.054C404.433 189.019 402.767 193.04 402.767 197.233Z" fill="white"/>
<path d="M434.387 181.423H418.577V197.233H434.387V181.423Z" fill="white"/>
<path d="M450.198 197.233H466.008V181.423C461.815 181.423 457.793 183.089 454.828 186.054C451.863 189.019 450.198 193.04 450.198 197.233Z" fill="white"/>
<path d="M481.818 181.423H466.008V197.233H481.818V181.423Z" fill="white"/>
<path d="M497.628 197.233H513.439V181.423C509.246 181.423 505.224 183.089 502.259 186.054C499.294 189.019 497.628 193.04 497.628 197.233Z" fill="white"/>
<path d="M529.249 181.423H513.439V197.233H529.249V181.423Z" fill="white"/>
<path d="M545.059 181.423H529.249V197.233H545.059V181.423Z" fill="white"/>
<path d="M560.87 181.423H545.059V197.233H560.87V181.423Z" fill="white"/>
<path d="M86.5613 197.233H70.751V213.043C74.9441 213.043 78.9656 211.378 81.9306 208.413C84.8956 205.448 86.5613 201.426 86.5613 197.233Z" fill="white"/>
<path d="M118.182 197.233H102.372V213.044H118.182V197.233Z" fill="white"/>
<path d="M133.992 197.233H118.182V213.044H133.992V197.233Z" fill="white"/>
<path d="M149.802 197.233H133.992V213.043C136.068 213.043 138.124 212.635 140.042 211.84C141.96 211.045 143.703 209.881 145.172 208.413C146.64 206.945 147.804 205.202 148.599 203.284C149.393 201.365 149.802 199.309 149.802 197.233Z" fill="white"/>
<path d="M181.423 197.233H165.613V213.043C169.806 213.043 173.827 211.378 176.792 208.413C179.757 205.448 181.423 201.426 181.423 197.233Z" fill="white"/>
<path d="M197.233 213.043H213.043V197.233C208.85 197.233 204.829 198.899 201.864 201.864C198.899 204.829 197.233 208.85 197.233 213.043Z" fill="white"/>
<path d="M228.854 197.233H213.043V213.043C217.237 213.043 221.258 211.378 224.223 208.413C227.188 205.448 228.854 201.426 228.854 197.233Z" fill="white"/>
<path d="M244.664 213.043H260.474V197.233C256.281 197.233 252.26 198.899 249.295 201.864C246.33 204.829 244.664 208.85 244.664 213.043Z" fill="white"/>
<path d="M276.285 197.233H260.474V213.044H276.285V197.233Z" fill="white"/>
<path d="M292.095 197.233H276.285V213.044H292.095V197.233Z" fill="white"/>
<path d="M339.526 197.233H323.715V213.044H339.526V197.233Z" fill="white"/>
<path d="M371.146 213.043H386.957V197.233C382.763 197.233 378.742 198.899 375.777 201.864C372.812 204.829 371.146 208.85 371.146 213.043Z" fill="white"/>
<path d="M402.767 197.233H386.957V213.044H402.767V197.233Z" fill="white"/>
<path d="M418.577 197.233H402.767V213.044H418.577V197.233Z" fill="white"/>
<path d="M434.387 197.233H418.577V213.044H434.387V197.233Z" fill="white"/>
<path d="M481.818 197.233H466.008V213.044H481.818V197.233Z" fill="white"/>
<path d="M497.628 197.233H481.818V213.044H497.628V197.233Z" fill="white"/>
<path d="M513.439 197.233H497.628V213.044H513.439V197.233Z" fill="white"/>
<path d="M545.059 197.233H529.249V213.044H545.059V197.233Z" fill="white"/>
<path d="M560.87 197.233H545.059V213.043C549.252 213.043 553.274 211.378 556.239 208.413C559.204 205.448 560.87 201.426 560.87 197.233Z" fill="white"/>
<path d="M70.751 213.043H62.8458C61.8077 213.043 60.7798 213.248 59.8207 213.645C58.8616 214.043 57.9901 214.625 57.2561 215.359C56.522 216.093 55.9397 216.964 55.5425 217.923C55.1452 218.883 54.9407 219.911 54.9407 220.949V228.854H62.8458C63.884 228.854 64.9119 228.649 65.871 228.252C66.8301 227.855 67.7016 227.272 68.4356 226.538C69.1697 225.804 69.752 224.933 70.1492 223.974C70.5465 223.015 70.751 221.987 70.751 220.949" fill="white"/>
<path d="M133.992 213.043H118.182V228.854C122.375 228.854 126.396 227.188 129.361 224.223C132.326 221.258 133.992 217.237 133.992 213.043Z" fill="white"/>
<path d="M149.802 228.854H165.613V213.043C161.419 213.043 157.398 214.709 154.433 217.674C151.468 220.639 149.802 224.661 149.802 228.854Z" fill="white"/>
<path d="M181.423 228.854H197.233V213.043C195.157 213.043 193.101 213.452 191.183 214.247C189.265 215.042 187.522 216.206 186.054 217.674C184.585 219.142 183.421 220.885 182.626 222.803C181.832 224.722 181.423 226.778 181.423 228.854Z" fill="white"/>
<path d="M228.854 228.854H244.664V213.043C240.471 213.043 236.449 214.709 233.484 217.674C230.519 220.639 228.854 224.661 228.854 228.854Z" fill="white"/>
<path d="M260.474 213.043H244.664V228.854H260.474V213.043Z" fill="white"/>
<path d="M276.285 213.043H260.474V228.854H276.285V213.043Z" fill="white"/>
<path d="M292.095 213.043H276.285V228.854H292.095V213.043Z" fill="white"/>
<path d="M339.526 213.043H323.715V228.854H339.526V213.043Z" fill="white"/>
<path d="M371.146 213.043H363.241C361.145 213.043 359.134 213.876 357.651 215.359C356.169 216.841 355.336 218.852 355.336 220.949V228.854H363.241C365.338 228.854 367.348 228.021 368.831 226.538C370.313 225.056 371.146 223.045 371.146 220.949" fill="white"/>
<path d="M434.387 213.043H418.577V228.854C422.77 228.854 426.792 227.188 429.757 224.223C432.722 221.258 434.387 217.237 434.387 213.043Z" fill="white"/>
<path d="M481.818 213.043H466.008V228.854H481.818V213.043Z" fill="white"/>
<path d="M513.439 213.043H497.628V228.854H513.439V213.043Z" fill="white"/>
<path d="M86.5613 228.854H78.6561C76.5596 228.854 74.5489 229.687 73.0664 231.169C71.5839 232.652 70.751 234.662 70.751 236.759V244.664H78.6561C80.7527 244.664 82.7634 243.831 84.2459 242.349C85.7284 240.866 86.5613 238.855 86.5613 236.759" fill="white"/>
<path d="M133.992 244.664H149.802V228.854C147.726 228.854 145.67 229.263 143.752 230.057C141.834 230.852 140.091 232.016 138.623 233.484C137.155 234.953 135.99 236.696 135.195 238.614C134.401 240.532 133.992 242.588 133.992 244.664Z" fill="white"/>
<path d="M165.613 228.854H149.802V244.664C153.995 244.664 158.017 242.998 160.982 240.033C163.947 237.068 165.613 233.047 165.613 228.854Z" fill="white"/>
<path d="M197.233 228.854H181.423V244.664H197.233V228.854Z" fill="white"/>
<path d="M213.043 228.854H197.233V244.664H213.043V228.854Z" fill="white"/>
<path d="M228.854 228.854H213.043V244.664C217.237 244.664 221.258 242.998 224.223 240.033C227.188 237.068 228.854 233.047 228.854 228.854Z" fill="white"/>
<path d="M260.474 228.854H244.664V244.664C248.857 244.664 252.879 242.998 255.844 240.033C258.809 237.068 260.474 233.047 260.474 228.854Z" fill="white"/>
<path d="M292.095 228.854H276.284V244.664C280.478 244.664 284.499 242.998 287.464 240.033C290.429 237.068 292.095 233.047 292.095 228.854Z" fill="white"/>
<path d="M339.526 228.854H323.715V244.664H339.526V228.854Z" fill="white"/>
<path d="M355.336 228.854H339.526V244.664H355.336V228.854Z" fill="white"/>
<path d="M386.957 244.664H402.767V228.854C398.574 228.854 394.552 230.519 391.587 233.484C388.622 236.449 386.957 240.471 386.957 244.664Z" fill="white"/>
<path d="M450.198 228.854H442.292C440.196 228.854 438.185 229.687 436.703 231.169C435.22 232.652 434.387 234.662 434.387 236.759V244.664H442.292C444.389 244.664 446.4 243.831 447.882 242.349C449.365 240.866 450.198 238.855 450.198 236.759" fill="white"/>
<path d="M481.818 228.854H466.008V244.664H481.818V228.854Z" fill="white"/>
<path d="M497.628 228.854H481.818V244.664H497.628V228.854Z" fill="white"/>
<path d="M513.439 228.854H497.628V244.664C501.822 244.664 505.843 242.998 508.808 240.033C511.773 237.068 513.439 233.047 513.439 228.854Z" fill="white"/>
<path d="M560.87 228.854H552.964C550.868 228.854 548.857 229.687 547.375 231.169C545.892 232.652 545.059 234.662 545.059 236.759V244.664H552.964C555.061 244.664 557.072 243.831 558.554 242.349C560.037 240.866 560.87 238.855 560.87 236.759" fill="white"/>
<path d="M39.1304 260.474H54.9406V244.664C50.7475 244.664 46.7261 246.33 43.7611 249.295C40.7961 252.26 39.1304 256.281 39.1304 260.474Z" fill="white"/>
<path d="M86.5613 260.474H102.372V244.664C98.1784 244.664 94.157 246.33 91.192 249.295C88.227 252.26 86.5613 256.281 86.5613 260.474Z" fill="white"/>
<path d="M118.182 244.664H102.372V260.474H118.182V244.664Z" fill="white"/>
<path d="M133.992 244.664H118.182V260.474H133.992V244.664Z" fill="white"/>
<path d="M197.233 244.664H181.423V260.474C183.499 260.474 185.555 260.065 187.473 259.271C189.391 258.476 191.134 257.312 192.602 255.844C194.071 254.375 195.235 252.633 196.03 250.714C196.824 248.796 197.233 246.74 197.233 244.664Z" fill="white"/>
<path d="M244.664 244.664H236.759C234.662 244.664 232.652 245.497 231.169 246.979C229.687 248.462 228.854 250.473 228.854 252.569V260.474H236.759C238.856 260.474 240.866 259.641 242.349 258.159C243.831 256.676 244.664 254.666 244.664 252.569" fill="white"/>
<path d="M355.336 244.664H339.526V260.474H355.336V244.664Z" fill="white"/>
<path d="M371.146 260.474H386.957V244.664C382.763 244.664 378.742 246.33 375.777 249.295C372.812 252.26 371.146 256.281 371.146 260.474Z" fill="white"/>
<path d="M402.767 244.664H386.957V260.474C391.15 260.474 395.171 258.809 398.136 255.844C401.101 252.879 402.767 248.857 402.767 244.664Z" fill="white"/>
<path d="M418.577 260.474H434.387V244.664C430.194 244.664 426.173 246.33 423.208 249.295C420.243 252.26 418.577 256.281 418.577 260.474Z" fill="white"/>
<path d="M481.818 244.664H466.008V260.474C470.201 260.474 474.222 258.809 477.187 255.844C480.152 252.879 481.818 248.857 481.818 244.664Z" fill="white"/>
<path d="M545.059 244.664H537.154C535.058 244.664 533.047 245.497 531.564 246.979C530.082 248.462 529.249 250.473 529.249 252.569V260.474H537.154C539.251 260.474 541.261 259.641 542.744 258.159C544.226 256.676 545.059 254.666 545.059 252.569" fill="white"/>
<path d="M54.9407 260.474H39.1304V276.285C43.3235 276.285 47.3449 274.619 50.3099 271.654C53.2749 268.689 54.9407 264.667 54.9407 260.474Z" fill="white"/>
<path d="M118.182 260.474H102.372V276.285H118.182V260.474Z" fill="white"/>
<path d="M133.992 260.474H118.182V276.285H133.992V260.474Z" fill="white"/>
<path d="M149.802 260.474H133.992V276.285H149.802V260.474Z" fill="white"/>
<path d="M165.613 260.474H149.802V276.285C153.995 276.285 158.017 274.619 160.982 271.654C163.947 268.689 165.613 264.667 165.613 260.474Z" fill="white"/>
<path d="M213.043 260.474H205.138C203.042 260.474 201.031 261.307 199.549 262.79C198.066 264.272 197.233 266.283 197.233 268.379V276.285H205.138C207.235 276.285 209.246 275.452 210.728 273.969C212.211 272.487 213.043 270.476 213.043 268.379" fill="white"/>
<path d="M244.664 276.285H260.474V260.474C256.281 260.474 252.26 262.14 249.295 265.105C246.33 268.07 244.664 272.091 244.664 276.285Z" fill="white"/>
<path d="M276.285 276.285H292.095V260.474C287.902 260.474 283.88 262.14 280.915 265.105C277.95 268.07 276.285 272.091 276.285 276.285Z" fill="white"/>
<path d="M307.905 260.474H292.095V276.285C296.288 276.285 300.309 274.619 303.274 271.654C306.239 268.689 307.905 264.667 307.905 260.474Z" fill="white"/>
<path d="M355.336 260.474H339.526V276.285C343.719 276.285 347.74 274.619 350.705 271.654C353.67 268.689 355.336 264.667 355.336 260.474Z" fill="white"/>
<path d="M386.957 260.474H371.146V276.285H386.957V260.474Z" fill="white"/>
<path d="M434.387 260.474H418.577V276.285C422.77 276.285 426.791 274.619 429.756 271.654C432.721 268.689 434.387 264.667 434.387 260.474Z" fill="white"/>
<path d="M450.198 276.285H466.008V260.474C461.815 260.474 457.793 262.14 454.828 265.105C451.863 268.07 450.198 272.091 450.198 276.285Z" fill="white"/>
<path d="M54.9407 292.095H70.751V276.285C66.5578 276.285 62.5364 277.95 59.5714 280.915C56.6064 283.88 54.9407 287.902 54.9407 292.095Z" fill="white"/>
<path d="M86.5613 276.285H70.751V292.095H86.5613V276.285Z" fill="white"/>
<path d="M102.372 276.285H86.5613V292.095H102.372V276.285Z" fill="white"/>
<path d="M118.182 276.285H102.372V292.095H118.182V276.285Z" fill="white"/>
<path d="M133.992 276.285H118.182V292.095C122.375 292.095 126.396 290.429 129.361 287.464C132.326 284.499 133.992 280.478 133.992 276.285Z" fill="white"/>
<path d="M181.423 292.095H197.233V276.285C193.04 276.285 189.019 277.95 186.054 280.915C183.089 283.88 181.423 287.902 181.423 292.095Z" fill="white"/>
<path d="M228.854 292.095H244.664V276.285C240.471 276.285 236.449 277.95 233.484 280.915C230.519 283.88 228.854 287.902 228.854 292.095Z" fill="white"/>
<path d="M260.474 276.285H244.664V292.095H260.474V276.285Z" fill="white"/>
<path d="M276.285 276.285H260.474V292.095H276.285V276.285Z" fill="white"/>
<path d="M323.715 292.095H339.526V276.285C335.332 276.285 331.311 277.95 328.346 280.915C325.381 283.88 323.715 287.902 323.715 292.095Z" fill="white"/>
<path d="M355.336 292.095H371.146V276.285C366.953 276.285 362.932 277.95 359.967 280.915C357.002 283.88 355.336 287.902 355.336 292.095Z" fill="white"/>
<path d="M386.957 276.285H371.146V292.095H386.957V276.285Z" fill="white"/>
<path d="M402.767 276.285H386.957V292.095H402.767V276.285Z" fill="white"/>
<path d="M434.387 292.095H450.197V276.285C446.004 276.285 441.983 277.95 439.018 280.915C436.053 283.88 434.387 287.902 434.387 292.095Z" fill="white"/>
<path d="M466.008 276.285H450.198V292.095H466.008V276.285Z" fill="white"/>
<path d="M481.818 292.095H497.628V276.285C493.435 276.285 489.414 277.95 486.449 280.915C483.484 283.88 481.818 287.902 481.818 292.095Z" fill="white"/>
<path d="M513.439 276.285H497.628V292.095H513.439V276.285Z" fill="white"/>
<path d="M529.249 276.285H513.439V292.095H529.249V276.285Z" fill="white"/>
<path d="M39.1304 307.905H54.9406V292.095C50.7475 292.095 46.7261 293.761 43.7611 296.726C40.7961 299.691 39.1304 303.712 39.1304 307.905Z" fill="white"/>
<path d="M102.372 292.095H86.5613V307.905C90.7545 307.905 94.7759 306.239 97.7409 303.274C100.706 300.309 102.372 296.288 102.372 292.095Z" fill="white"/>
<path d="M149.802 292.095H141.897C139.801 292.095 137.79 292.928 136.307 294.41C134.825 295.893 133.992 297.903 133.992 300V307.905H141.897C143.994 307.905 146.004 307.072 147.487 305.59C148.969 304.107 149.802 302.097 149.802 300" fill="white"/>
<path d="M197.233 292.095H181.423V307.905H197.233V292.095Z" fill="white"/>
<path d="M213.043 292.095H197.233V307.905H213.043V292.095Z" fill="white"/>
<path d="M228.854 292.095H213.043V307.905H228.854V292.095Z" fill="white"/>
<path d="M244.664 292.095H228.854V307.905C233.047 307.905 237.068 306.239 240.033 303.274C242.998 300.309 244.664 296.288 244.664 292.095Z" fill="white"/>
<path d="M276.285 292.095H260.474V307.905H276.285V292.095Z" fill="white"/>
<path d="M292.095 292.095H276.285V307.905H292.095V292.095Z" fill="white"/>
<path d="M307.905 292.095H292.095V307.905C296.288 307.905 300.309 306.239 303.274 303.274C306.239 300.309 307.905 296.288 307.905 292.095Z" fill="white"/>
<path d="M339.526 292.095H323.715V307.905C327.909 307.905 331.93 306.239 334.895 303.274C337.86 300.309 339.526 296.288 339.526 292.095Z" fill="white"/>
<path d="M371.146 292.095H355.336V307.905H371.146V292.095Z" fill="white"/>
<path d="M386.957 292.095H371.146V307.905H386.957V292.095Z" fill="white"/>
<path d="M402.767 292.095H386.957V307.905H402.767V292.095Z" fill="white"/>
<path d="M418.577 292.095H402.767V307.905H418.577V292.095Z" fill="white"/>
<path d="M450.197 292.095H434.387V307.905H450.197V292.095Z" fill="white"/>
<path d="M466.008 292.095H450.198V307.905H466.008V292.095Z" fill="white"/>
<path d="M497.628 292.095H481.818V307.905H497.628V292.095Z" fill="white"/>
<path d="M513.439 292.095H497.628V307.905H513.439V292.095Z" fill="white"/>
<path d="M529.249 292.095H513.439V307.905C517.632 307.905 521.653 306.239 524.618 303.274C527.583 300.309 529.249 296.288 529.249 292.095Z" fill="white"/>
<path d="M54.9406 307.905H39.1304V323.715H54.9406V307.905Z" fill="white"/>
<path d="M70.751 307.905H54.9407V323.715H70.751V307.905Z" fill="white"/>
<path d="M86.5613 307.905H70.751V323.715C74.9441 323.715 78.9656 322.05 81.9306 319.085C84.8956 316.12 86.5613 312.098 86.5613 307.905Z" fill="white"/>
<path d="M102.372 323.715H118.182V307.905C113.989 307.905 109.967 309.571 107.002 312.536C104.037 315.501 102.372 319.522 102.372 323.715Z" fill="white"/>
<path d="M133.992 307.905H118.182V323.715H133.992V307.905Z" fill="white"/>
<path d="M149.802 323.715H165.613V307.905C161.419 307.905 157.398 309.571 154.433 312.536C151.468 315.501 149.802 319.522 149.802 323.715Z" fill="white"/>
<path d="M213.043 307.905H197.233V323.715H213.043V307.905Z" fill="white"/>
<path d="M228.854 307.905H213.043V323.715H228.854V307.905Z" fill="white"/>
<path d="M276.285 307.905H260.474V323.715H276.285V307.905Z" fill="white"/>
<path d="M292.095 307.905H276.285V323.715H292.095V307.905Z" fill="white"/>
<path d="M323.715 307.905H315.81C313.714 307.905 311.703 308.738 310.22 310.22C308.738 311.703 307.905 313.714 307.905 315.81V323.715H315.81C317.907 323.715 319.917 322.883 321.4 321.4C322.882 319.918 323.715 317.907 323.715 315.81" fill="white"/>
<path d="M371.146 307.905H355.336V323.715H371.146V307.905Z" fill="white"/>
<path d="M402.767 307.905H386.957V323.715H402.767V307.905Z" fill="white"/>
<path d="M418.577 307.905H402.767V323.715H418.577V307.905Z" fill="white"/>
<path d="M434.387 307.905H418.577V323.715H434.387V307.905Z" fill="white"/>
<path d="M450.197 307.905H434.387V323.715H450.197V307.905Z" fill="white"/>
<path d="M466.008 307.905H450.198V323.715H466.008V307.905Z" fill="white"/>
<path d="M497.628 307.905H481.818V323.715H497.628V307.905Z" fill="white"/>
<path d="M513.439 307.905H497.628V323.715C501.822 323.715 505.843 322.05 508.808 319.085C511.773 316.12 513.439 312.098 513.439 307.905Z" fill="white"/>
<path d="M529.249 323.715H545.059V307.905C540.866 307.905 536.845 309.571 533.88 312.536C530.915 315.501 529.249 319.522 529.249 323.715Z" fill="white"/>
<path d="M560.87 307.905H545.059V323.715C549.252 323.715 553.274 322.05 556.239 319.085C559.204 316.12 560.87 312.098 560.87 307.905Z" fill="white"/>
<path d="M70.751 323.715H54.9407V339.526C59.1338 339.526 63.1552 337.86 66.1202 334.895C69.0853 331.93 70.751 327.909 70.751 323.715Z" fill="white"/>
<path d="M118.182 323.715H102.372V339.526H118.182V323.715Z" fill="white"/>
<path d="M133.992 323.715H118.182V339.526H133.992V323.715Z" fill="white"/>
<path d="M149.802 323.715H133.992V339.526H149.802V323.715Z" fill="white"/>
<path d="M165.613 323.715H149.802V339.526C153.995 339.526 158.017 337.86 160.982 334.895C163.947 331.93 165.613 327.909 165.613 323.715Z" fill="white"/>
<path d="M181.423 339.526H197.233V323.715C193.04 323.715 189.019 325.381 186.054 328.346C183.089 331.311 181.423 335.333 181.423 339.526Z" fill="white"/>
<path d="M213.043 323.715H197.233V339.526H213.043V323.715Z" fill="white"/>
<path d="M228.854 323.715H213.043V339.526H228.854V323.715Z" fill="white"/>
<path d="M244.664 323.715H228.854V339.526C233.047 339.526 237.068 337.86 240.033 334.895C242.998 331.93 244.664 327.909 244.664 323.715Z" fill="white"/>
<path d="M276.285 323.715H260.474V339.526H276.285V323.715Z" fill="white"/>
<path d="M292.095 323.715H276.285V339.526H292.095V323.715Z" fill="white"/>
<path d="M307.905 323.715H292.095V339.526H307.905V323.715Z" fill="white"/>
<path d="M371.146 323.715H355.336V339.526H371.146V323.715Z" fill="white"/>
<path d="M386.957 323.715H371.146V339.526C375.339 339.526 379.361 337.86 382.326 334.895C385.291 331.93 386.957 327.909 386.957 323.715Z" fill="white"/>
<path d="M434.387 323.715H418.577V339.526H434.387V323.715Z" fill="white"/>
<path d="M450.197 323.715H434.387V339.526H450.197V323.715Z" fill="white"/>
<path d="M466.008 323.715H450.198V339.526H466.008V323.715Z" fill="white"/>
<path d="M481.818 323.715H466.008V339.526H481.818V323.715Z" fill="white"/>
<path d="M497.628 323.715H481.818V339.526H497.628V323.715Z" fill="white"/>
<path d="M513.439 339.526H529.249V323.715C525.056 323.715 521.034 325.381 518.069 328.346C515.104 331.311 513.439 335.333 513.439 339.526Z" fill="white"/>
<path d="M545.059 323.715H529.249V339.526H545.059V323.715Z" fill="white"/>
<path d="M54.9407 339.526H47.0355C44.939 339.526 42.9283 340.359 41.4458 341.841C39.9633 343.324 39.1304 345.334 39.1304 347.431V355.336H47.0355C49.1321 355.336 51.1428 354.503 52.6253 353.021C54.1078 351.538 54.9407 349.527 54.9407 347.431" fill="white"/>
<path d="M102.372 339.526H94.4665C93.4283 339.526 92.4004 339.73 91.4413 340.127C90.4822 340.525 89.6107 341.107 88.8767 341.841C88.1426 342.575 87.5603 343.447 87.1631 344.406C86.7658 345.365 86.5613 346.393 86.5613 347.431V355.336H94.4665C96.563 355.336 98.5737 354.503 100.056 353.021C101.539 351.538 102.372 349.527 102.372 347.431" fill="white"/>
<path d="M133.992 339.526H118.182V355.336H133.992V339.526Z" fill="white"/>
<path d="M165.613 355.336H181.423V339.526C177.23 339.526 173.208 341.191 170.243 344.156C167.278 347.121 165.613 351.143 165.613 355.336Z" fill="white"/>
<path d="M197.233 339.526H181.423V355.336H197.233V339.526Z" fill="white"/>
<path d="M213.043 339.526H197.233V355.336H213.043V339.526Z" fill="white"/>
<path d="M228.854 339.526H213.043V355.336H228.854V339.526Z" fill="white"/>
<path d="M244.664 355.336H260.474V339.526C256.281 339.526 252.26 341.191 249.295 344.156C246.33 347.121 244.664 351.143 244.664 355.336Z" fill="white"/>
<path d="M307.905 339.526H292.095V355.336H307.905V339.526Z" fill="white"/>
<path d="M323.715 339.526H307.905V355.336H323.715V339.526Z" fill="white"/>
<path d="M339.526 339.526H323.715V355.336C327.909 355.336 331.93 353.67 334.895 350.705C337.86 347.74 339.526 343.719 339.526 339.526Z" fill="white"/>
<path d="M371.146 339.526H355.336V355.336C359.529 355.336 363.551 353.67 366.516 350.705C369.481 347.74 371.146 343.719 371.146 339.526Z" fill="white"/>
<path d="M434.387 339.526H418.577V355.336H434.387V339.526Z" fill="white"/>
<path d="M450.197 339.526H434.387V355.336H450.197V339.526Z" fill="white"/>
<path d="M497.628 339.526H481.818V355.336C486.011 355.336 490.033 353.67 492.998 350.705C495.963 347.74 497.628 343.719 497.628 339.526Z" fill="white"/>
<path d="M545.059 339.526H529.249V355.336C533.442 355.336 537.463 353.67 540.428 350.705C543.393 347.74 545.059 343.719 545.059 339.526Z" fill="white"/>
<path d="M102.372 371.146H118.182V355.336C113.989 355.336 109.967 357.002 107.002 359.967C104.037 362.932 102.372 366.953 102.372 371.146Z" fill="white"/>
<path d="M133.992 355.336H118.182V371.146H133.992V355.336Z" fill="white"/>
<path d="M149.802 355.336H133.992V371.146H149.802V355.336Z" fill="white"/>
<path d="M165.613 355.336H149.802V371.146H165.613V355.336Z" fill="white"/>
<path d="M181.423 355.336H165.613V371.146H181.423V355.336Z" fill="white"/>
<path d="M197.233 355.336H181.423V371.146H197.233V355.336Z" fill="white"/>
<path d="M213.043 355.336H197.233V371.146H213.043V355.336Z" fill="white"/>
<path d="M228.854 355.336H213.043V371.146C217.237 371.146 221.258 369.481 224.223 366.516C227.188 363.551 228.854 359.529 228.854 355.336Z" fill="white"/>
<path d="M260.474 355.336H244.664V371.146H260.474V355.336Z" fill="white"/>
<path d="M276.285 355.336H260.474V371.146C264.668 371.146 268.689 369.481 271.654 366.516C274.619 363.551 276.285 359.529 276.285 355.336Z" fill="white"/>
<path d="M386.957 355.336H379.051C376.955 355.336 374.944 356.169 373.462 357.651C371.979 359.134 371.146 361.145 371.146 363.241V371.146H379.051C381.148 371.146 383.159 370.313 384.641 368.831C386.124 367.348 386.957 365.338 386.957 363.241" fill="white"/>
<path d="M402.767 371.146H418.577V355.336C414.384 355.336 410.363 357.002 407.398 359.967C404.433 362.932 402.767 366.953 402.767 371.146Z" fill="white"/>
<path d="M450.198 355.336H434.387V371.146C438.58 371.146 442.602 369.481 445.567 366.516C448.532 363.551 450.198 359.529 450.198 355.336Z" fill="white"/>
<path d="M497.628 371.146H513.439V355.336C509.246 355.336 505.224 357.002 502.259 359.967C499.294 362.932 497.628 366.953 497.628 371.146Z" fill="white"/>
<path d="M529.249 355.336H513.439V371.146C517.632 371.146 521.653 369.481 524.618 366.516C527.583 363.551 529.249 359.529 529.249 355.336Z" fill="white"/>
<path d="M39.1304 386.957H54.9406V371.146C50.7475 371.146 46.7261 372.812 43.7611 375.777C40.7961 378.742 39.1304 382.763 39.1304 386.957Z" fill="white"/>
<path d="M70.751 371.146H54.9407V386.957C59.1339 386.957 63.1552 385.291 66.1202 382.326C69.0853 379.361 70.751 375.339 70.751 371.146Z" fill="white"/>
<path d="M118.182 371.146H102.372V386.957H118.182V371.146Z" fill="white"/>
<path d="M133.992 371.146H118.182V386.957C122.375 386.957 126.396 385.291 129.361 382.326C132.326 379.361 133.992 375.339 133.992 371.146Z" fill="white"/>
<path d="M228.854 386.957H244.664V371.146C240.471 371.146 236.449 372.812 233.484 375.777C230.519 378.742 228.854 382.763 228.854 386.957Z" fill="white"/>
<path d="M260.474 371.146H244.664V386.957H260.474V371.146Z" fill="white"/>
<path d="M276.285 386.957H292.095V371.146C287.902 371.146 283.88 372.812 280.915 375.777C277.95 378.742 276.285 382.763 276.285 386.957Z" fill="white"/>
<path d="M307.905 371.146H292.095V386.957H307.905V371.146Z" fill="white"/>
<path d="M323.715 371.146H307.905V386.957H323.715V371.146Z" fill="white"/>
<path d="M339.526 371.146H323.715V386.957H339.526V371.146Z" fill="white"/>
<path d="M355.336 371.146H339.526V386.957H355.336V371.146Z" fill="white"/>
<path d="M371.146 371.146H355.336V386.957C359.529 386.957 363.551 385.291 366.516 382.326C369.481 379.361 371.146 375.339 371.146 371.146Z" fill="white"/>
<path d="M418.577 371.146H402.767V386.957H418.577V371.146Z" fill="white"/>
<path d="M450.198 386.957H466.008V371.146C461.815 371.146 457.793 372.812 454.828 375.777C451.863 378.742 450.198 382.763 450.198 386.957Z" fill="white"/>
<path d="M481.818 371.146H466.008V386.956C470.201 386.956 474.222 385.291 477.187 382.326C480.152 379.361 481.818 375.339 481.818 371.146Z" fill="white"/>
<path d="M545.059 386.957H560.87V371.146C556.676 371.146 552.655 372.812 549.69 375.777C546.725 378.742 545.059 382.763 545.059 386.957Z" fill="white"/>
<path d="M86.5613 402.767H102.372V386.957C98.1784 386.957 94.157 388.622 91.192 391.587C88.227 394.552 86.5613 398.574 86.5613 402.767Z" fill="white"/>
<path d="M118.182 386.957H102.372V402.767C106.565 402.767 110.586 401.101 113.551 398.136C116.516 395.171 118.182 391.15 118.182 386.957Z" fill="white"/>
<path d="M149.802 386.957H141.897C139.801 386.957 137.79 387.789 136.307 389.272C134.825 390.754 133.992 392.765 133.992 394.862V402.767H141.897C143.994 402.767 146.004 401.934 147.487 400.451C148.969 398.969 149.802 396.958 149.802 394.862" fill="white"/>
<path d="M197.233 386.957H189.328C187.231 386.957 185.221 387.789 183.738 389.272C182.256 390.754 181.423 392.765 181.423 394.862V402.767H189.328C191.425 402.767 193.435 401.934 194.918 400.451C196.4 398.969 197.233 396.958 197.233 394.862" fill="white"/>
<path d="M244.664 386.957H228.854V402.767H244.664V386.957Z" fill="white"/>
<path d="M260.474 386.957H244.664V402.767C248.857 402.767 252.879 401.101 255.844 398.136C258.809 395.171 260.474 391.15 260.474 386.957Z" fill="white"/>
<path d="M292.095 386.957H276.284V402.767C280.478 402.767 284.499 401.101 287.464 398.136C290.429 395.171 292.095 391.15 292.095 386.957Z" fill="white"/>
<path d="M323.715 386.957H307.905V402.767H323.715V386.957Z" fill="white"/>
<path d="M339.526 386.957H323.715V402.767H339.526V386.957Z" fill="white"/>
<path d="M386.957 402.767H402.767V386.956C398.574 386.956 394.552 388.622 391.587 391.587C388.622 394.552 386.957 398.574 386.957 402.767Z" fill="white"/>
<path d="M418.577 386.957H402.767V402.767H418.577V386.957Z" fill="white"/>
<path d="M434.387 386.957H418.577V402.767H434.387V386.957Z" fill="white"/>
<path d="M450.197 386.957H434.387V402.767H450.197V386.957Z" fill="white"/>
<path d="M466.008 386.957H450.198V402.767H466.008V386.957Z" fill="white"/>
<path d="M481.818 402.767H497.628V386.957C493.435 386.957 489.414 388.622 486.449 391.587C483.484 394.552 481.818 398.574 481.818 402.767Z" fill="white"/>
<path d="M513.439 386.957H497.628V402.767H513.439V386.957Z" fill="white"/>
<path d="M529.249 402.767H545.059V386.957C540.866 386.957 536.845 388.622 533.88 391.587C530.915 394.552 529.249 398.574 529.249 402.767Z" fill="white"/>
<path d="M560.87 386.957H545.059V402.767H560.87V386.957Z" fill="white"/>
<path d="M54.9407 418.577H70.7509V402.767C66.5578 402.767 62.5364 404.432 59.5714 407.397C56.6064 410.362 54.9407 414.384 54.9407 418.577Z" fill="white"/>
<path d="M86.5613 402.767H70.751V418.577C74.9442 418.577 78.9656 416.911 81.9306 413.946C84.8956 410.981 86.5613 406.96 86.5613 402.767Z" fill="white"/>
<path d="M133.992 402.767H126.087C125.049 402.767 124.021 402.971 123.062 403.369C122.103 403.766 121.231 404.348 120.497 405.082C119.763 405.816 119.181 406.688 118.783 407.647C118.386 408.606 118.182 409.634 118.182 410.672V418.577H126.087C128.183 418.577 130.194 417.744 131.677 416.262C133.159 414.779 133.992 412.769 133.992 410.672" fill="white"/>
<path d="M197.233 418.577H213.043V402.767C208.85 402.767 204.829 404.432 201.864 407.397C198.899 410.362 197.233 414.384 197.233 418.577Z" fill="white"/>
<path d="M228.854 402.767H213.043V418.577H228.854V402.767Z" fill="white"/>
<path d="M244.664 402.767H228.854V418.577C233.047 418.577 237.068 416.911 240.033 413.946C242.998 410.981 244.664 406.96 244.664 402.767Z" fill="white"/>
<path d="M292.095 418.577H307.905V402.767C303.712 402.767 299.69 404.432 296.725 407.397C293.76 410.362 292.095 414.384 292.095 418.577Z" fill="white"/>
<path d="M323.715 402.767H307.905V418.577H323.715V402.767Z" fill="white"/>
<path d="M339.526 402.767H323.715V418.577H339.526V402.767Z" fill="white"/>
<path d="M355.336 402.767H339.526V418.577H355.336V402.767Z" fill="white"/>
<path d="M371.146 402.767H355.336V418.577C359.529 418.577 363.551 416.911 366.516 413.946C369.481 410.981 371.146 406.96 371.146 402.767Z" fill="white"/>
<path d="M402.767 402.767H386.957V418.577H402.767V402.767Z" fill="white"/>
<path d="M450.197 402.767H434.387V418.577H450.197V402.767Z" fill="white"/>
<path d="M466.008 402.767H450.198V418.577H466.008V402.767Z" fill="white"/>
<path d="M497.628 402.767H481.818V418.577H497.628V402.767Z" fill="white"/>
<path d="M513.439 402.767H497.628V418.577H513.439V402.767Z" fill="white"/>
<path d="M545.059 402.767H529.249V418.577H545.059V402.767Z" fill="white"/>
<path d="M560.87 402.767H545.059V418.577H560.87V402.767Z" fill="white"/>
<path d="M54.9407 418.577H47.0355C44.939 418.577 42.9283 419.41 41.4458 420.892C39.9633 422.375 39.1304 424.386 39.1304 426.482V434.387H47.0355C49.1321 434.387 51.1428 433.554 52.6253 432.072C54.1078 430.589 54.9407 428.579 54.9407 426.482" fill="white"/>
<path d="M118.182 418.577H110.277C108.18 418.577 106.169 419.41 104.687 420.892C103.204 422.375 102.372 424.386 102.372 426.482V434.387H110.277C112.373 434.387 114.384 433.554 115.866 432.072C117.349 430.589 118.182 428.579 118.182 426.482" fill="white"/>
<path d="M149.802 418.577H141.897C139.801 418.577 137.79 419.41 136.307 420.892C134.825 422.375 133.992 424.386 133.992 426.482V434.387H141.897C143.994 434.387 146.004 433.554 147.487 432.072C148.969 430.589 149.802 428.579 149.802 426.482" fill="white"/>
<path d="M165.613 434.387H181.423V418.577C177.23 418.577 173.208 420.243 170.243 423.208C167.278 426.173 165.613 430.194 165.613 434.387Z" fill="white"/>
<path d="M244.664 434.387H260.474V418.577C256.281 418.577 252.26 420.243 249.295 423.208C246.33 426.173 244.664 430.194 244.664 434.387Z" fill="white"/>
<path d="M276.285 418.577H260.474V434.387C264.668 434.387 268.689 432.722 271.654 429.757C274.619 426.792 276.285 422.77 276.285 418.577Z" fill="white"/>
<path d="M355.336 418.577H339.526V434.387H355.336V418.577Z" fill="white"/>
<path d="M402.767 418.577H386.957V434.387H402.767V418.577Z" fill="white"/>
<path d="M418.577 434.387H434.387V418.577C430.194 418.577 426.173 420.243 423.208 423.208C420.243 426.173 418.577 430.194 418.577 434.387Z" fill="white"/>
<path d="M450.197 418.577H434.387V434.387H450.197V418.577Z" fill="white"/>
<path d="M466.008 418.577H450.198V434.387H466.008V418.577Z" fill="white"/>
<path d="M481.818 418.577H466.008V434.387H481.818V418.577Z" fill="white"/>
<path d="M497.628 418.577H481.818V434.387H497.628V418.577Z" fill="white"/>
<path d="M513.439 418.577H497.628V434.387H513.439V418.577Z" fill="white"/>
<path d="M545.059 418.577H529.249V434.387H545.059V418.577Z" fill="white"/>
<path d="M560.87 418.577H545.059V434.387C549.252 434.387 553.274 432.722 556.239 429.757C559.204 426.792 560.87 422.77 560.87 418.577Z" fill="white"/>
<path d="M181.423 434.387H165.613V450.198C169.806 450.198 173.827 448.532 176.792 445.567C179.757 442.602 181.423 438.58 181.423 434.387Z" fill="white"/>
<path d="M197.233 450.198H213.043V434.387C208.85 434.387 204.829 436.053 201.864 439.018C198.899 441.983 197.233 446.004 197.233 450.198Z" fill="white"/>
<path d="M228.854 434.387H213.043V450.198H228.854V434.387Z" fill="white"/>
<path d="M244.664 434.387H228.854V450.198H244.664V434.387Z" fill="white"/>
<path d="M260.474 434.387H244.664V450.198C248.857 450.198 252.879 448.532 255.844 445.567C258.809 442.602 260.474 438.58 260.474 434.387Z" fill="white"/>
<path d="M276.285 450.198H292.095V434.387C287.902 434.387 283.88 436.053 280.915 439.018C277.95 441.983 276.285 446.004 276.285 450.198Z" fill="white"/>
<path d="M355.336 434.387H339.526V450.198H355.336V434.387Z" fill="white"/>
<path d="M402.767 434.387H386.957V450.198H402.767V434.387Z" fill="white"/>
<path d="M418.577 434.387H402.767V450.198H418.577V434.387Z" fill="white"/>
<path d="M434.387 434.387H418.577V450.198H434.387V434.387Z" fill="white"/>
<path d="M497.628 434.387H481.818V450.198H497.628V434.387Z" fill="white"/>
<path d="M513.439 434.387H497.628V450.198C501.822 450.198 505.843 448.532 508.808 445.567C511.773 442.602 513.439 438.58 513.439 434.387Z" fill="white"/>
<path d="M213.043 450.198H197.233V466.008C201.426 466.008 205.448 464.342 208.413 461.377C211.378 458.412 213.043 454.391 213.043 450.198Z" fill="white"/>
<path d="M244.664 450.198H228.854V466.008C233.047 466.008 237.068 464.342 240.033 461.377C242.998 458.412 244.664 454.391 244.664 450.198Z" fill="white"/>
<path d="M260.474 466.008H276.285V450.198C272.091 450.198 268.07 451.863 265.105 454.828C262.14 457.793 260.474 461.815 260.474 466.008Z" fill="white"/>
<path d="M292.095 450.198H276.285V466.008H292.095V450.198Z" fill="white"/>
<path d="M307.905 466.008H323.715V450.198C319.522 450.198 315.501 451.863 312.536 454.828C309.571 457.793 307.905 461.815 307.905 466.008Z" fill="white"/>
<path d="M339.526 450.198H323.715V466.008H339.526V450.198Z" fill="white"/>
<path d="M355.336 450.198H339.526V466.008C343.719 466.008 347.74 464.342 350.705 461.377C353.67 458.412 355.336 454.391 355.336 450.198Z" fill="white"/>
<path d="M418.577 450.198H402.767V466.008H418.577V450.198Z" fill="white"/>
<path d="M434.387 450.198H418.577V466.008H434.387V450.198Z" fill="white"/>
<path d="M466.008 450.198H458.103C456.006 450.198 453.995 451.03 452.513 452.513C451.03 453.995 450.198 456.006 450.198 458.103V466.008H458.103C460.199 466.008 462.21 465.175 463.692 463.693C465.175 462.21 466.008 460.199 466.008 458.103" fill="white"/>
<path d="M497.628 450.198H481.818V466.008H497.628V450.198Z" fill="white"/>
<path d="M181.423 466.008H173.518C171.421 466.008 169.41 466.841 167.928 468.323C166.445 469.806 165.613 471.816 165.613 473.913V481.818H173.518C175.614 481.818 177.625 480.985 179.107 479.503C180.59 478.02 181.423 476.01 181.423 473.913" fill="white"/>
<path d="M213.043 481.818H228.854V466.008C224.661 466.008 220.639 467.674 217.674 470.639C214.709 473.604 213.043 477.625 213.043 481.818Z" fill="white"/>
<path d="M276.285 466.008H260.474V481.818H276.285V466.008Z" fill="white"/>
<path d="M292.095 466.008H276.285V481.818H292.095V466.008Z" fill="white"/>
<path d="M355.336 481.818H371.146V466.008C366.953 466.008 362.932 467.674 359.967 470.639C357.002 473.604 355.336 477.625 355.336 481.818Z" fill="white"/>
<path d="M386.957 466.008H371.146V481.818H386.957V466.008Z" fill="white"/>
<path d="M402.767 466.008H386.957V481.818H402.767V466.008Z" fill="white"/>
<path d="M418.577 466.008H402.767V481.818H418.577V466.008Z" fill="white"/>
<path d="M434.387 466.008H418.577V481.818H434.387V466.008Z" fill="white"/>
<path d="M497.628 466.008H481.818V481.818H497.628V466.008Z" fill="white"/>
<path d="M513.439 466.008H497.628V481.818H513.439V466.008Z" fill="white"/>
<path d="M529.249 466.008H513.439V481.818H529.249V466.008Z" fill="white"/>
<path d="M560.87 466.008H552.964C550.868 466.008 548.857 466.841 547.375 468.323C545.892 469.806 545.059 471.816 545.059 473.913V481.818H552.964C555.061 481.818 557.072 480.985 558.554 479.503C560.037 478.02 560.87 476.01 560.87 473.913" fill="white"/>
<path d="M181.423 497.628H197.233V481.818C195.157 481.818 193.101 482.227 191.183 483.022C189.265 483.816 187.522 484.981 186.054 486.449C184.585 487.917 183.421 489.66 182.626 491.578C181.832 493.496 181.423 495.552 181.423 497.628Z" fill="white"/>
<path d="M213.043 481.818H197.233V497.628H213.043V481.818Z" fill="white"/>
<path d="M228.854 481.818H213.043V497.628H228.854V481.818Z" fill="white"/>
<path d="M292.095 481.818H276.285V497.628H292.095V481.818Z" fill="white"/>
<path d="M371.146 481.818H355.336V497.628H371.146V481.818Z" fill="white"/>
<path d="M386.957 481.818H371.146V497.628H386.957V481.818Z" fill="white"/>
<path d="M402.767 481.818H386.957V497.628H402.767V481.818Z" fill="white"/>
<path d="M418.577 481.818H402.767V497.628H418.577V481.818Z" fill="white"/>
<path d="M434.387 481.818H418.577V497.628H434.387V481.818Z" fill="white"/>
<path d="M450.197 481.818H434.387V497.628H450.197V481.818Z" fill="white"/>
<path d="M466.008 481.818H450.198V497.628H466.008V481.818Z" fill="white"/>
<path d="M481.818 481.818H466.008V497.628H481.818V481.818Z" fill="white"/>
<path d="M497.628 481.818H481.818V497.628C486.011 497.628 490.033 495.963 492.998 492.998C495.963 490.033 497.628 486.011 497.628 481.818Z" fill="white"/>
<path d="M529.249 481.818H513.439V497.628H529.249V481.818Z" fill="white"/>
<path d="M545.059 481.818H529.249V497.628H545.059V481.818Z" fill="white"/>
<path d="M165.613 513.439H181.423V497.628C177.23 497.628 173.208 499.294 170.243 502.259C167.278 505.224 165.613 509.246 165.613 513.439Z" fill="white"/>
<path d="M213.043 497.628H197.233V513.439H213.043V497.628Z" fill="white"/>
<path d="M228.854 497.628H213.043V513.439H228.854V497.628Z" fill="white"/>
<path d="M244.664 497.628H228.854V513.439H244.664V497.628Z" fill="white"/>
<path d="M260.474 497.628H244.664V513.439H260.474V497.628Z" fill="white"/>
<path d="M292.095 497.628H276.285V513.439H292.095V497.628Z" fill="white"/>
<path d="M307.905 513.439H323.715V497.628C319.522 497.628 315.501 499.294 312.536 502.259C309.571 505.224 307.905 509.246 307.905 513.439Z" fill="white"/>
<path d="M339.526 497.628H323.715V513.439C327.909 513.439 331.93 511.773 334.895 508.808C337.86 505.843 339.526 501.822 339.526 497.628Z" fill="white"/>
<path d="M402.767 497.628H386.957V513.439H402.767V497.628Z" fill="white"/>
<path d="M418.577 497.628H402.767V513.439C406.96 513.439 410.981 511.773 413.946 508.808C416.911 505.843 418.577 501.822 418.577 497.628Z" fill="white"/>
<path d="M481.818 497.628H466.008V513.439H481.818V497.628Z" fill="white"/>
<path d="M497.628 513.439H513.439V497.628C509.246 497.628 505.224 499.294 502.259 502.259C499.294 505.224 497.628 509.246 497.628 513.439Z" fill="white"/>
<path d="M545.059 497.628H529.249V513.439H545.059V497.628Z" fill="white"/>
<path d="M560.87 497.628H545.059V513.439C549.253 513.439 553.274 511.773 556.239 508.808C559.204 505.843 560.87 501.822 560.87 497.628Z" fill="white"/>
<path d="M181.423 513.439H165.613V529.249H181.423V513.439Z" fill="white"/>
<path d="M228.854 513.439H213.043V529.249H228.854V513.439Z" fill="white"/>
<path d="M260.474 513.439H244.664V529.249H260.474V513.439Z" fill="white"/>
<path d="M292.095 513.439H276.285V529.249H292.095V513.439Z" fill="white"/>
<path d="M307.905 513.439H292.095V529.249H307.905V513.439Z" fill="white"/>
<path d="M371.146 529.249H386.957V513.439C382.763 513.439 378.742 515.104 375.777 518.069C372.812 521.034 371.146 525.056 371.146 529.249Z" fill="white"/>
<path d="M402.767 513.439H386.957V529.249H402.767V513.439Z" fill="white"/>
<path d="M450.198 529.249H466.008V513.439C461.815 513.439 457.793 515.104 454.828 518.069C451.863 521.034 450.198 525.056 450.198 529.249Z" fill="white"/>
<path d="M481.818 513.439H466.008V529.249H481.818V513.439Z" fill="white"/>
<path d="M513.439 513.439H497.628V529.249H513.439V513.439Z" fill="white"/>
<path d="M529.249 513.439H513.439V529.249C517.632 529.249 521.653 527.583 524.618 524.618C527.583 521.653 529.249 517.632 529.249 513.439Z" fill="white"/>
<path d="M181.423 529.249H165.613V545.059C169.806 545.059 173.827 543.394 176.792 540.429C179.757 537.464 181.423 533.442 181.423 529.249Z" fill="white"/>
<path d="M197.233 545.059H213.043V529.249C208.85 529.249 204.829 530.915 201.864 533.88C198.899 536.845 197.233 540.866 197.233 545.059Z" fill="white"/>
<path d="M228.854 529.249H213.043V545.059C217.237 545.059 221.258 543.394 224.223 540.429C227.188 537.464 228.854 533.442 228.854 529.249Z" fill="white"/>
<path d="M260.474 529.249H244.664V545.059H260.474V529.249Z" fill="white"/>
<path d="M292.095 529.249H276.285V545.059H292.095V529.249Z" fill="white"/>
<path d="M307.905 529.249H292.095V545.059C296.288 545.059 300.309 543.394 303.274 540.429C306.239 537.464 307.905 533.442 307.905 529.249Z" fill="white"/>
<path d="M355.336 529.249H347.431C345.334 529.249 343.324 530.082 341.841 531.564C340.359 533.047 339.526 535.058 339.526 537.154V545.059H347.431C349.527 545.059 351.538 544.226 353.021 542.744C354.503 541.261 355.336 539.251 355.336 537.154" fill="white"/>
<path d="M402.767 529.249H386.957V545.059H402.767V529.249Z" fill="white"/>
<path d="M418.577 529.249H402.767V545.059H418.577V529.249Z" fill="white"/>
<path d="M434.387 529.249H418.577V545.059H434.387V529.249Z" fill="white"/>
<path d="M450.198 529.249H434.387V545.059C438.58 545.059 442.602 543.394 445.567 540.429C448.532 537.464 450.198 533.442 450.198 529.249Z" fill="white"/>
<path d="M481.818 529.249H466.008V545.059H481.818V529.249Z" fill="white"/>
<path d="M497.628 529.249H481.818V545.059H497.628V529.249Z" fill="white"/>
<path d="M560.87 529.249H552.964C550.868 529.249 548.857 530.082 547.375 531.564C545.892 533.047 545.059 535.058 545.059 537.154V545.059H552.964C555.061 545.059 557.072 544.226 558.554 542.744C560.037 541.261 560.87 539.251 560.87 537.154" fill="white"/>
<path d="M213.043 545.059H197.233V560.87C201.426 560.87 205.448 559.204 208.413 556.239C211.378 553.274 213.043 549.252 213.043 545.059Z" fill="white"/>
<path d="M228.854 560.87H244.664V545.059C240.471 545.059 236.449 546.725 233.484 549.69C230.519 552.655 228.854 556.676 228.854 560.87Z" fill="white"/>
<path d="M260.474 545.059H244.664V560.87H260.474V545.059Z" fill="white"/>
<path d="M276.285 545.059H260.474V560.87H276.285V545.059Z" fill="white"/>
<path d="M292.095 545.059H276.284V560.87C280.478 560.87 284.499 559.204 287.464 556.239C290.429 553.274 292.095 549.252 292.095 545.059Z" fill="white"/>
<path d="M355.336 560.87H371.146V545.059C366.953 545.059 362.932 546.725 359.967 549.69C357.002 552.655 355.336 556.676 355.336 560.87Z" fill="white"/>
<path d="M386.957 545.059H371.146V560.87C375.339 560.87 379.361 559.204 382.326 556.239C385.291 553.274 386.957 549.252 386.957 545.059Z" fill="white"/>
<path d="M418.577 545.059H402.767V560.87C406.96 560.87 410.981 559.204 413.946 556.239C416.911 553.274 418.577 549.252 418.577 545.059Z" fill="white"/>
<path d="M466.008 545.059H458.103C456.006 545.059 453.995 545.892 452.513 547.375C451.03 548.857 450.198 550.868 450.198 552.964V560.87H458.103C460.199 560.87 462.21 560.037 463.692 558.554C465.175 557.072 466.008 555.061 466.008 552.964" fill="white"/>
<path d="M497.628 545.059H481.818V560.87C486.011 560.87 490.033 559.204 492.998 556.239C495.963 553.274 497.628 549.252 497.628 545.059Z" fill="white"/>
<path d="M529.249 545.059H521.344C519.247 545.059 517.237 545.892 515.754 547.375C514.272 548.857 513.439 550.868 513.439 552.964V560.87H521.344C522.382 560.87 523.41 560.665 524.369 560.268C525.328 559.871 526.2 559.288 526.934 558.554C527.668 557.82 528.25 556.949 528.647 555.99C529.045 555.031 529.249 554.003 529.249 552.964" fill="white"/>
</mask>
<g mask="url(#mask1_1_1696)">
<path d="M600 0H0V600H600V0Z" fill="black"/>
</g>
<mask id="mask2_1_1696" style="mask-type:luminance" maskUnits="userSpaceOnUse" x="39" y="39" width="111" height="111">
<path fill-rule="evenodd" clip-rule="evenodd" d="M39.1304 39.1304V149.802H149.802V39.1304H39.1304ZM54.9406 54.9407H133.992V133.992H54.9406V54.9407Z" fill="white"/>
</mask>
<g mask="url(#mask2_1_1696)">
<path d="M149.802 39.1304H39.1304V149.802H149.802V39.1304Z" fill="black"/>
</g>
<mask id="mask3_1_1696" style="mask-type:luminance" maskUnits="userSpaceOnUse" x="70" y="70" width="49" height="49">
<path d="M118.182 70.751H70.751V118.182H118.182V70.751Z" fill="white"/>
</mask>
<g mask="url(#mask3_1_1696)">
<path d="M118.182 70.751H70.751V118.182H118.182V70.751Z" fill="black"/>
</g>
<mask id="mask4_1_1696" style="mask-type:luminance" maskUnits="userSpaceOnUse" x="450" y="39" width="111" height="111">
<path fill-rule="evenodd" clip-rule="evenodd" d="M560.87 39.1304L450.198 39.1304V149.802H560.87V39.1304ZM545.059 54.9407V133.992H466.008V54.9407L545.059 54.9407Z" fill="white"/>
</mask>
<g mask="url(#mask4_1_1696)">
<path d="M560.87 39.1304H450.198V149.802H560.87V39.1304Z" fill="black"/>
</g>
<mask id="mask5_1_1696" style="mask-type:luminance" maskUnits="userSpaceOnUse" x="481" y="70" width="49" height="49">
<path d="M529.249 118.182V70.751H481.818V118.182H529.249Z" fill="white"/>
</mask>
<g mask="url(#mask5_1_1696)">
<path d="M529.249 70.751H481.818V118.182H529.249V70.751Z" fill="black"/>
</g>
<mask id="mask6_1_1696" style="mask-type:luminance" maskUnits="userSpaceOnUse" x="39" y="450" width="111" height="111">
<path fill-rule="evenodd" clip-rule="evenodd" d="M39.1304 560.87H149.802V450.198H39.1304L39.1304 560.87ZM54.9406 545.059L54.9406 466.008H133.992V545.059H54.9406Z" fill="white"/>
</mask>
<g mask="url(#mask6_1_1696)">
<path d="M149.802 450.198H39.1304V560.87H149.802V450.198Z" fill="black"/>
</g>
<mask id="mask7_1_1696" style="mask-type:luminance" maskUnits="userSpaceOnUse" x="70" y="481" width="49" height="49">
<path d="M70.751 481.818V529.249H118.182V481.818H70.751Z" fill="white"/>
</mask>
<g mask="url(#mask7_1_1696)">
<path d="M118.182 481.818H70.751V529.249H118.182V481.818Z" fill="black"/>
</g>
</g>
<path d="M65.4411 628.545V694H53.6798V638.389H25.0434V694H13.282V628.545H65.4411ZM78.9161 712.409V644.909H90.294V653.027H90.9651C91.5617 651.834 92.4033 650.566 93.49 649.224C94.5766 647.86 96.0468 646.699 97.9005 645.74C99.7542 644.76 102.119 644.27 104.996 644.27C108.788 644.27 112.208 645.239 115.255 647.178C118.323 649.096 120.752 651.94 122.542 655.712C124.353 659.462 125.258 664.064 125.258 669.518C125.258 674.909 124.374 679.49 122.606 683.261C120.837 687.033 118.43 689.909 115.383 691.891C112.336 693.872 108.884 694.863 105.028 694.863C102.215 694.863 99.882 694.394 98.0283 693.457C96.1746 692.519 94.6832 691.39 93.5539 690.069C92.4459 688.727 91.583 687.459 90.9651 686.266H90.4857V712.409H78.9161ZM90.262 669.455C90.262 672.629 90.7094 675.41 91.6043 677.796C92.5205 680.183 93.8309 682.047 95.5354 683.389C97.2613 684.71 99.3494 685.371 101.8 685.371C104.356 685.371 106.498 684.689 108.224 683.325C109.949 681.94 111.249 680.055 112.123 677.668C113.018 675.261 113.465 672.523 113.465 669.455C113.465 666.408 113.028 663.702 112.155 661.337C111.281 658.972 109.981 657.118 108.256 655.776C106.53 654.433 104.378 653.762 101.8 653.762C99.328 653.762 97.2293 654.412 95.5035 655.712C93.7776 657.011 92.4673 658.833 91.5724 661.177C90.6988 663.521 90.262 666.28 90.262 669.455ZM156.703 694.959C151.781 694.959 147.53 693.936 143.951 691.891C140.393 689.824 137.655 686.905 135.737 683.134C133.82 679.341 132.861 674.877 132.861 669.742C132.861 664.692 133.82 660.261 135.737 656.447C137.676 652.612 140.382 649.629 143.855 647.498C147.328 645.346 151.408 644.27 156.096 644.27C159.121 644.27 161.977 644.76 164.661 645.74C167.367 646.699 169.753 648.19 171.82 650.214C173.908 652.239 175.549 654.817 176.742 657.949C177.935 661.06 178.532 664.767 178.532 669.071V672.619H138.294V664.82H167.442C167.42 662.604 166.941 660.634 166.003 658.908C165.066 657.161 163.756 655.786 162.072 654.785C160.41 653.783 158.472 653.283 156.256 653.283C153.891 653.283 151.813 653.858 150.023 655.009C148.234 656.138 146.838 657.629 145.837 659.483C144.856 661.315 144.356 663.329 144.334 665.523V672.331C144.334 675.186 144.856 677.636 145.901 679.682C146.945 681.706 148.404 683.261 150.279 684.348C152.154 685.413 154.349 685.946 156.863 685.946C158.546 685.946 160.07 685.712 161.433 685.243C162.797 684.753 163.979 684.039 164.981 683.102C165.982 682.164 166.739 681.003 167.25 679.618L178.053 680.832C177.371 683.687 176.071 686.18 174.153 688.311C172.257 690.42 169.828 692.061 166.866 693.233C163.905 694.384 160.517 694.959 156.703 694.959ZM185.407 680.545H196.881C196.987 682.377 197.808 683.794 199.342 684.795C200.876 685.797 202.868 686.298 205.318 686.298C207.811 686.298 209.91 685.754 211.614 684.668C213.34 683.56 214.203 681.887 214.203 679.65C214.203 678.329 213.873 677.168 213.213 676.166C212.552 675.143 211.625 674.355 210.432 673.801C209.239 673.247 207.833 672.97 206.213 672.97H198.703V664.756H206.213C208.621 664.756 210.443 664.202 211.678 663.094C212.936 661.987 213.564 660.591 213.564 658.908C213.564 657.097 212.904 655.626 211.583 654.497C210.283 653.368 208.482 652.803 206.181 652.803C203.88 652.803 201.963 653.325 200.428 654.369C198.916 655.413 198.127 656.756 198.063 658.396H186.654C186.696 655.541 187.548 653.059 189.21 650.95C190.894 648.84 193.152 647.2 195.986 646.028C198.841 644.856 202.058 644.27 205.638 644.27C209.473 644.27 212.786 644.845 215.578 645.996C218.369 647.146 220.521 648.755 222.034 650.822C223.546 652.867 224.303 655.275 224.303 658.045C224.303 660.708 223.472 662.913 221.81 664.661C220.148 666.386 217.911 667.622 215.098 668.368V668.879C217.037 668.986 218.784 669.54 220.34 670.541C221.895 671.521 223.131 672.853 224.047 674.536C224.963 676.219 225.421 678.169 225.421 680.385C225.421 683.389 224.558 685.989 222.833 688.183C221.107 690.357 218.731 692.029 215.705 693.201C212.701 694.373 209.26 694.959 205.382 694.959C201.611 694.959 198.234 694.394 195.251 693.265C192.289 692.114 189.935 690.463 188.188 688.311C186.44 686.159 185.514 683.57 185.407 680.545ZM256.067 694.959C251.145 694.959 246.894 693.936 243.315 691.891C239.757 689.824 237.019 686.905 235.101 683.134C233.183 679.341 232.225 674.877 232.225 669.742C232.225 664.692 233.183 660.261 235.101 656.447C237.04 652.612 239.746 649.629 243.219 647.498C246.692 645.346 250.772 644.27 255.46 644.27C258.485 644.27 261.34 644.76 264.025 645.74C266.731 646.699 269.117 648.19 271.184 650.214C273.272 652.239 274.913 654.817 276.106 657.949C277.299 661.06 277.896 664.767 277.896 669.071V672.619H237.658V664.82H266.806C266.784 662.604 266.305 660.634 265.367 658.908C264.43 657.161 263.119 655.786 261.436 654.785C259.774 653.783 257.835 653.283 255.619 653.283C253.254 653.283 251.177 653.858 249.387 655.009C247.597 656.138 246.202 657.629 245.2 659.483C244.22 661.315 243.72 663.329 243.698 665.523V672.331C243.698 675.186 244.22 677.636 245.264 679.682C246.308 681.706 247.768 683.261 249.643 684.348C251.518 685.413 253.713 685.946 256.227 685.946C257.91 685.946 259.433 685.712 260.797 685.243C262.161 684.753 263.343 684.039 264.345 683.102C265.346 682.164 266.102 681.003 266.614 679.618L277.416 680.832C276.735 683.687 275.435 686.18 273.517 688.311C271.621 690.42 269.192 692.061 266.23 693.233C263.269 694.384 259.881 694.959 256.067 694.959ZM321.206 664.661V674.153H295.062V664.661H321.206ZM298.642 644.909V694H287.488V644.909H298.642ZM328.78 644.909V694H317.658V644.909H328.78ZM334.792 654.401V644.909H377.747V654.401H361.863V694H350.677V654.401H334.792ZM398.868 694.991C395.758 694.991 392.956 694.437 390.463 693.329C387.991 692.2 386.031 690.538 384.582 688.343C383.155 686.148 382.441 683.442 382.441 680.225C382.441 677.455 382.952 675.165 383.975 673.354C384.998 671.543 386.393 670.094 388.162 669.007C389.93 667.92 391.922 667.1 394.138 666.546C396.376 665.971 398.687 665.555 401.074 665.3C403.95 665.001 406.283 664.735 408.073 664.501C409.863 664.245 411.163 663.862 411.972 663.35C412.803 662.817 413.219 661.997 413.219 660.889V660.697C413.219 658.29 412.505 656.425 411.077 655.104C409.65 653.783 407.594 653.123 404.909 653.123C402.075 653.123 399.827 653.741 398.165 654.977C396.525 656.212 395.417 657.672 394.841 659.355L384.039 657.821C384.891 654.838 386.297 652.345 388.258 650.342C390.218 648.318 392.615 646.805 395.449 645.804C398.283 644.781 401.415 644.27 404.845 644.27C407.21 644.27 409.565 644.547 411.908 645.101C414.252 645.655 416.393 646.571 418.332 647.849C420.271 649.107 421.827 650.822 422.998 652.995C424.192 655.168 424.788 657.885 424.788 661.145V694H413.666V687.256H413.283C412.579 688.62 411.589 689.898 410.31 691.092C409.053 692.263 407.466 693.212 405.548 693.936C403.652 694.639 401.425 694.991 398.868 694.991ZM401.873 686.489C404.195 686.489 406.209 686.031 407.913 685.115C409.618 684.178 410.928 682.942 411.844 681.408C412.782 679.874 413.251 678.201 413.251 676.39V670.605C412.888 670.903 412.27 671.18 411.397 671.436C410.545 671.692 409.586 671.915 408.52 672.107C407.455 672.299 406.4 672.469 405.356 672.619C404.312 672.768 403.407 672.896 402.64 673.002C400.914 673.237 399.369 673.62 398.006 674.153C396.642 674.685 395.566 675.431 394.778 676.39C393.989 677.327 393.595 678.542 393.595 680.033C393.595 682.164 394.373 683.773 395.928 684.859C397.484 685.946 399.465 686.489 401.873 686.489ZM477.678 644.909V685.371H485.189V709.788H473.875V694H436.226V644.909H447.38V684.508H466.62V644.909H477.678ZM505.631 678.339L525.287 644.909H537.176V694H525.99V660.538L506.398 694H494.477V644.909H505.631V678.339ZM577.881 694V654.305H567.398C564.735 654.305 562.689 654.923 561.262 656.159C559.834 657.395 559.131 658.929 559.152 660.761C559.131 662.594 559.802 664.107 561.166 665.3C562.529 666.493 564.479 667.089 567.015 667.089H581.524V675.527H567.015C563.094 675.527 559.706 674.909 556.851 673.673C553.996 672.437 551.801 670.69 550.267 668.432C548.733 666.173 547.966 663.531 547.966 660.506C547.966 657.352 548.744 654.614 550.299 652.292C551.876 649.948 554.113 648.137 557.011 646.859C559.93 645.559 563.392 644.909 567.398 644.909H588.716V694H577.881ZM546.176 694L559.887 668.815H571.297L557.554 694H546.176Z" fill="black"/>
</g>
<defs>
<clipPath id="clip0_1_1696">
<rect width="600" height="723" fill="white"/>
</clipPath>
<clipPath id="clip1_1_1696">
<rect width="600" height="600" fill="white"/>
</clipPath>
</defs>
</svg>
