<svg width="276" height="276" viewBox="0 0 276 276" fill="none" xmlns="http://www.w3.org/2000/svg">
<path d="M138 63C148.847 63 159.157 65.2993 168.468 69.4347L140.73 117.266V212.95C139.824 212.982 138.914 213 138 213C136.856 213 135.719 212.973 134.587 212.922V117.87L106.712 69.8042C116.236 65.4362 126.833 63 138 63Z" fill="black"/>
<path d="M174.536 72.4642C176.178 73.38 177.783 74.3561 179.346 75.3886L153.016 120.785V211.499C151.218 211.864 149.397 212.164 147.555 212.398V118.836L174.536 72.4642Z" fill="black"/>
<path d="M127.762 119.445V212.307C125.92 212.056 124.099 211.739 122.302 211.357V121.389L95.9086 75.8866C97.4598 74.8356 99.0524 73.8408 100.684 72.9057L127.762 119.445Z" fill="black"/>
<path d="M190.938 191.182C182.356 199.707 171.722 206.172 159.841 209.775V191.182H190.938Z" fill="black"/>
<path d="M115.477 191.182V209.565C103.871 205.924 93.4796 199.544 85.0622 191.182H115.477Z" fill="black"/>
<path d="M207.688 165.955C205.007 172.618 201.397 178.807 197.017 184.364H159.841V165.955H207.688Z" fill="black"/>
<path d="M115.477 165.955V184.364H78.9834C74.6033 178.807 70.9932 172.618 68.3122 165.955H115.477Z" fill="black"/>
<path d="M213 141.409C212.726 147.538 211.715 153.476 210.054 159.136H159.841V141.409H213Z" fill="black"/>
<path d="M115.477 141.409V159.136H65.9461C64.2849 153.476 63.2745 147.538 63 141.409H115.477Z" fill="black"/>
<path d="M184.85 79.3929C201.227 92.4743 212 112.262 213 134.591H159.841V122.379L184.85 79.3929Z" fill="black"/>
<path d="M115.477 122.987V134.591H63C63.9855 112.584 74.4638 93.0461 90.4437 79.9636L115.477 122.987Z" fill="black"/>
</svg>
