<?xml version="1.0" encoding="UTF-8"?>
<svg id="Layer_2" data-name="Layer 2" xmlns="http://www.w3.org/2000/svg" viewBox="0 0 429.52 129.79">
  <defs>
    <style>
      .cls-1 {
        fill: #23356b;
      }
    </style>
  </defs>
  <g id="Layer_1-2" data-name="Layer 1">
    <g>
      <g>
        <path class="cls-1" d="M76.18,72.77c-3.26-2.04-7.57-1.06-9.62,2.2l-.88,1.4-15.11-9.47,15.04-9.43,3.16,5.03,3.65-2.29-3.15-5.02,2.24-1.4,3.23,5.14,3.65-2.29-3.23-5.14,2.26-1.42-2.01-3.2-26.62,16.69v-16.15h2.47v-3.95h-2.47v-3.65h5.33v-10.54h-5.34v-2h-3.78v2h-5.34v10.54h5.35v3.65h-2.43v3.95h2.43v16l-26.62-16.69-2.01,3.2,2.33,1.46-3.29,5.24,3.65,2.29,3.29-5.25,2.33,1.46-3.32,5.28,3.65,2.29,3.32-5.29,15.11,9.47-15.35,9.62-.88-1.4c-.99-1.57-2.53-2.67-4.35-3.09-1.82-.42-3.69-.1-5.26.88-3.26,2.04-4.25,6.36-2.2,9.62l3.77,6.01c.99,1.57,2.53,2.67,4.35,3.09.53.12,1.05.18,1.58.18,1.29,0,2.56-.36,3.68-1.06,1.57-.99,2.67-2.53,3.09-4.35.42-1.82.1-3.69-.88-5.26l-.88-1.41,14.89-9.34v21.38h-2.43v2.58c-4.3.29-7.71,3.87-7.71,8.24s3.41,7.95,7.71,8.24v1.55h8.68v-1.55c4.3-.29,7.71-3.87,7.71-8.24s-3.41-7.95-7.71-8.24v-2.58h-2.47v-21.53l14.89,9.34-.88,1.41c-.99,1.57-1.3,3.44-.88,5.26s1.51,3.37,3.09,4.35c1.15.72,2.43,1.06,3.7,1.06,2.32,0,4.6-1.16,5.92-3.27l3.77-6.01c2.04-3.26,1.06-7.57-2.2-9.62ZM43.6,33.22h6.56v2.63h-6.56v-2.63ZM27.9,85.5c-.17.76-.63,1.4-1.28,1.81-.65.41-1.43.54-2.19.36-.76-.17-1.4-.63-1.81-1.28l-3.77-6.01c-.41-.65-.54-1.43-.36-2.19.17-.76.63-1.4,1.28-1.81.46-.29.99-.44,1.53-.44.22,0,.44.03.66.08.76.17,1.4.63,1.81,1.28l3.77,6.01c.41.65.54,1.43.36,2.19ZM55.01,102.6c0,2.38-1.93,4.31-4.31,4.31-.68,0-1.33-.16-1.92-.46v-1.94h-3.78v1.96c-.58.29-1.22.44-1.87.44-2.38,0-4.31-1.93-4.31-4.31s1.93-4.31,4.31-4.31c.94,0,1.84.3,2.6.88l1.19.9,1.19-.9c.76-.57,1.66-.88,2.6-.88,2.38,0,4.31,1.93,4.31,4.31ZM74.93,80.23l-3.77,6.01c-.85,1.36-2.65,1.77-4,.92-.65-.41-1.11-1.05-1.28-1.81-.17-.76-.04-1.54.36-2.19l3.77-6.01c.55-.88,1.5-1.36,2.46-1.36.53,0,1.06.14,1.54.44,1.36.85,1.77,2.65.92,4Z"/>
        <path class="cls-1" d="M63.58,0c-6.17,0-12.02,1.86-17.01,5.4C41.58,1.86,35.74,0,29.57,0H0v3.95h29.57c5.78,0,11.24,1.89,15.79,5.47l1.22.96,1.22-.96c4.54-3.58,10-5.47,15.79-5.47h29.48V0h-29.48Z"/>
        <path class="cls-1" d="M63.54,9.15c-6.17,0-12.02,1.86-17.01,5.4-4.99-3.54-10.84-5.4-17.01-5.4H.03v67.77c0,11.47,6.57,24.57,17.58,35.02,12.4,11.78,27.61,17.37,28.26,17.6l.67.24.67-.24c.64-.23,15.81-5.78,28.26-17.6,11.01-10.46,17.58-23.55,17.58-35.02l-.02-67.77h-29.48ZM72.74,109.08c-10.39,9.87-23.17,15.29-26.21,16.49-3.04-1.21-15.83-6.63-26.21-16.49C5.16,94.67,3.98,80.82,3.98,76.92V13.1h25.55c5.78,0,11.24,1.89,15.79,5.47l1.22.96,1.22-.96c4.54-3.58,10-5.47,15.79-5.47h25.53v63.82c.01,3.9-1.16,17.75-16.33,32.16Z"/>
      </g>
      <g>
        <path class="cls-1" d="M136.52,32.53v-2.57l2.2-.33V12.1l-2.2-.33v-2.57h10.36c2.02,0,3.56.53,4.62,1.58,1.05,1.06,1.58,2.59,1.58,4.62v.27c0,.96-.14,1.73-.42,2.32-.28.59-.57,1.04-.88,1.35-.38.4-.8.68-1.27.83v.27c.67.16,1.28.43,1.83.83.47.36.89.86,1.28,1.52.39.66.58,1.55.58,2.68v.87c0,2.02-.53,3.56-1.58,4.62-1.06,1.06-2.59,1.58-4.62,1.58h-11.5ZM146.35,19c1.16,0,1.98-.25,2.48-.75s.75-1.33.75-2.48v-.23c0-1.16-.25-1.98-.75-2.48s-1.33-.75-2.48-.75h-4.13v6.7h4.13ZM147.45,29.43c1.15,0,1.99-.25,2.5-.75.51-.5.77-1.33.77-2.48v-.87c0-1.27-.31-2.12-.92-2.57-.61-.44-1.59-.67-2.95-.67h-4.63v7.33h5.23Z"/>
        <path class="cls-1" d="M172.84,27.5c0,3.36-1.7,5.04-5.1,5.04h-3.67c-3.42,0-5.13-1.68-5.13-5.04v-7.59c0-3.36,1.71-5.04,5.13-5.04h3.67c3.4,0,5.1,1.68,5.1,5.04v7.59ZM169.57,20.17c0-.91-.19-1.54-.57-1.9-.38-.36-1.01-.54-1.9-.54h-2.4c-.89,0-1.52.18-1.9.55-.38.37-.57.97-.57,1.82v7.1c0,.91.19,1.55.57,1.91s1.01.55,1.9.55h2.4c.87,0,1.49-.18,1.88-.55s.58-.98.58-1.85v-7.1Z"/>
        <path class="cls-1" d="M177.28,38.87v-2.37l2-.3v-18.7l-2-.3v-2.33h10.06c3.42,0,5.13,1.71,5.13,5.13v7.43c0,3.4-1.71,5.1-5.13,5.1h-4.8v3.67l2,.3v2.37h-7.27ZM182.55,17.74v11.93h4.23c.87,0,1.49-.19,1.87-.57s.57-1,.57-1.87v-7.07c0-.87-.19-1.49-.57-1.87s-1-.57-1.87-.57h-4.23Z"/>
        <path class="cls-1" d="M211.43,27.5c0,3.36-1.7,5.04-5.1,5.04h-3.67c-3.42,0-5.13-1.68-5.13-5.04v-7.59c0-3.36,1.71-5.04,5.13-5.04h3.67c3.4,0,5.1,1.68,5.1,5.04v7.59ZM208.16,20.17c0-.91-.19-1.54-.57-1.9-.38-.36-1.01-.54-1.9-.54h-2.4c-.89,0-1.52.18-1.9.55-.38.37-.57.97-.57,1.82v7.1c0,.91.19,1.55.57,1.91s1.01.55,1.9.55h2.4c.87,0,1.49-.18,1.88-.55.39-.37.58-.98.58-1.85v-7.1Z"/>
        <path class="cls-1" d="M227.8,32.53v-7.43h-6.67v4.77l2,.3v2.37h-7.27v-2.37l2-.3v-12.33l-2-.3v-2.37h5.27v7.37h6.67v-4.7l-1.97-.3v-2.37h7.27v2.37l-2,.3v12.33l2,.3v2.37h-5.3Z"/>
        <path class="cls-1" d="M242.68,32.53c-3.42,0-5.13-1.68-5.13-5.05v-7.53c0-3.39,1.71-5.08,5.13-5.08h3.33c3.4,0,5.1,1.68,5.1,5.05v4.82h-10.27v2.47c0,.89.19,1.52.57,1.9s1.01.57,1.9.57h7.03v2.87h-7.67ZM240.84,22.17h7v-2.06c0-.86-.19-1.47-.58-1.83-.39-.36-1.02-.55-1.88-.55h-2.07c-.89,0-1.52.18-1.9.55-.38.36-.57.97-.57,1.83v2.06Z"/>
        <path class="cls-1" d="M265.65,17.54l-2-.3v-2.37h5.27v7.27h3l2.83-7.27h4.27v2.37l-1.93.3-2.37,6,2.73,6.33,1.93.3v2.37h-4.2l-3.27-7.53h-3v4.87l2,.3v2.37h-7.27v-2.37l2-.3v-4.87h-3l-3.27,7.53h-4.2v-2.37l1.93-.3,2.73-6.33-2.37-6-1.93-.3v-2.37h4.27l2.83,7.27h3v-4.6Z"/>
        <path class="cls-1" d="M283.67,19.97c0-3.4,1.71-5.1,5.13-5.1h7v5.53h-2.43l-.33-2.67h-3.63c-.89,0-1.52.19-1.9.57-.38.38-.57,1-.57,1.87v7.07c0,.87.19,1.49.57,1.87.38.38,1.01.57,1.9.57h6.4v2.87h-7c-3.42,0-5.13-1.7-5.13-5.1v-7.47Z"/>
        <path class="cls-1" d="M300.29,30.17l2-.3v-12.33l-2-.3v-2.37h5.27v7.27h3.27l2.83-7.27h4.27v2.37l-1.93.3-2.37,6,2.73,6.33,1.93.3v2.37h-4.2l-3.27-7.53h-3.27v4.87l2,.3v2.37h-7.27v-2.37Z"/>
        <path class="cls-1" d="M332.33,32.53v-11.83h-.23l-6.53,11.83h-5.33v-2.37l2-.3v-12.33l-2-.3v-2.37h5.27v11.83h.27l6.5-11.83h5.37v2.37l-2,.3v12.33l2,.3v2.37h-5.3Z"/>
        <path class="cls-1" d="M353.84,32.53v-11.83h-.23l-6.53,11.83h-5.33v-2.37l2-.3v-12.33l-2-.3v-2.37h5.27v11.83h.27l6.5-11.83h5.37v2.37l-2,.3v12.33l2,.3v2.37h-5.3ZM352.31,7.47h2.37v1c0,1.2-.27,2.07-.82,2.62s-1.42.82-2.62.82h-1.63c-1.2,0-2.07-.27-2.62-.82-.54-.54-.82-1.42-.82-2.62v-1h2.37v.87c0,.87.42,1.3,1.27,1.3h1.23c.84,0,1.27-.43,1.27-1.3v-.87Z"/>
        <path class="cls-1" d="M138.72,51.95l-2.2-.33v-2.57h15.36v6.1h-2.67l-.4-3h-6.6v17.33l2.2.33v2.57h-7.9v-2.57l2.2-.33v-17.53Z"/>
        <path class="cls-1" d="M169.4,67.35c0,3.36-1.7,5.04-5.1,5.04h-3.67c-3.42,0-5.13-1.68-5.13-5.04v-7.59c0-3.36,1.71-5.04,5.13-5.04h3.67c3.4,0,5.1,1.68,5.1,5.04v7.59ZM166.13,60.02c0-.91-.19-1.54-.57-1.9-.38-.36-1.01-.54-1.9-.54h-2.4c-.89,0-1.52.18-1.9.55-.38.37-.57.97-.57,1.82v7.1c0,.91.19,1.55.57,1.91s1.01.55,1.9.55h2.4c.87,0,1.49-.18,1.88-.55.39-.37.58-.98.58-1.85v-7.1Z"/>
        <path class="cls-1" d="M174.45,59.82c0-3.4,1.71-5.1,5.13-5.1h7v5.53h-2.43l-.33-2.67h-3.63c-.89,0-1.52.19-1.9.57-.38.38-.57,1-.57,1.87v7.07c0,.87.19,1.49.57,1.87.38.38,1.01.57,1.9.57h6.4v2.87h-7c-3.42,0-5.13-1.7-5.13-5.1v-7.47Z"/>
        <path class="cls-1" d="M198.91,71.72h-2.23l-4.1-14.33-1.9-.3v-2.37h4.5l3.57,13.3h1.13l2.83-10.63-1.9-.3v-2.37h7.03v2.37l-1.9.3-4.53,16.16c-.27.95-.56,1.76-.88,2.42-.32.65-.7,1.19-1.13,1.6-.43.41-.93.71-1.5.88-.57.18-1.23.27-1.98.27h-1v-2.87h.87c.75,0,1.32-.17,1.68-.5.37-.33.68-.97.95-1.9l.5-1.73Z"/>
        <path class="cls-1" d="M211.46,69.52c.27-.16.52-.37.77-.63.2-.22.39-.52.57-.88.18-.37.29-.82.33-1.35l.9-9.27-2-.3v-2.37h15.3v2.37l-2,.3v12.13h2.27v6.9h-2.73l-.43-4.03h-11.07l-.43,4.03h-2.73v-6.9h1.27ZM216.3,66.83c-.04.54-.14.99-.28,1.34-.14.35-.29.63-.45.83-.18.25-.37.42-.57.51h7.07v-11.9h-4.93l-.83,9.21Z"/>
        <path class="cls-1" d="M233.28,54.72h6.2c3.42,0,5.13,1.71,5.13,5.13v9.87l2,.3v2.37h-9.93c-1.65,0-2.89-.42-3.73-1.27-.85-.84-1.27-2.09-1.27-3.73v-.33c0-1.64.42-2.89,1.27-3.73.84-.84,2.09-1.27,3.73-1.27h4.67v-2c0-.89-.2-1.52-.58-1.9-.39-.38-1.03-.57-1.92-.57h-5.57v-2.87ZM237.41,64.65c-.87,0-1.49.19-1.88.57-.39.38-.58.99-.58,1.83v.33c0,.82.2,1.42.6,1.78.4.37,1.02.55,1.87.55h3.93v-5.07h-3.93Z"/>
        <path class="cls-1" d="M249.59,78.72v-2.37l2-.3v-18.7l-2-.3v-2.33h10.07c3.42,0,5.13,1.71,5.13,5.13v7.43c0,3.4-1.71,5.1-5.13,5.1h-4.8v3.67l2,.3v2.37h-7.27ZM254.86,57.59v11.93h4.23c.87,0,1.49-.19,1.87-.57.38-.38.57-1,.57-1.87v-7.07c0-.87-.19-1.49-.57-1.87-.38-.38-1-.57-1.87-.57h-4.23Z"/>
        <path class="cls-1" d="M269.84,59.82c0-3.4,1.71-5.1,5.13-5.1h7v5.53h-2.43l-.33-2.67h-3.63c-.89,0-1.52.19-1.9.57-.38.38-.57,1-.57,1.87v7.07c0,.87.19,1.49.57,1.87.38.38,1.01.57,1.9.57h6.4v2.87h-7c-3.42,0-5.13-1.7-5.13-5.1v-7.47Z"/>
        <path class="cls-1" d="M300.47,54.72v5.37h-2.2l-.27-2.5h-2.97v12.13l2,.3v2.37h-7.27v-2.37l2-.3v-12.13h-3l-.27,2.5h-2.2v-5.37h14.16Z"/>
        <path class="cls-1" d="M304.4,54.72h9.6c1.55,0,2.75.41,3.58,1.23.83.82,1.25,1.98,1.25,3.47,0,.78-.11,1.4-.33,1.87s-.47.82-.73,1.07c-.31.29-.66.49-1.03.6v.27c.55.13,1.04.36,1.47.67.38.29.72.69,1.02,1.2s.45,1.2.45,2.07v.33c0,1.6-.42,2.82-1.25,3.65-.83.83-2.05,1.25-3.65,1.25h-10.36v-2.37l2-.3v-12.33l-2-.3v-2.37ZM309.67,61.88h3.7c1.44,0,2.17-.73,2.17-2.2,0-.82-.22-1.37-.67-1.65-.44-.28-1.08-.42-1.9-.42h-3.3v4.27ZM309.67,64.75v4.73h4c.93,0,1.62-.15,2.05-.45.43-.3.65-.92.65-1.85,0-.84-.18-1.46-.55-1.85-.37-.39-.97-.58-1.82-.58h-4.33Z"/>
        <path class="cls-1" d="M329.54,72.38c-3.42,0-5.13-1.68-5.13-5.05v-7.53c0-3.39,1.71-5.08,5.13-5.08h3.33c3.4,0,5.1,1.68,5.1,5.05v4.82h-10.27v2.47c0,.89.19,1.52.57,1.9s1.01.57,1.9.57h7.03v2.87h-7.67ZM327.71,62.02h7v-2.06c0-.86-.19-1.47-.58-1.83-.39-.36-1.02-.55-1.88-.55h-2.07c-.89,0-1.52.18-1.9.55-.38.36-.57.97-.57,1.83v2.06Z"/>
        <path class="cls-1" d="M354.33,72.38v-7.43h-6.67v4.77l2,.3v2.37h-7.27v-2.37l2-.3v-12.33l-2-.3v-2.37h5.27v7.37h6.67v-4.7l-1.97-.3v-2.37h7.27v2.37l-2,.3v12.33l2,.3v2.37h-5.3Z"/>
        <path class="cls-1" d="M375.67,72.38v-7.43h-6.66v4.77l2,.3v2.37h-7.27v-2.37l2-.3v-12.33l-2-.3v-2.37h5.27v7.37h6.66v-4.7l-1.97-.3v-2.37h7.27v2.37l-2,.3v12.33l2,.3v2.37h-5.3Z"/>
        <path class="cls-1" d="M385.09,72.38v-2.37l2-.3v-12.33l-2-.3v-2.37h7.27v2.37l-2,.3v3.33h3.8c3.38,0,5.07,1.69,5.07,5.07v1.5c0,3.4-1.69,5.1-5.07,5.1h-9.06ZM393.52,69.48c.87,0,1.49-.19,1.87-.57s.57-1,.57-1.87v-1.03c0-.84-.19-1.46-.57-1.85s-1-.58-1.87-.58h-3.17v5.9h3.17ZM406.02,69.72l2,.3v2.37h-7.27v-2.37l1.97-.3v-12.33l-1.97-.3v-2.37h7.27v2.37l-2,.3v12.33Z"/>
        <path class="cls-1" d="M424.22,72.38v-11.83h-.23l-6.53,11.83h-5.33v-2.37l2-.3v-12.33l-2-.3v-2.37h5.27v11.83h.27l6.5-11.83h5.37v2.37l-2,.3v12.33l2,.3v2.37h-5.3ZM422.69,47.32h2.37v1c0,1.2-.27,2.07-.82,2.62-.54.54-1.42.82-2.62.82h-1.63c-1.2,0-2.07-.27-2.62-.82-.54-.54-.82-1.42-.82-2.62v-1h2.37v.87c0,.87.42,1.3,1.27,1.3h1.23c.84,0,1.27-.43,1.27-1.3v-.87Z"/>
        <path class="cls-1" d="M145.78,101.93l3.03-10.14-2.2-.33v-2.57h7.9v2.57l-2.2.33-4.57,14.51c-.33,1.1-.69,2.03-1.08,2.78-.39.75-.84,1.36-1.35,1.82s-1.1.8-1.77,1.01c-.67.21-1.47.31-2.4.31h-.8v-3.1h.87c.47,0,.88-.04,1.23-.13.36-.09.66-.24.92-.45.26-.21.47-.5.65-.87.18-.37.34-.84.5-1.42l.23-.87h-3.03l-4.33-13.6-2.2-.33v-2.57h4.87l3.9,13.03h1.83Z"/>
        <path class="cls-1" d="M168.68,112.23v-7.43h-6.67v4.77l2,.3v2.37h-7.27v-2.37l2-.3v-12.33l-2-.3v-2.37h5.27v7.37h6.67v-4.7l-1.97-.3v-2.37h7.27v2.37l-2,.3v12.33l2,.3v2.37h-5.3Z"/>
        <path class="cls-1" d="M190.19,112.23v-11.83h-.23l-6.53,11.83h-5.33v-2.37l2-.3v-12.33l-2-.3v-2.37h5.27v11.83h.27l6.5-11.83h5.37v2.37l-2,.3v12.33l2,.3v2.37h-5.3Z"/>
        <path class="cls-1" d="M199.6,94.57h9.6c1.55,0,2.75.41,3.58,1.23.83.82,1.25,1.98,1.25,3.47,0,.78-.11,1.4-.33,1.87s-.47.82-.73,1.07c-.31.29-.66.49-1.03.6v.27c.55.13,1.04.36,1.47.67.38.29.72.69,1.02,1.2s.45,1.2.45,2.07v.33c0,1.6-.42,2.82-1.25,3.65-.83.83-2.05,1.25-3.65,1.25h-10.37v-2.37l2-.3v-12.33l-2-.3v-2.37ZM204.86,101.73h3.7c1.44,0,2.17-.73,2.17-2.2,0-.82-.22-1.37-.67-1.65-.45-.28-1.08-.42-1.9-.42h-3.3v4.27ZM204.86,104.6v4.73h4c.93,0,1.62-.15,2.05-.45s.65-.92.65-1.85c0-.84-.18-1.46-.55-1.85-.37-.39-.97-.58-1.82-.58h-4.33Z"/>
        <path class="cls-1" d="M224.74,112.23c-3.42,0-5.13-1.68-5.13-5.05v-7.53c0-3.39,1.71-5.08,5.13-5.08h3.33c3.4,0,5.1,1.68,5.1,5.05v4.82h-10.27v2.47c0,.89.19,1.52.57,1.9s1.01.57,1.9.57h7.03v2.87h-7.67ZM222.9,101.87h7v-2.06c0-.86-.19-1.47-.58-1.83-.39-.36-1.02-.55-1.88-.55h-2.07c-.89,0-1.52.18-1.9.55-.38.36-.57.97-.57,1.83v2.06Z"/>
        <path class="cls-1" d="M237.59,118.56v-2.37l2-.3v-18.7l-2-.3v-2.33h10.06c3.42,0,5.13,1.71,5.13,5.13v7.43c0,3.4-1.71,5.1-5.13,5.1h-4.8v3.67l2,.3v2.37h-7.27ZM242.86,97.43v11.93h4.23c.87,0,1.49-.19,1.87-.57.38-.38.57-1,.57-1.87v-7.07c0-.87-.19-1.49-.57-1.87-.38-.38-1-.57-1.87-.57h-4.23Z"/>
        <path class="cls-1" d="M257.85,99.67c0-3.4,1.71-5.1,5.13-5.1h7v5.53h-2.43l-.33-2.67h-3.63c-.89,0-1.52.19-1.9.57-.38.38-.57,1-.57,1.87v7.07c0,.87.19,1.49.57,1.87.38.38,1.01.57,1.9.57h6.4v2.87h-7c-3.42,0-5.13-1.7-5.13-5.1v-7.47Z"/>
        <path class="cls-1" d="M286.57,112.23v-11.83h-.23l-6.53,11.83h-5.33v-2.37l2-.3v-12.33l-2-.3v-2.37h5.27v11.83h.27l6.5-11.83h5.37v2.37l-2,.3v12.33l2,.3v2.37h-5.3Z"/>
        <path class="cls-1" d="M309.98,94.57v5.37h-2.2l-.27-2.5h-2.97v12.13l2,.3v2.37h-7.27v-2.37l2-.3v-12.13h-3l-.27,2.5h-2.2v-5.37h14.16Z"/>
        <path class="cls-1" d="M319.52,112.23c-3.42,0-5.13-1.68-5.13-5.05v-7.53c0-3.39,1.71-5.08,5.13-5.08h3.33c3.4,0,5.1,1.68,5.1,5.05v4.82h-10.27v2.47c0,.89.19,1.52.57,1.9s1.01.57,1.9.57h7.03v2.87h-7.67ZM317.69,101.87h7v-2.06c0-.86-.19-1.47-.58-1.83-.39-.36-1.02-.55-1.88-.55h-2.07c-.89,0-1.52.18-1.9.55-.38.36-.57.97-.57,1.83v2.06Z"/>
        <path class="cls-1" d="M346.55,94.57v5.37h-2.2l-.27-2.5h-2.97v12.13l2,.3v2.37h-7.27v-2.37l2-.3v-12.13h-3l-.27,2.5h-2.2v-5.37h14.16Z"/>
      </g>
    </g>
  </g>
</svg>