<svg width="276" height="276" viewBox="0 0 276 276" fill="none" xmlns="http://www.w3.org/2000/svg">
<path d="M121.436 138.879H123.213C123.974 138.879 124.549 138.986 124.94 139.199C125.331 139.413 125.526 139.788 125.526 140.324C125.526 140.54 125.491 140.736 125.42 140.91C125.353 141.085 125.254 141.228 125.123 141.34C124.993 141.452 124.835 141.525 124.647 141.559V141.598C124.837 141.637 125.009 141.704 125.163 141.801C125.316 141.895 125.439 142.033 125.53 142.215C125.623 142.395 125.67 142.634 125.67 142.934C125.67 143.28 125.586 143.577 125.416 143.824C125.247 144.072 125.005 144.262 124.69 144.395C124.377 144.525 124.005 144.59 123.573 144.59H121.436V138.879ZM122.647 141.141H123.35C123.702 141.141 123.945 141.086 124.081 140.977C124.216 140.865 124.284 140.701 124.284 140.484C124.284 140.266 124.203 140.109 124.041 140.016C123.883 139.919 123.63 139.871 123.284 139.871H122.647V141.141ZM122.647 142.102V143.59H123.436C123.801 143.59 124.054 143.519 124.198 143.379C124.341 143.238 124.413 143.049 124.413 142.812C124.413 142.672 124.381 142.548 124.319 142.441C124.256 142.335 124.151 142.251 124.002 142.191C123.857 142.132 123.655 142.102 123.397 142.102H122.647Z" fill="black"/>
<path d="M132.795 141.727C132.795 142.167 132.74 142.568 132.631 142.93C132.521 143.289 132.355 143.599 132.131 143.859C131.909 144.12 131.628 144.32 131.287 144.461C130.946 144.599 130.542 144.668 130.076 144.668C129.61 144.668 129.206 144.599 128.865 144.461C128.524 144.32 128.241 144.12 128.017 143.859C127.796 143.599 127.631 143.288 127.521 142.926C127.412 142.564 127.357 142.161 127.357 141.719C127.357 141.128 127.453 140.613 127.646 140.176C127.841 139.736 128.141 139.395 128.545 139.152C128.948 138.91 129.461 138.789 130.084 138.789C130.703 138.789 131.213 138.91 131.611 139.152C132.012 139.395 132.309 139.736 132.502 140.176C132.697 140.616 132.795 141.133 132.795 141.727ZM128.627 141.727C128.627 142.125 128.676 142.469 128.775 142.758C128.877 143.044 129.034 143.266 129.248 143.422C129.461 143.576 129.737 143.652 130.076 143.652C130.42 143.652 130.698 143.576 130.912 143.422C131.125 143.266 131.28 143.044 131.377 142.758C131.476 142.469 131.525 142.125 131.525 141.727C131.525 141.128 131.413 140.656 131.189 140.312C130.965 139.969 130.597 139.797 130.084 139.797C129.743 139.797 129.464 139.875 129.248 140.031C129.034 140.185 128.877 140.406 128.775 140.695C128.676 140.982 128.627 141.326 128.627 141.727Z" fill="black"/>
<path d="M136.602 138.879C137.339 138.879 137.877 139.038 138.216 139.355C138.554 139.671 138.724 140.105 138.724 140.66C138.724 140.91 138.686 141.15 138.61 141.379C138.535 141.606 138.411 141.807 138.239 141.984C138.07 142.161 137.843 142.302 137.559 142.406C137.276 142.508 136.925 142.559 136.509 142.559H135.989V144.59H134.778V138.879H136.602ZM136.54 139.871H135.989V141.566H136.388C136.614 141.566 136.811 141.537 136.977 141.477C137.144 141.417 137.273 141.323 137.364 141.195C137.455 141.068 137.501 140.904 137.501 140.703C137.501 140.422 137.423 140.214 137.267 140.078C137.11 139.94 136.868 139.871 136.54 139.871Z" fill="black"/>
<path d="M145.785 141.727C145.785 142.167 145.731 142.568 145.621 142.93C145.512 143.289 145.345 143.599 145.121 143.859C144.9 144.12 144.619 144.32 144.277 144.461C143.936 144.599 143.533 144.668 143.067 144.668C142.6 144.668 142.197 144.599 141.856 144.461C141.514 144.32 141.232 144.12 141.008 143.859C140.787 143.599 140.621 143.288 140.512 142.926C140.402 142.564 140.348 142.161 140.348 141.719C140.348 141.128 140.444 140.613 140.637 140.176C140.832 139.736 141.132 139.395 141.535 139.152C141.939 138.91 142.452 138.789 143.074 138.789C143.694 138.789 144.203 138.91 144.602 139.152C145.003 139.395 145.3 139.736 145.492 140.176C145.688 140.616 145.785 141.133 145.785 141.727ZM141.617 141.727C141.617 142.125 141.667 142.469 141.766 142.758C141.867 143.044 142.025 143.266 142.238 143.422C142.452 143.576 142.728 143.652 143.067 143.652C143.41 143.652 143.689 143.576 143.902 143.422C144.116 143.266 144.271 143.044 144.367 142.758C144.466 142.469 144.516 142.125 144.516 141.727C144.516 141.128 144.404 140.656 144.18 140.312C143.956 139.969 143.587 139.797 143.074 139.797C142.733 139.797 142.455 139.875 142.238 140.031C142.025 140.185 141.867 140.406 141.766 140.695C141.667 140.982 141.617 141.326 141.617 141.727Z" fill="black"/>
<path d="M152.449 144.59H151.242V142.125H148.98V144.59H147.769V138.879H148.98V141.117H151.242V138.879H152.449V144.59Z" fill="black"/>
<path d="M157.983 144.59H154.694V138.879H157.983V139.871H155.905V141.125H157.838V142.117H155.905V143.59H157.983V144.59Z" fill="black"/>
<path d="M161.291 141.621L159.373 138.879H160.619L162.467 141.645V138.879H163.595V141.645L165.443 138.879H166.693L164.771 141.621L166.802 144.59H165.506L163.595 141.695V144.59H162.467V141.695L160.556 144.59H159.259L161.291 141.621Z" fill="black"/>
<path d="M170.751 139.805C170.519 139.805 170.313 139.85 170.134 139.941C169.957 140.03 169.807 140.159 169.684 140.328C169.565 140.497 169.474 140.702 169.411 140.941C169.349 141.181 169.317 141.451 169.317 141.75C169.317 142.154 169.367 142.499 169.466 142.785C169.567 143.069 169.724 143.286 169.934 143.438C170.145 143.586 170.418 143.66 170.751 143.66C170.983 143.66 171.214 143.634 171.446 143.582C171.681 143.53 171.934 143.456 172.208 143.359V144.375C171.955 144.479 171.707 144.553 171.462 144.598C171.217 144.644 170.942 144.668 170.638 144.668C170.049 144.668 169.565 144.547 169.184 144.305C168.807 144.06 168.527 143.719 168.345 143.281C168.162 142.841 168.071 142.328 168.071 141.742C168.071 141.31 168.13 140.914 168.247 140.555C168.364 140.195 168.536 139.884 168.763 139.621C168.989 139.358 169.269 139.155 169.602 139.012C169.936 138.868 170.319 138.797 170.751 138.797C171.035 138.797 171.319 138.833 171.602 138.906C171.889 138.977 172.162 139.074 172.423 139.199L172.032 140.184C171.819 140.082 171.604 139.993 171.388 139.918C171.171 139.842 170.959 139.805 170.751 139.805Z" fill="black"/>
<path d="M178.883 144.59H177.508L175.438 141.695V144.59H174.227V138.879H175.438V141.645L177.484 138.879H178.774L176.692 141.621L178.883 144.59Z" fill="black"/>
<path d="M180.402 138.879H181.492V141.637C181.492 141.772 181.489 141.922 181.484 142.086C181.481 142.25 181.476 142.411 181.468 142.57C181.463 142.727 181.458 142.863 181.452 142.98C181.447 143.098 181.442 143.176 181.437 143.215H181.46L184.097 138.879H185.546V144.59H184.468V141.848C184.468 141.702 184.471 141.543 184.476 141.371C184.481 141.199 184.488 141.033 184.495 140.871C184.506 140.71 184.515 140.57 184.523 140.453C184.531 140.333 184.536 140.254 184.538 140.215H184.507L181.859 144.59H180.402V138.879Z" fill="black"/>
<path d="M187.788 138.879H188.877V141.637C188.877 141.772 188.875 141.922 188.87 142.086C188.867 142.25 188.862 142.411 188.854 142.57C188.849 142.727 188.844 142.863 188.838 142.98C188.833 143.098 188.828 143.176 188.823 143.215H188.846L191.483 138.879H192.932V144.59H191.854V141.848C191.854 141.702 191.857 141.543 191.862 141.371C191.867 141.199 191.874 141.033 191.881 140.871C191.892 140.71 191.901 140.57 191.909 140.453C191.917 140.333 191.922 140.254 191.924 140.215H191.893L189.245 144.59H187.788V138.879ZM192.389 137C192.361 137.276 192.282 137.519 192.155 137.73C192.027 137.941 191.828 138.105 191.557 138.223C191.286 138.34 190.922 138.398 190.463 138.398C189.992 138.398 189.625 138.342 189.362 138.23C189.099 138.116 188.911 137.954 188.799 137.746C188.687 137.535 188.62 137.287 188.596 137H189.663C189.686 137.294 189.76 137.49 189.885 137.586C190.01 137.68 190.211 137.727 190.487 137.727C190.716 137.727 190.903 137.674 191.049 137.57C191.195 137.466 191.282 137.276 191.311 137H192.389Z" fill="black"/>
<path d="M201.997 140.215C201.997 140.598 201.86 140.906 201.587 141.141C201.313 141.375 200.967 141.522 200.548 141.582V141.605C201.069 141.658 201.47 141.802 201.751 142.039C202.032 142.276 202.173 142.585 202.173 142.965C202.173 143.298 202.082 143.594 201.899 143.852C201.717 144.107 201.447 144.307 201.091 144.453C200.734 144.596 200.293 144.668 199.767 144.668C199.334 144.668 198.95 144.642 198.614 144.59C198.281 144.535 197.992 144.458 197.747 144.359V143.344C197.914 143.422 198.1 143.49 198.306 143.547C198.514 143.602 198.725 143.645 198.938 143.676C199.152 143.704 199.35 143.719 199.532 143.719C200.037 143.719 200.403 143.646 200.63 143.5C200.859 143.354 200.974 143.147 200.974 142.879C200.974 142.606 200.808 142.406 200.477 142.281C200.147 142.156 199.701 142.094 199.142 142.094H198.606V141.148H199.087C199.54 141.148 199.892 141.12 200.142 141.062C200.394 141.003 200.57 140.918 200.669 140.809C200.77 140.697 200.821 140.562 200.821 140.406C200.821 140.211 200.734 140.056 200.559 139.941C200.385 139.824 200.126 139.766 199.782 139.766C199.485 139.766 199.208 139.809 198.95 139.895C198.692 139.978 198.451 140.09 198.227 140.23L197.7 139.422C197.895 139.294 198.104 139.184 198.325 139.09C198.549 138.996 198.794 138.924 199.059 138.875C199.325 138.823 199.622 138.797 199.95 138.797C200.38 138.797 200.747 138.858 201.052 138.98C201.356 139.103 201.589 139.271 201.751 139.484C201.915 139.695 201.997 139.939 201.997 140.215Z" fill="black"/>
<path d="M207.535 144.59L207.121 143.23H205.039L204.625 144.59H203.32L205.336 138.855H206.817L208.84 144.59H207.535ZM206.832 142.215L206.418 140.887C206.392 140.798 206.357 140.685 206.313 140.547C206.271 140.406 206.228 140.264 206.184 140.121C206.142 139.975 206.108 139.849 206.082 139.742C206.056 139.849 206.02 139.982 205.973 140.141C205.928 140.297 205.886 140.445 205.844 140.586C205.802 140.727 205.772 140.827 205.754 140.887L205.344 142.215H206.832Z" fill="black"/>
<path d="M210.363 138.879H212.14C212.9 138.879 213.476 138.986 213.867 139.199C214.257 139.413 214.452 139.788 214.452 140.324C214.452 140.54 214.417 140.736 214.347 140.91C214.279 141.085 214.18 141.228 214.05 141.34C213.92 141.452 213.761 141.525 213.574 141.559V141.598C213.764 141.637 213.936 141.704 214.089 141.801C214.243 141.895 214.365 142.033 214.456 142.215C214.55 142.395 214.597 142.634 214.597 142.934C214.597 143.28 214.512 143.577 214.343 143.824C214.174 144.072 213.932 144.262 213.617 144.395C213.304 144.525 212.932 144.59 212.499 144.59H210.363V138.879ZM211.574 141.141H212.277C212.628 141.141 212.872 141.086 213.007 140.977C213.143 140.865 213.21 140.701 213.21 140.484C213.21 140.266 213.13 140.109 212.968 140.016C212.809 139.919 212.557 139.871 212.21 139.871H211.574V141.141ZM211.574 142.102V143.59H212.363C212.727 143.59 212.981 143.519 213.124 143.379C213.268 143.238 213.339 143.049 213.339 142.812C213.339 142.672 213.308 142.548 213.245 142.441C213.183 142.335 213.077 142.251 212.929 142.191C212.783 142.132 212.581 142.102 212.324 142.102H211.574Z" fill="black"/>
<path d="M221.721 141.727C221.721 142.167 221.667 142.568 221.557 142.93C221.448 143.289 221.281 143.599 221.057 143.859C220.836 144.12 220.555 144.32 220.213 144.461C219.872 144.599 219.469 144.668 219.002 144.668C218.536 144.668 218.133 144.599 217.792 144.461C217.45 144.32 217.168 144.12 216.944 143.859C216.722 143.599 216.557 143.288 216.448 142.926C216.338 142.564 216.284 142.161 216.284 141.719C216.284 141.128 216.38 140.613 216.573 140.176C216.768 139.736 217.068 139.395 217.471 139.152C217.875 138.91 218.388 138.789 219.01 138.789C219.63 138.789 220.139 138.91 220.538 139.152C220.939 139.395 221.236 139.736 221.428 140.176C221.624 140.616 221.721 141.133 221.721 141.727ZM217.553 141.727C217.553 142.125 217.603 142.469 217.702 142.758C217.803 143.044 217.961 143.266 218.174 143.422C218.388 143.576 218.664 143.652 219.002 143.652C219.346 143.652 219.625 143.576 219.838 143.422C220.052 143.266 220.207 143.044 220.303 142.758C220.402 142.469 220.452 142.125 220.452 141.727C220.452 141.128 220.34 140.656 220.116 140.312C219.892 139.969 219.523 139.797 219.01 139.797C218.669 139.797 218.39 139.875 218.174 140.031C217.961 140.185 217.803 140.406 217.702 140.695C217.603 140.982 217.553 141.326 217.553 141.727Z" fill="black"/>
<path d="M228.177 138.879V143.582H228.939V146.254H227.771V144.59H224.193V146.254H223.025V143.582H223.467C223.615 143.285 223.758 142.971 223.896 142.641C224.034 142.31 224.163 141.954 224.283 141.574C224.403 141.194 224.511 140.781 224.607 140.336C224.703 139.891 224.784 139.405 224.849 138.879H228.177ZM226.97 139.887H225.81C225.771 140.163 225.718 140.457 225.65 140.77C225.582 141.082 225.502 141.401 225.408 141.727C225.317 142.05 225.214 142.368 225.099 142.684C224.987 142.999 224.868 143.298 224.74 143.582H226.97V139.887Z" fill="black"/>
<path d="M121.436 154.59V148.879H125.956V154.59H124.748V149.887H122.647V154.59H121.436Z" fill="black"/>
<path d="M133.381 151.727C133.381 152.167 133.326 152.568 133.217 152.93C133.107 153.289 132.94 153.599 132.717 153.859C132.495 154.12 132.214 154.32 131.873 154.461C131.532 154.599 131.128 154.668 130.662 154.668C130.196 154.668 129.792 154.599 129.451 154.461C129.11 154.32 128.827 154.12 128.603 153.859C128.382 153.599 128.216 153.288 128.107 152.926C127.998 152.564 127.943 152.161 127.943 151.719C127.943 151.128 128.039 150.613 128.232 150.176C128.427 149.736 128.727 149.395 129.131 149.152C129.534 148.91 130.047 148.789 130.67 148.789C131.289 148.789 131.799 148.91 132.197 149.152C132.598 149.395 132.895 149.736 133.088 150.176C133.283 150.616 133.381 151.133 133.381 151.727ZM129.213 151.727C129.213 152.125 129.262 152.469 129.361 152.758C129.463 153.044 129.62 153.266 129.834 153.422C130.047 153.576 130.323 153.652 130.662 153.652C131.006 153.652 131.284 153.576 131.498 153.422C131.711 153.266 131.866 153.044 131.963 152.758C132.062 152.469 132.111 152.125 132.111 151.727C132.111 151.128 131.999 150.656 131.775 150.312C131.551 149.969 131.183 149.797 130.67 149.797C130.328 149.797 130.05 149.875 129.834 150.031C129.62 150.185 129.463 150.406 129.361 150.695C129.262 150.982 129.213 151.326 129.213 151.727Z" fill="black"/>
<path d="M139.884 154.59H138.677V149.887H137.278C137.247 150.132 137.213 150.398 137.177 150.688C137.14 150.977 137.102 151.268 137.063 151.562C137.024 151.857 136.983 152.137 136.938 152.402C136.897 152.668 136.855 152.901 136.813 153.102C136.746 153.435 136.653 153.719 136.536 153.953C136.421 154.185 136.264 154.362 136.063 154.484C135.865 154.607 135.606 154.668 135.286 154.668C135.179 154.668 135.076 154.66 134.977 154.645C134.881 154.629 134.791 154.608 134.708 154.582V153.59C134.776 153.613 134.843 153.633 134.911 153.648C134.979 153.661 135.053 153.668 135.134 153.668C135.238 153.668 135.324 153.634 135.392 153.566C135.462 153.496 135.524 153.378 135.579 153.211C135.634 153.042 135.688 152.809 135.743 152.512C135.767 152.382 135.798 152.198 135.837 151.961C135.876 151.721 135.92 151.441 135.97 151.121C136.019 150.798 136.07 150.447 136.122 150.066C136.177 149.686 136.229 149.29 136.278 148.879H139.884V154.59Z" fill="black"/>
<path d="M146.711 148.879L144.942 152.918C144.783 153.283 144.613 153.596 144.434 153.859C144.254 154.12 144.026 154.32 143.75 154.461C143.474 154.599 143.112 154.668 142.664 154.668C142.524 154.668 142.371 154.658 142.207 154.637C142.043 154.618 141.891 154.59 141.75 154.551V153.512C141.88 153.561 142.021 153.598 142.172 153.621C142.326 153.642 142.47 153.652 142.606 153.652C142.783 153.652 142.926 153.622 143.035 153.562C143.145 153.503 143.232 153.422 143.297 153.32C143.362 153.219 143.417 153.105 143.461 152.98L141.484 148.879H142.766L143.832 151.352C143.856 151.404 143.886 151.474 143.922 151.562C143.961 151.648 143.999 151.737 144.035 151.828C144.074 151.917 144.104 151.995 144.125 152.062H144.168C144.189 151.997 144.216 151.919 144.25 151.828C144.287 151.734 144.324 151.639 144.363 151.543C144.402 151.444 144.438 151.356 144.469 151.277L145.461 148.879H146.711Z" fill="black"/>
<path d="M148.23 154.59V148.879H152.749V154.59H151.542V149.887H149.441V154.59H148.23Z" fill="black"/>
<path d="M156.815 148.879C157.552 148.879 158.09 149.038 158.428 149.355C158.767 149.671 158.936 150.105 158.936 150.66C158.936 150.91 158.898 151.15 158.823 151.379C158.747 151.605 158.624 151.807 158.452 151.984C158.282 152.162 158.056 152.302 157.772 152.406C157.488 152.508 157.138 152.559 156.721 152.559H156.202V154.59H154.991V148.879H156.815ZM156.752 149.871H156.202V151.566H156.6C156.827 151.566 157.023 151.536 157.19 151.477C157.357 151.417 157.486 151.323 157.577 151.195C157.668 151.068 157.713 150.904 157.713 150.703C157.713 150.422 157.635 150.213 157.479 150.078C157.323 149.94 157.081 149.871 156.752 149.871Z" fill="black"/>
<path d="M165.998 151.727C165.998 152.167 165.943 152.568 165.834 152.93C165.724 153.289 165.558 153.599 165.334 153.859C165.112 154.12 164.831 154.32 164.49 154.461C164.149 154.599 163.745 154.668 163.279 154.668C162.813 154.668 162.409 154.599 162.068 154.461C161.727 154.32 161.444 154.12 161.22 153.859C160.999 153.599 160.834 153.288 160.724 152.926C160.615 152.564 160.56 152.161 160.56 151.719C160.56 151.128 160.657 150.613 160.849 150.176C161.045 149.736 161.344 149.395 161.748 149.152C162.151 148.91 162.664 148.789 163.287 148.789C163.907 148.789 164.416 148.91 164.814 149.152C165.215 149.395 165.512 149.736 165.705 150.176C165.9 150.616 165.998 151.133 165.998 151.727ZM161.83 151.727C161.83 152.125 161.879 152.469 161.978 152.758C162.08 153.044 162.237 153.266 162.451 153.422C162.664 153.576 162.94 153.652 163.279 153.652C163.623 153.652 163.901 153.576 164.115 153.422C164.328 153.266 164.483 153.044 164.58 152.758C164.679 152.469 164.728 152.125 164.728 151.727C164.728 151.128 164.616 150.656 164.392 150.312C164.168 149.969 163.8 149.797 163.287 149.797C162.946 149.797 162.667 149.875 162.451 150.031C162.237 150.185 162.08 150.406 161.978 150.695C161.879 150.982 161.83 151.326 161.83 151.727Z" fill="black"/>
<path d="M167.981 148.879H169.759C170.519 148.879 171.095 148.986 171.485 149.199C171.876 149.413 172.071 149.788 172.071 150.324C172.071 150.54 172.036 150.736 171.966 150.91C171.898 151.085 171.799 151.228 171.669 151.34C171.539 151.452 171.38 151.525 171.192 151.559V151.598C171.382 151.637 171.554 151.704 171.708 151.801C171.862 151.895 171.984 152.033 172.075 152.215C172.169 152.395 172.216 152.634 172.216 152.934C172.216 153.28 172.131 153.577 171.962 153.824C171.793 154.072 171.55 154.262 171.235 154.395C170.923 154.525 170.55 154.59 170.118 154.59H167.981V148.879ZM169.192 151.141H169.895C170.247 151.141 170.49 151.086 170.626 150.977C170.761 150.865 170.829 150.701 170.829 150.484C170.829 150.266 170.748 150.109 170.587 150.016C170.428 149.919 170.175 149.871 169.829 149.871H169.192V151.141ZM169.192 152.102V153.59H169.981C170.346 153.59 170.6 153.519 170.743 153.379C170.886 153.238 170.958 153.049 170.958 152.812C170.958 152.672 170.927 152.548 170.864 152.441C170.802 152.335 170.696 152.251 170.548 152.191C170.402 152.132 170.2 152.102 169.942 152.102H169.192Z" fill="black"/>
<path d="M179.34 151.727C179.34 152.167 179.285 152.568 179.176 152.93C179.067 153.289 178.9 153.599 178.676 153.859C178.455 154.12 178.173 154.32 177.832 154.461C177.491 154.599 177.087 154.668 176.621 154.668C176.155 154.668 175.751 154.599 175.41 154.461C175.069 154.32 174.787 154.12 174.563 153.859C174.341 153.599 174.176 153.288 174.067 152.926C173.957 152.564 173.902 152.161 173.902 151.719C173.902 151.128 173.999 150.613 174.192 150.176C174.387 149.736 174.686 149.395 175.09 149.152C175.494 148.91 176.007 148.789 176.629 148.789C177.249 148.789 177.758 148.91 178.156 149.152C178.557 149.395 178.854 149.736 179.047 150.176C179.242 150.616 179.34 151.133 179.34 151.727ZM175.172 151.727C175.172 152.125 175.221 152.469 175.32 152.758C175.422 153.044 175.58 153.266 175.793 153.422C176.007 153.576 176.283 153.652 176.621 153.652C176.965 153.652 177.244 153.576 177.457 153.422C177.671 153.266 177.826 153.044 177.922 152.758C178.021 152.469 178.07 152.125 178.07 151.727C178.07 151.128 177.958 150.656 177.734 150.312C177.511 149.969 177.142 149.797 176.629 149.797C176.288 149.797 176.009 149.875 175.793 150.031C175.58 150.185 175.422 150.406 175.32 150.695C175.221 150.982 175.172 151.326 175.172 151.727Z" fill="black"/>
<path d="M185.796 148.879V153.582H186.558V156.254H185.39V154.59H181.812V156.254H180.644V153.582H181.085C181.234 153.285 181.377 152.971 181.515 152.641C181.653 152.31 181.782 151.954 181.902 151.574C182.021 151.194 182.13 150.781 182.226 150.336C182.322 149.891 182.403 149.405 182.468 148.879H185.796ZM184.589 149.887H183.429C183.39 150.163 183.337 150.457 183.269 150.77C183.201 151.082 183.12 151.401 183.027 151.727C182.936 152.049 182.833 152.368 182.718 152.684C182.606 152.999 182.486 153.298 182.359 153.582H184.589V149.887Z" fill="black"/>
<path d="M192.92 154.59H191.713V152.125H189.452V154.59H188.241V148.879H189.452V151.117H191.713V148.879H192.92V154.59Z" fill="black"/>
<path d="M195.166 148.879H196.256V151.637C196.256 151.772 196.253 151.922 196.248 152.086C196.245 152.25 196.24 152.412 196.232 152.57C196.227 152.727 196.222 152.863 196.217 152.98C196.211 153.098 196.206 153.176 196.201 153.215H196.224L198.861 148.879H200.31V154.59H199.232V151.848C199.232 151.702 199.235 151.543 199.24 151.371C199.245 151.199 199.252 151.033 199.259 150.871C199.27 150.71 199.279 150.57 199.287 150.453C199.295 150.333 199.3 150.254 199.302 150.215H199.271L196.623 154.59H195.166V148.879Z" fill="black"/>
<path d="M207.208 154.59H205.833L203.763 151.695V154.59H202.552V148.879H203.763V151.645L205.809 148.879H207.099L205.017 151.621L207.208 154.59Z" fill="black"/>
<path d="M213.91 151.727C213.91 152.167 213.856 152.568 213.746 152.93C213.637 153.289 213.47 153.599 213.246 153.859C213.025 154.12 212.744 154.32 212.402 154.461C212.061 154.599 211.658 154.668 211.192 154.668C210.725 154.668 210.322 154.599 209.981 154.461C209.639 154.32 209.357 154.12 209.133 153.859C208.912 153.599 208.746 153.288 208.637 152.926C208.527 152.564 208.473 152.161 208.473 151.719C208.473 151.128 208.569 150.613 208.762 150.176C208.957 149.736 209.257 149.395 209.66 149.152C210.064 148.91 210.577 148.789 211.199 148.789C211.819 148.789 212.328 148.91 212.727 149.152C213.128 149.395 213.425 149.736 213.617 150.176C213.813 150.616 213.91 151.133 213.91 151.727ZM209.742 151.727C209.742 152.125 209.792 152.469 209.891 152.758C209.992 153.044 210.15 153.266 210.363 153.422C210.577 153.576 210.853 153.652 211.192 153.652C211.535 153.652 211.814 153.576 212.027 153.422C212.241 153.266 212.396 153.044 212.492 152.758C212.591 152.469 212.641 152.125 212.641 151.727C212.641 151.128 212.529 150.656 212.305 150.312C212.081 149.969 211.712 149.797 211.199 149.797C210.858 149.797 210.58 149.875 210.363 150.031C210.15 150.185 209.992 150.406 209.891 150.695C209.792 150.982 209.742 151.326 209.742 151.727Z" fill="black"/>
<path d="M215.894 148.879H217.671C218.432 148.879 219.007 148.986 219.398 149.199C219.788 149.413 219.984 149.788 219.984 150.324C219.984 150.54 219.949 150.736 219.878 150.91C219.811 151.085 219.712 151.228 219.581 151.34C219.451 151.452 219.292 151.525 219.105 151.559V151.598C219.295 151.637 219.467 151.704 219.62 151.801C219.774 151.895 219.896 152.033 219.988 152.215C220.081 152.395 220.128 152.634 220.128 152.934C220.128 153.28 220.044 153.577 219.874 153.824C219.705 154.072 219.463 154.262 219.148 154.395C218.835 154.525 218.463 154.59 218.031 154.59H215.894V148.879ZM217.105 151.141H217.808C218.159 151.141 218.403 151.086 218.538 150.977C218.674 150.865 218.742 150.701 218.742 150.484C218.742 150.266 218.661 150.109 218.499 150.016C218.34 149.919 218.088 149.871 217.742 149.871H217.105V151.141ZM217.105 152.102V153.59H217.894C218.258 153.59 218.512 153.519 218.656 153.379C218.799 153.238 218.87 153.049 218.87 152.812C218.87 152.672 218.839 152.548 218.777 152.441C218.714 152.335 218.609 152.251 218.46 152.191C218.314 152.132 218.113 152.102 217.855 152.102H217.105Z" fill="black"/>
<path d="M222.069 154.59V148.879H223.28V151.07H223.67C224.199 151.07 224.633 151.145 224.971 151.293C225.312 151.441 225.565 151.647 225.729 151.91C225.893 152.171 225.975 152.469 225.975 152.805C225.975 153.37 225.788 153.809 225.413 154.121C225.04 154.434 224.446 154.59 223.631 154.59H222.069ZM223.28 153.598H223.596C223.953 153.598 224.234 153.539 224.44 153.422C224.646 153.302 224.749 153.096 224.749 152.805C224.749 152.602 224.702 152.447 224.608 152.34C224.514 152.233 224.377 152.16 224.198 152.121C224.018 152.082 223.799 152.062 223.542 152.062H223.28V153.598ZM226.67 154.59V148.879H227.877V154.59H226.67Z" fill="black"/>
<path d="M234.736 154.59H233.353L232.025 152.43L230.697 154.59H229.4L231.295 151.645L229.521 148.879H230.857L232.088 150.934L233.295 148.879H234.599L232.806 151.711L234.736 154.59Z" fill="black"/>
<path d="M121.436 164.59V158.879H125.956V164.59H124.748V159.887H122.647V164.59H121.436Z" fill="black"/>
<path d="M130.021 158.879C130.758 158.879 131.296 159.038 131.634 159.355C131.973 159.671 132.142 160.105 132.142 160.66C132.142 160.91 132.105 161.15 132.029 161.379C131.953 161.605 131.83 161.807 131.658 161.984C131.489 162.162 131.262 162.302 130.978 162.406C130.694 162.508 130.344 162.559 129.927 162.559H129.408V164.59H128.197V158.879H130.021ZM129.959 159.871H129.408V161.566H129.806C130.033 161.566 130.229 161.536 130.396 161.477C130.563 161.417 130.692 161.323 130.783 161.195C130.874 161.068 130.92 160.904 130.92 160.703C130.92 160.422 130.841 160.213 130.685 160.078C130.529 159.94 130.287 159.871 129.959 159.871Z" fill="black"/>
<path d="M134.02 158.879H135.11V161.637C135.11 161.772 135.108 161.922 135.102 162.086C135.1 162.25 135.095 162.412 135.087 162.57C135.082 162.727 135.076 162.863 135.071 162.98C135.066 163.098 135.061 163.176 135.056 163.215H135.079L137.716 158.879H139.165V164.59H138.087V161.848C138.087 161.702 138.089 161.543 138.095 161.371C138.1 161.199 138.106 161.033 138.114 160.871C138.125 160.71 138.134 160.57 138.142 160.453C138.149 160.333 138.155 160.254 138.157 160.215H138.126L135.477 164.59H134.02V158.879Z" fill="black"/>
<path d="M141.406 164.59V158.879H145.016V159.879H142.617V161.07H143.094C143.63 161.07 144.07 161.145 144.414 161.293C144.761 161.441 145.016 161.647 145.18 161.91C145.346 162.171 145.43 162.469 145.43 162.805C145.43 163.37 145.241 163.809 144.863 164.121C144.488 164.434 143.891 164.59 143.07 164.59H141.406ZM142.617 163.598H143.024C143.391 163.598 143.68 163.539 143.891 163.422C144.102 163.302 144.207 163.096 144.207 162.805C144.207 162.602 144.155 162.447 144.051 162.34C143.949 162.233 143.802 162.16 143.609 162.121C143.419 162.082 143.192 162.062 142.926 162.062H142.617V163.598Z" fill="black"/>
<path d="M152.499 161.727C152.499 162.167 152.445 162.568 152.335 162.93C152.226 163.289 152.059 163.599 151.835 163.859C151.614 164.12 151.333 164.32 150.992 164.461C150.65 164.599 150.247 164.668 149.781 164.668C149.314 164.668 148.911 164.599 148.57 164.461C148.228 164.32 147.946 164.12 147.722 163.859C147.501 163.599 147.335 163.288 147.226 162.926C147.117 162.564 147.062 162.161 147.062 161.719C147.062 161.128 147.158 160.613 147.351 160.176C147.546 159.736 147.846 159.395 148.249 159.152C148.653 158.91 149.166 158.789 149.788 158.789C150.408 158.789 150.917 158.91 151.316 159.152C151.717 159.395 152.014 159.736 152.206 160.176C152.402 160.616 152.499 161.133 152.499 161.727ZM148.331 161.727C148.331 162.125 148.381 162.469 148.48 162.758C148.581 163.044 148.739 163.266 148.952 163.422C149.166 163.576 149.442 163.652 149.781 163.652C150.124 163.652 150.403 163.576 150.617 163.422C150.83 163.266 150.985 163.044 151.081 162.758C151.18 162.469 151.23 162.125 151.23 161.727C151.23 161.128 151.118 160.656 150.894 160.312C150.67 159.969 150.301 159.797 149.788 159.797C149.447 159.797 149.169 159.875 148.952 160.031C148.739 160.185 148.581 160.406 148.48 160.695C148.381 160.982 148.331 161.326 148.331 161.727Z" fill="black"/>
<path d="M156.307 158.879C157.044 158.879 157.582 159.038 157.92 159.355C158.259 159.671 158.428 160.105 158.428 160.66C158.428 160.91 158.39 161.15 158.315 161.379C158.239 161.605 158.116 161.807 157.944 161.984C157.775 162.162 157.548 162.302 157.264 162.406C156.98 162.508 156.63 162.559 156.213 162.559H155.694V164.59H154.483V158.879H156.307ZM156.245 159.871H155.694V161.566H156.092C156.319 161.566 156.515 161.536 156.682 161.477C156.849 161.417 156.978 161.323 157.069 161.195C157.16 161.068 157.206 160.904 157.206 160.703C157.206 160.422 157.127 160.213 156.971 160.078C156.815 159.94 156.573 159.871 156.245 159.871Z" fill="black"/>
<path d="M165.49 161.727C165.49 162.167 165.435 162.568 165.326 162.93C165.217 163.289 165.05 163.599 164.826 163.859C164.605 164.12 164.323 164.32 163.982 164.461C163.641 164.599 163.237 164.668 162.771 164.668C162.305 164.668 161.901 164.599 161.56 164.461C161.219 164.32 160.937 164.12 160.713 163.859C160.491 163.599 160.326 163.288 160.217 162.926C160.107 162.564 160.052 162.161 160.052 161.719C160.052 161.128 160.149 160.613 160.342 160.176C160.537 159.736 160.836 159.395 161.24 159.152C161.644 158.91 162.157 158.789 162.779 158.789C163.399 158.789 163.908 158.91 164.306 159.152C164.707 159.395 165.004 159.736 165.197 160.176C165.392 160.616 165.49 161.133 165.49 161.727ZM161.322 161.727C161.322 162.125 161.371 162.469 161.47 162.758C161.572 163.044 161.73 163.266 161.943 163.422C162.157 163.576 162.433 163.652 162.771 163.652C163.115 163.652 163.394 163.576 163.607 163.422C163.821 163.266 163.976 163.044 164.072 162.758C164.171 162.469 164.22 162.125 164.22 161.727C164.22 161.128 164.108 160.656 163.884 160.312C163.661 159.969 163.292 159.797 162.779 159.797C162.438 159.797 162.159 159.875 161.943 160.031C161.73 160.185 161.572 160.406 161.47 160.695C161.371 160.982 161.322 161.326 161.322 161.727Z" fill="black"/>
<path d="M167.474 158.879H169.251C170.011 158.879 170.587 158.986 170.977 159.199C171.368 159.413 171.563 159.788 171.563 160.324C171.563 160.54 171.528 160.736 171.458 160.91C171.39 161.085 171.291 161.228 171.161 161.34C171.031 161.452 170.872 161.525 170.684 161.559V161.598C170.875 161.637 171.046 161.704 171.2 161.801C171.354 161.895 171.476 162.033 171.567 162.215C171.661 162.395 171.708 162.634 171.708 162.934C171.708 163.28 171.623 163.577 171.454 163.824C171.285 164.072 171.043 164.262 170.727 164.395C170.415 164.525 170.043 164.59 169.61 164.59H167.474V158.879ZM168.684 161.141H169.388C169.739 161.141 169.983 161.086 170.118 160.977C170.253 160.865 170.321 160.701 170.321 160.484C170.321 160.266 170.24 160.109 170.079 160.016C169.92 159.919 169.668 159.871 169.321 159.871H168.684V161.141ZM168.684 162.102V163.59H169.474C169.838 163.59 170.092 163.519 170.235 163.379C170.378 163.238 170.45 163.049 170.45 162.812C170.45 162.672 170.419 162.548 170.356 162.441C170.294 162.335 170.188 162.251 170.04 162.191C169.894 162.132 169.692 162.102 169.434 162.102H168.684Z" fill="black"/>
<path d="M141.447 124.815C141.447 128.52 138.886 130.537 134.09 130.537H121.338V111.463H133.817C138.64 111.463 141.174 113.398 141.174 117.104C141.174 118.738 140.684 119.992 139.676 120.837C140.847 121.736 141.447 123.071 141.447 124.815ZM127.223 117.022V118.602H134.09C134.935 118.602 135.371 118.33 135.371 117.812C135.371 117.294 134.935 117.022 134.09 117.022H127.223ZM135.643 124.188C135.643 123.67 135.207 123.398 134.362 123.398H127.223V124.978H134.362C135.207 124.978 135.643 124.706 135.643 124.188Z" fill="black"/>
<path d="M163.174 124.597C163.174 128.766 160.068 131 154.427 131H152.002C146.089 131 143.01 128.956 143.01 124.297H149.168C149.386 125.087 149.986 125.387 152.275 125.387H155.436C156.335 125.387 156.798 125.087 156.798 124.46C156.798 123.834 156.335 123.534 155.436 123.534H150.313V118.466H155.163C156.062 118.466 156.525 118.166 156.525 117.54C156.525 116.913 156.062 116.613 155.163 116.613H152.275C149.986 116.613 149.386 116.913 149.168 117.703H143.01C143.01 113.044 146.089 111 152.002 111H154.237C160.013 111 162.901 113.125 162.901 117.349C162.901 118.902 162.52 120.074 161.757 120.837C162.656 121.572 163.174 122.88 163.174 124.597Z" fill="black"/>
<path d="M184.863 111.463V130.537H178.978V117.022H171.076V130.537H165.19V111.463H184.863Z" fill="black"/>
<path d="M207.375 111.463V130.537H201.489V117.022H193.587V130.537H187.702V111.463H207.375Z" fill="black"/>
<path d="M221.276 123.561H209.668V118.003H221.276V123.561Z" fill="black"/>
<path d="M243.458 117.703H237.355C237.137 116.913 236.537 116.613 234.248 116.613H232.886C229.834 116.613 229.235 117.267 229.235 120.264V121.736C229.235 124.787 229.834 125.387 232.886 125.387H234.248C236.537 125.387 237.137 125.087 237.355 124.297H243.458C243.458 128.793 240.434 131 235.229 131H232.477C225.583 130.918 223.431 128.766 223.349 121.872V120.128C223.431 113.234 225.583 111.082 232.477 111H235.229C240.434 111 243.458 113.207 243.458 117.703Z" fill="black"/>
<path d="M108.159 136.697L85.069 112.676C84.1379 111.559 82.6483 111 81.3448 111H62.7241C61.0483 111 60.3034 113.048 61.4207 114.166L69.2414 121.8L77.0621 129.621C78.1793 130.738 77.4345 132.786 75.7586 132.786H74.0828C73.5241 132.786 73.1517 132.6 72.7793 132.228L56.2069 115.841C55.4621 115.097 54.3448 115.097 53.6 115.841L32.5586 136.697C31.8138 137.441 31.8138 138.559 32.5586 139.303L53.6 160.159C54.3448 160.903 55.4621 160.903 56.2069 160.159L72.2207 144.331C72.5931 143.959 72.9655 143.772 73.5241 143.772H75.2C76.8759 143.772 77.6207 145.821 76.5034 146.938L69.2414 154.2L61.4207 161.834C60.3034 162.952 61.0483 165 62.7241 165H81.3448C82.8345 165 84.1379 164.441 85.069 163.324L108.159 139.303C108.903 138.559 108.903 137.441 108.159 136.697Z" fill="black"/>
</svg>
